G04 Layer_Color=2752767*
%FSLAX24Y24*%
%MOIN*%
G70*
G01*
G75*
%ADD12C,0.0100*%
%ADD35C,0.0020*%
%ADD36C,0.0027*%
D12*
X88668Y144623D02*
G03*
X88668Y146985I1J1181D01*
G01*
X244422Y146985D02*
G03*
X244422Y144623I-2J-1181D01*
G01*
X88668Y127053D02*
Y144623D01*
Y146985D02*
Y174022D01*
X244422D01*
Y146985D02*
Y174022D01*
Y127053D02*
Y144623D01*
X88668Y127053D02*
X244422D01*
D35*
X191720Y160724D02*
Y160884D01*
X191880D01*
Y160724D01*
X191720D01*
X195720D02*
Y160884D01*
X195880D01*
Y160724D01*
X195720D01*
X194800Y162724D02*
X194720Y162884D01*
X194880D01*
X194800Y162724D01*
X192304Y161724D02*
X192224Y161884D01*
X192384D01*
X192304Y161724D01*
X173551Y154223D02*
X173471Y154383D01*
X173631D01*
X173551Y154223D01*
X176047Y155223D02*
X175967Y155383D01*
X176127D01*
X176047Y155223D01*
X176967Y153223D02*
Y153383D01*
X177127D01*
Y153223D01*
X176967D01*
X172967D02*
Y153383D01*
X173127D01*
Y153223D01*
X172967D01*
X94334Y168223D02*
Y168383D01*
X94494D01*
Y168223D01*
X94334D01*
X90334D02*
Y168383D01*
X90494D01*
Y168223D01*
X90334D01*
X91414Y166223D02*
X91334Y166383D01*
X91494D01*
X91414Y166223D01*
X93910Y167223D02*
X93830Y167383D01*
X93990D01*
X93910Y167223D01*
X92797Y154223D02*
X92717Y154383D01*
X92877D01*
X92797Y154223D01*
X95293Y155223D02*
X95213Y155383D01*
X95373D01*
X95293Y155223D01*
X96213Y153223D02*
Y153383D01*
X96373D01*
Y153223D01*
X96213D01*
X92213D02*
Y153383D01*
X92373D01*
Y153223D01*
X92213D01*
X93150Y145724D02*
Y145884D01*
X93310D01*
Y145724D01*
X93150D01*
X97150D02*
Y145884D01*
X97310D01*
Y145724D01*
X97150D01*
X96230Y147724D02*
X96150Y147884D01*
X96310D01*
X96230Y147724D01*
X93734Y146724D02*
X93654Y146884D01*
X93814D01*
X93734Y146724D01*
X95609Y139223D02*
X95529Y139383D01*
X95689D01*
X95609Y139223D01*
X98105Y140223D02*
X98025Y140383D01*
X98185D01*
X98105Y140223D01*
X99025Y138223D02*
Y138383D01*
X99185D01*
Y138223D01*
X99025D01*
X95025D02*
Y138383D01*
X95185D01*
Y138223D01*
X95025D01*
X109334Y168223D02*
Y168383D01*
X109494D01*
Y168223D01*
X109334D01*
X105334D02*
Y168383D01*
X105494D01*
Y168223D01*
X105334D01*
X106414Y166223D02*
X106334Y166383D01*
X106494D01*
X106414Y166223D01*
X108910Y167223D02*
X108830Y167383D01*
X108990D01*
X108910Y167223D01*
X98422Y161723D02*
X98342Y161883D01*
X98502D01*
X98422Y161723D01*
X100918Y162723D02*
X100838Y162883D01*
X100998D01*
X100918Y162723D01*
X101838Y160723D02*
Y160883D01*
X101998D01*
Y160723D01*
X101838D01*
X97838D02*
Y160883D01*
X97998D01*
Y160723D01*
X97838D01*
X101590Y153224D02*
Y153384D01*
X101750D01*
Y153224D01*
X101590D01*
X105590D02*
Y153384D01*
X105750D01*
Y153224D01*
X105590D01*
X104670Y155224D02*
X104590Y155384D01*
X104750D01*
X104670Y155224D01*
X102174Y154224D02*
X102094Y154384D01*
X102254D01*
X102174Y154224D01*
X104046Y146724D02*
X103966Y146884D01*
X104126D01*
X104046Y146724D01*
X106542Y147724D02*
X106462Y147884D01*
X106622D01*
X106542Y147724D01*
X107462Y145724D02*
Y145884D01*
X107622D01*
Y145724D01*
X107462D01*
X103462D02*
Y145884D01*
X103622D01*
Y145724D01*
X103462D01*
X107212Y138224D02*
Y138384D01*
X107372D01*
Y138224D01*
X107212D01*
X111212D02*
Y138384D01*
X111372D01*
Y138224D01*
X111212D01*
X110292Y140224D02*
X110212Y140384D01*
X110372D01*
X110292Y140224D01*
X107796Y139224D02*
X107716Y139384D01*
X107876D01*
X107796Y139224D01*
X101234Y131724D02*
X101154Y131884D01*
X101314D01*
X101234Y131724D01*
X103730Y132724D02*
X103650Y132884D01*
X103810D01*
X103730Y132724D01*
X104650Y130724D02*
Y130884D01*
X104810D01*
Y130724D01*
X104650D01*
X100650D02*
Y130884D01*
X100810D01*
Y130724D01*
X100650D01*
X116834Y168223D02*
Y168383D01*
X116994D01*
Y168223D01*
X116834D01*
X112834D02*
Y168383D01*
X112994D01*
Y168223D01*
X112834D01*
X113914Y166223D02*
X113834Y166383D01*
X113994D01*
X113914Y166223D01*
X116410Y167223D02*
X116330Y167383D01*
X116490D01*
X116410Y167223D01*
X105922Y161723D02*
X105842Y161883D01*
X106002D01*
X105922Y161723D01*
X108418Y162723D02*
X108338Y162883D01*
X108498D01*
X108418Y162723D01*
X109338Y160723D02*
Y160883D01*
X109498D01*
Y160723D01*
X109338D01*
X105338D02*
Y160883D01*
X105498D01*
Y160723D01*
X105338D01*
X109088Y153224D02*
Y153384D01*
X109248D01*
Y153224D01*
X109088D01*
X113088D02*
Y153384D01*
X113248D01*
Y153224D01*
X113088D01*
X112168Y155224D02*
X112088Y155384D01*
X112248D01*
X112168Y155224D01*
X109672Y154224D02*
X109592Y154384D01*
X109752D01*
X109672Y154224D01*
X111547Y146724D02*
X111467Y146884D01*
X111627D01*
X111547Y146724D01*
X114043Y147724D02*
X113963Y147884D01*
X114123D01*
X114043Y147724D01*
X114963Y145724D02*
Y145884D01*
X115123D01*
Y145724D01*
X114963D01*
X110963D02*
Y145884D01*
X111123D01*
Y145724D01*
X110963D01*
X114712Y138224D02*
Y138384D01*
X114872D01*
Y138224D01*
X114712D01*
X118712D02*
Y138384D01*
X118872D01*
Y138224D01*
X118712D01*
X117792Y140224D02*
X117712Y140384D01*
X117872D01*
X117792Y140224D01*
X115296Y139224D02*
X115216Y139384D01*
X115376D01*
X115296Y139224D01*
X110609Y131724D02*
X110529Y131884D01*
X110689D01*
X110609Y131724D01*
X113105Y132724D02*
X113025Y132884D01*
X113185D01*
X113105Y132724D01*
X114025Y130724D02*
Y130884D01*
X114185D01*
Y130724D01*
X114025D01*
X110025D02*
Y130884D01*
X110185D01*
Y130724D01*
X110025D01*
X124334Y168224D02*
Y168384D01*
X124494D01*
Y168224D01*
X124334D01*
X120334D02*
Y168384D01*
X120494D01*
Y168224D01*
X120334D01*
X121414Y166224D02*
X121334Y166384D01*
X121494D01*
X121414Y166224D01*
X123910Y167224D02*
X123830Y167384D01*
X123990D01*
X123910Y167224D01*
X113422Y161723D02*
X113342Y161883D01*
X113502D01*
X113422Y161723D01*
X115918Y162723D02*
X115838Y162883D01*
X115998D01*
X115918Y162723D01*
X116838Y160723D02*
Y160883D01*
X116998D01*
Y160723D01*
X116838D01*
X112838D02*
Y160883D01*
X112998D01*
Y160723D01*
X112838D01*
X116588Y153223D02*
Y153383D01*
X116748D01*
Y153223D01*
X116588D01*
X120588D02*
Y153383D01*
X120748D01*
Y153223D01*
X120588D01*
X119668Y155223D02*
X119588Y155383D01*
X119748D01*
X119668Y155223D01*
X117172Y154223D02*
X117092Y154383D01*
X117252D01*
X117172Y154223D01*
X119046Y146723D02*
X118966Y146883D01*
X119126D01*
X119046Y146723D01*
X121542Y147723D02*
X121462Y147883D01*
X121622D01*
X121542Y147723D01*
X122462Y145723D02*
Y145883D01*
X122622D01*
Y145723D01*
X122462D01*
X118462D02*
Y145883D01*
X118622D01*
Y145723D01*
X118462D01*
X122212Y138224D02*
Y138384D01*
X122372D01*
Y138224D01*
X122212D01*
X126212D02*
Y138384D01*
X126372D01*
Y138224D01*
X126212D01*
X125292Y140224D02*
X125212Y140384D01*
X125372D01*
X125292Y140224D01*
X122796Y139224D02*
X122716Y139384D01*
X122876D01*
X122796Y139224D01*
X120922Y161723D02*
X120842Y161883D01*
X121002D01*
X120922Y161723D01*
X123418Y162723D02*
X123338Y162883D01*
X123498D01*
X123418Y162723D01*
X124338Y160723D02*
Y160883D01*
X124498D01*
Y160723D01*
X124338D01*
X120338D02*
Y160883D01*
X120498D01*
Y160723D01*
X120338D01*
X124088Y153223D02*
Y153383D01*
X124248D01*
Y153223D01*
X124088D01*
X128088D02*
Y153383D01*
X128248D01*
Y153223D01*
X128088D01*
X127168Y155223D02*
X127088Y155383D01*
X127248D01*
X127168Y155223D01*
X124672Y154223D02*
X124592Y154383D01*
X124752D01*
X124672Y154223D01*
X126546Y146723D02*
X126466Y146883D01*
X126626D01*
X126546Y146723D01*
X129042Y147723D02*
X128962Y147883D01*
X129122D01*
X129042Y147723D01*
X129962Y145723D02*
Y145883D01*
X130122D01*
Y145723D01*
X129962D01*
X125962D02*
Y145883D01*
X126122D01*
Y145723D01*
X125962D01*
X129713Y138224D02*
Y138384D01*
X129873D01*
Y138224D01*
X129713D01*
X133713D02*
Y138384D01*
X133873D01*
Y138224D01*
X133713D01*
X132793Y140224D02*
X132713Y140384D01*
X132873D01*
X132793Y140224D01*
X130297Y139224D02*
X130217Y139384D01*
X130377D01*
X130297Y139224D01*
X128084Y131724D02*
X128004Y131884D01*
X128164D01*
X128084Y131724D01*
X130580Y132724D02*
X130500Y132884D01*
X130660D01*
X130580Y132724D01*
X131500Y130724D02*
Y130884D01*
X131660D01*
Y130724D01*
X131500D01*
X127500D02*
Y130884D01*
X127660D01*
Y130724D01*
X127500D01*
X127838Y160724D02*
Y160884D01*
X127998D01*
Y160724D01*
X127838D01*
X131838D02*
Y160884D01*
X131998D01*
Y160724D01*
X131838D01*
X130918Y162724D02*
X130838Y162884D01*
X130998D01*
X130918Y162724D01*
X128422Y161724D02*
X128342Y161884D01*
X128502D01*
X128422Y161724D01*
X132172Y154224D02*
X132092Y154384D01*
X132252D01*
X132172Y154224D01*
X134668Y155224D02*
X134588Y155384D01*
X134748D01*
X134668Y155224D01*
X135588Y153224D02*
Y153384D01*
X135748D01*
Y153224D01*
X135588D01*
X131588D02*
Y153384D01*
X131748D01*
Y153224D01*
X131588D01*
X133463Y145723D02*
Y145883D01*
X133623D01*
Y145723D01*
X133463D01*
X137463D02*
Y145883D01*
X137623D01*
Y145723D01*
X137463D01*
X136543Y147723D02*
X136463Y147883D01*
X136623D01*
X136543Y147723D01*
X134047Y146723D02*
X133967Y146883D01*
X134127D01*
X134047Y146723D01*
X137797Y139224D02*
X137717Y139384D01*
X137877D01*
X137797Y139224D01*
X140293Y140224D02*
X140213Y140384D01*
X140373D01*
X140293Y140224D01*
X141213Y138224D02*
Y138384D01*
X141373D01*
Y138224D01*
X141213D01*
X137213D02*
Y138384D01*
X137373D01*
Y138224D01*
X137213D01*
X135338Y160724D02*
Y160884D01*
X135498D01*
Y160724D01*
X135338D01*
X139338D02*
Y160884D01*
X139498D01*
Y160724D01*
X139338D01*
X138418Y162724D02*
X138338Y162884D01*
X138498D01*
X138418Y162724D01*
X135922Y161724D02*
X135842Y161884D01*
X136002D01*
X135922Y161724D01*
X161540Y167224D02*
X161460Y167384D01*
X161620D01*
X161540Y167224D01*
X159044Y166224D02*
X158964Y166384D01*
X159124D01*
X159044Y166224D01*
X157964Y168224D02*
Y168384D01*
X158124D01*
Y168224D01*
X157964D01*
X161964D02*
Y168384D01*
X162124D01*
Y168224D01*
X161964D01*
X157967Y153224D02*
Y153384D01*
X158127D01*
Y153224D01*
X157967D01*
X161967D02*
Y153384D01*
X162127D01*
Y153224D01*
X161967D01*
X161047Y155224D02*
X160967Y155384D01*
X161127D01*
X161047Y155224D01*
X158551Y154224D02*
X158471Y154384D01*
X158631D01*
X158551Y154224D01*
X160426Y146723D02*
X160346Y146883D01*
X160506D01*
X160426Y146723D01*
X162922Y147723D02*
X162842Y147883D01*
X163002D01*
X162922Y147723D01*
X163842Y145723D02*
Y145883D01*
X164002D01*
Y145723D01*
X163842D01*
X159842D02*
Y145883D01*
X160002D01*
Y145723D01*
X159842D01*
X163592Y138223D02*
Y138383D01*
X163752D01*
Y138223D01*
X163592D01*
X167592D02*
Y138383D01*
X167752D01*
Y138223D01*
X167592D01*
X166672Y140223D02*
X166592Y140383D01*
X166752D01*
X166672Y140223D01*
X164176Y139223D02*
X164096Y139383D01*
X164256D01*
X164176Y139223D01*
X168265Y131724D02*
X168185Y131884D01*
X168345D01*
X168265Y131724D01*
X170761Y132724D02*
X170681Y132884D01*
X170841D01*
X170761Y132724D01*
X171681Y130724D02*
Y130884D01*
X171841D01*
Y130724D01*
X171681D01*
X167681D02*
Y130884D01*
X167841D01*
Y130724D01*
X167681D01*
X169464Y168223D02*
Y168383D01*
X169624D01*
Y168223D01*
X169464D01*
X165464D02*
Y168383D01*
X165624D01*
Y168223D01*
X165464D01*
X166544Y166223D02*
X166464Y166383D01*
X166624D01*
X166544Y166223D01*
X169040Y167223D02*
X168960Y167383D01*
X169120D01*
X169040Y167223D01*
X162299Y161723D02*
X162219Y161883D01*
X162379D01*
X162299Y161723D01*
X164795Y162723D02*
X164715Y162883D01*
X164875D01*
X164795Y162723D01*
X165715Y160723D02*
Y160883D01*
X165875D01*
Y160723D01*
X165715D01*
X161715D02*
Y160883D01*
X161875D01*
Y160723D01*
X161715D01*
X165467Y153223D02*
Y153383D01*
X165627D01*
Y153223D01*
X165467D01*
X169467D02*
Y153383D01*
X169627D01*
Y153223D01*
X169467D01*
X168547Y155223D02*
X168467Y155383D01*
X168627D01*
X168547Y155223D01*
X166051Y154223D02*
X165971Y154383D01*
X166131D01*
X166051Y154223D01*
X167926Y146723D02*
X167846Y146883D01*
X168006D01*
X167926Y146723D01*
X170422Y147723D02*
X170342Y147883D01*
X170502D01*
X170422Y147723D01*
X171342Y145723D02*
Y145883D01*
X171502D01*
Y145723D01*
X171342D01*
X167342D02*
Y145883D01*
X167502D01*
Y145723D01*
X167342D01*
X171092Y138223D02*
Y138383D01*
X171252D01*
Y138223D01*
X171092D01*
X175092D02*
Y138383D01*
X175252D01*
Y138223D01*
X175092D01*
X174172Y140223D02*
X174092Y140383D01*
X174252D01*
X174172Y140223D01*
X171676Y139223D02*
X171596Y139383D01*
X171756D01*
X171676Y139223D01*
X176540Y167223D02*
X176460Y167383D01*
X176620D01*
X176540Y167223D01*
X174044Y166223D02*
X173964Y166383D01*
X174124D01*
X174044Y166223D01*
X172964Y168223D02*
Y168383D01*
X173124D01*
Y168223D01*
X172964D01*
X176964D02*
Y168383D01*
X177124D01*
Y168223D01*
X176964D01*
X169217Y160723D02*
Y160883D01*
X169377D01*
Y160723D01*
X169217D01*
X173217D02*
Y160883D01*
X173377D01*
Y160723D01*
X173217D01*
X172297Y162723D02*
X172217Y162883D01*
X172377D01*
X172297Y162723D01*
X169801Y161723D02*
X169721Y161883D01*
X169881D01*
X169801Y161723D01*
X175426Y146723D02*
X175346Y146883D01*
X175506D01*
X175426Y146723D01*
X177922Y147723D02*
X177842Y147883D01*
X178002D01*
X177922Y147723D01*
X178842Y145723D02*
Y145883D01*
X179002D01*
Y145723D01*
X178842D01*
X174842D02*
Y145883D01*
X175002D01*
Y145723D01*
X174842D01*
X178592Y138223D02*
Y138383D01*
X178752D01*
Y138223D01*
X178592D01*
X182592D02*
Y138383D01*
X182752D01*
Y138223D01*
X182592D01*
X181672Y140223D02*
X181592Y140383D01*
X181752D01*
X181672Y140223D01*
X179176Y139223D02*
X179096Y139383D01*
X179256D01*
X179176Y139223D01*
X184046Y167220D02*
X183966Y167380D01*
X184126D01*
X184046Y167220D01*
X181550Y166220D02*
X181470Y166380D01*
X181630D01*
X181550Y166220D01*
X180470Y168220D02*
Y168380D01*
X180630D01*
Y168220D01*
X180470D01*
X184470D02*
Y168380D01*
X184630D01*
Y168220D01*
X184470D01*
X176717Y160723D02*
Y160883D01*
X176877D01*
Y160723D01*
X176717D01*
X180717D02*
Y160883D01*
X180877D01*
Y160723D01*
X180717D01*
X179797Y162723D02*
X179717Y162883D01*
X179877D01*
X179797Y162723D01*
X177301Y161723D02*
X177221Y161883D01*
X177381D01*
X177301Y161723D01*
X181051Y154223D02*
X180971Y154383D01*
X181131D01*
X181051Y154223D01*
X183547Y155223D02*
X183467Y155383D01*
X183627D01*
X183547Y155223D01*
X184467Y153223D02*
Y153383D01*
X184627D01*
Y153223D01*
X184467D01*
X180467D02*
Y153383D01*
X180627D01*
Y153223D01*
X180467D01*
X182342Y145723D02*
Y145883D01*
X182502D01*
Y145723D01*
X182342D01*
X186342D02*
Y145883D01*
X186502D01*
Y145723D01*
X186342D01*
X185422Y147723D02*
X185342Y147883D01*
X185502D01*
X185422Y147723D01*
X182926Y146723D02*
X182846Y146883D01*
X183006D01*
X182926Y146723D01*
X186676Y139223D02*
X186596Y139383D01*
X186756D01*
X186676Y139223D01*
X189172Y140223D02*
X189092Y140383D01*
X189252D01*
X189172Y140223D01*
X190092Y138223D02*
Y138383D01*
X190252D01*
Y138223D01*
X190092D01*
X186092D02*
Y138383D01*
X186252D01*
Y138223D01*
X186092D01*
X185154Y130724D02*
Y130884D01*
X185314D01*
Y130724D01*
X185154D01*
X189154D02*
Y130884D01*
X189314D01*
Y130724D01*
X189154D01*
X188234Y132724D02*
X188154Y132884D01*
X188314D01*
X188234Y132724D01*
X185738Y131724D02*
X185658Y131884D01*
X185818D01*
X185738Y131724D01*
X195293Y167223D02*
X195213Y167383D01*
X195373D01*
X195293Y167223D01*
X192797Y166223D02*
X192717Y166383D01*
X192877D01*
X192797Y166223D01*
X191717Y168223D02*
Y168383D01*
X191877D01*
Y168223D01*
X191717D01*
X195717D02*
Y168383D01*
X195877D01*
Y168223D01*
X195717D01*
X184217Y160723D02*
Y160883D01*
X184377D01*
Y160723D01*
X184217D01*
X188217D02*
Y160883D01*
X188377D01*
Y160723D01*
X188217D01*
X187297Y162723D02*
X187217Y162883D01*
X187377D01*
X187297Y162723D01*
X184801Y161723D02*
X184721Y161883D01*
X184881D01*
X184801Y161723D01*
X188551Y154223D02*
X188471Y154383D01*
X188631D01*
X188551Y154223D01*
X191047Y155223D02*
X190967Y155383D01*
X191127D01*
X191047Y155223D01*
X191967Y153223D02*
Y153383D01*
X192127D01*
Y153223D01*
X191967D01*
X187967D02*
Y153383D01*
X188127D01*
Y153223D01*
X187967D01*
X189842Y145723D02*
Y145883D01*
X190002D01*
Y145723D01*
X189842D01*
X193842D02*
Y145883D01*
X194002D01*
Y145723D01*
X193842D01*
X192922Y147723D02*
X192842Y147883D01*
X193002D01*
X192922Y147723D01*
X190426Y146723D02*
X190346Y146883D01*
X190506D01*
X190426Y146723D01*
X194176Y139224D02*
X194096Y139384D01*
X194256D01*
X194176Y139224D01*
X196672Y140224D02*
X196592Y140384D01*
X196752D01*
X196672Y140224D01*
X197592Y138224D02*
Y138384D01*
X197752D01*
Y138224D01*
X197592D01*
X193592D02*
Y138384D01*
X193752D01*
Y138224D01*
X193592D01*
X194529Y130724D02*
Y130884D01*
X194689D01*
Y130724D01*
X194529D01*
X198529D02*
Y130884D01*
X198689D01*
Y130724D01*
X198529D01*
X197609Y132724D02*
X197529Y132884D01*
X197689D01*
X197609Y132724D01*
X195113Y131724D02*
X195033Y131884D01*
X195193D01*
X195113Y131724D01*
X202793Y167224D02*
X202713Y167384D01*
X202873D01*
X202793Y167224D01*
X200297Y166224D02*
X200217Y166384D01*
X200377D01*
X200297Y166224D01*
X199217Y168224D02*
Y168384D01*
X199377D01*
Y168224D01*
X199217D01*
X203217D02*
Y168384D01*
X203377D01*
Y168224D01*
X203217D01*
X195470Y153224D02*
Y153384D01*
X195630D01*
Y153224D01*
X195470D01*
X199470D02*
Y153384D01*
X199630D01*
Y153224D01*
X199470D01*
X198550Y155224D02*
X198470Y155384D01*
X198630D01*
X198550Y155224D01*
X196054Y154224D02*
X195974Y154384D01*
X196134D01*
X196054Y154224D01*
X197926Y146723D02*
X197846Y146883D01*
X198006D01*
X197926Y146723D01*
X200422Y147723D02*
X200342Y147883D01*
X200502D01*
X200422Y147723D01*
X201342Y145723D02*
Y145883D01*
X201502D01*
Y145723D01*
X201342D01*
X197342D02*
Y145883D01*
X197502D01*
Y145723D01*
X197342D01*
X207654Y138223D02*
Y138383D01*
X207814D01*
Y138223D01*
X207654D01*
X211654D02*
Y138383D01*
X211814D01*
Y138223D01*
X211654D01*
X210734Y140223D02*
X210654Y140383D01*
X210814D01*
X210734Y140223D01*
X208238Y139223D02*
X208158Y139383D01*
X208318D01*
X208238Y139223D01*
X204488Y131724D02*
X204408Y131884D01*
X204568D01*
X204488Y131724D01*
X206984Y132724D02*
X206904Y132884D01*
X207064D01*
X206984Y132724D01*
X207904Y130724D02*
Y130884D01*
X208064D01*
Y130724D01*
X207904D01*
X203904D02*
Y130884D01*
X204064D01*
Y130724D01*
X203904D01*
X210717Y168223D02*
Y168383D01*
X210877D01*
Y168223D01*
X210717D01*
X206717D02*
Y168383D01*
X206877D01*
Y168223D01*
X206717D01*
X207797Y166223D02*
X207717Y166383D01*
X207877D01*
X207797Y166223D01*
X210293Y167223D02*
X210213Y167383D01*
X210373D01*
X210293Y167223D01*
X199801Y161723D02*
X199721Y161883D01*
X199881D01*
X199801Y161723D01*
X202297Y162723D02*
X202217Y162883D01*
X202377D01*
X202297Y162723D01*
X203217Y160723D02*
Y160883D01*
X203377D01*
Y160723D01*
X203217D01*
X199217D02*
Y160883D01*
X199377D01*
Y160723D01*
X199217D01*
X202967Y153224D02*
Y153384D01*
X203127D01*
Y153224D01*
X202967D01*
X206967D02*
Y153384D01*
X207127D01*
Y153224D01*
X206967D01*
X206047Y155224D02*
X205967Y155384D01*
X206127D01*
X206047Y155224D01*
X203551Y154224D02*
X203471Y154384D01*
X203631D01*
X203551Y154224D01*
X210113Y146723D02*
X210033Y146883D01*
X210193D01*
X210113Y146723D01*
X212609Y147723D02*
X212529Y147883D01*
X212689D01*
X212609Y147723D01*
X213529Y145723D02*
Y145883D01*
X213689D01*
Y145723D01*
X213529D01*
X209529D02*
Y145883D01*
X209689D01*
Y145723D01*
X209529D01*
X213279Y130724D02*
Y130884D01*
X213439D01*
Y130724D01*
X213279D01*
X217279D02*
Y130884D01*
X217439D01*
Y130724D01*
X217279D01*
X216359Y132724D02*
X216279Y132884D01*
X216439D01*
X216359Y132724D01*
X213863Y131724D02*
X213783Y131884D01*
X213943D01*
X213863Y131724D01*
X217793Y167224D02*
X217713Y167384D01*
X217873D01*
X217793Y167224D01*
X215297Y166224D02*
X215217Y166384D01*
X215377D01*
X215297Y166224D01*
X214217Y168224D02*
Y168384D01*
X214377D01*
Y168224D01*
X214217D01*
X218217D02*
Y168384D01*
X218377D01*
Y168224D01*
X218217D01*
X210467Y160723D02*
Y160883D01*
X210627D01*
Y160723D01*
X210467D01*
X214467D02*
Y160883D01*
X214627D01*
Y160723D01*
X214467D01*
X213547Y162723D02*
X213467Y162883D01*
X213627D01*
X213547Y162723D01*
X211051Y161723D02*
X210971Y161883D01*
X211131D01*
X211051Y161723D01*
X212926Y154223D02*
X212846Y154383D01*
X213006D01*
X212926Y154223D01*
X215422Y155223D02*
X215342Y155383D01*
X215502D01*
X215422Y155223D01*
X216342Y153223D02*
Y153383D01*
X216502D01*
Y153223D01*
X216342D01*
X212342D02*
Y153383D01*
X212502D01*
Y153223D01*
X212342D01*
X227592Y168224D02*
Y168384D01*
X227752D01*
Y168224D01*
X227592D01*
X223592D02*
Y168384D01*
X223752D01*
Y168224D01*
X223592D01*
X224672Y166224D02*
X224592Y166384D01*
X224752D01*
X224672Y166224D01*
X227168Y167224D02*
X227088Y167384D01*
X227248D01*
X227168Y167224D01*
X224180Y161723D02*
X224100Y161883D01*
X224260D01*
X224180Y161723D01*
X226676Y162723D02*
X226596Y162883D01*
X226756D01*
X226676Y162723D01*
X227596Y160723D02*
Y160883D01*
X227756D01*
Y160723D01*
X227596D01*
X223596D02*
Y160883D01*
X223756D01*
Y160723D01*
X223596D01*
X223596Y153223D02*
Y153383D01*
X223756D01*
Y153223D01*
X223596D01*
X227596D02*
Y153383D01*
X227756D01*
Y153223D01*
X227596D01*
X226676Y155223D02*
X226596Y155383D01*
X226756D01*
X226676Y155223D01*
X224180Y154223D02*
X224100Y154383D01*
X224260D01*
X224180Y154223D01*
Y131724D02*
X224100Y131884D01*
X224260D01*
X224180Y131724D01*
X226676Y132724D02*
X226596Y132884D01*
X226756D01*
X226676Y132724D01*
X227596Y130724D02*
Y130884D01*
X227756D01*
Y130724D01*
X227596D01*
X223596D02*
Y130884D01*
X223756D01*
Y130724D01*
X223596D01*
X235092Y168223D02*
Y168383D01*
X235252D01*
Y168223D01*
X235092D01*
X231092D02*
Y168383D01*
X231252D01*
Y168223D01*
X231092D01*
X232172Y166223D02*
X232092Y166383D01*
X232252D01*
X232172Y166223D01*
X234668Y167223D02*
X234588Y167383D01*
X234748D01*
X234668Y167223D01*
X231680Y161723D02*
X231600Y161883D01*
X231760D01*
X231680Y161723D01*
X234176Y162723D02*
X234096Y162883D01*
X234256D01*
X234176Y162723D01*
X235096Y160723D02*
Y160883D01*
X235256D01*
Y160723D01*
X235096D01*
X231096D02*
Y160883D01*
X231256D01*
Y160723D01*
X231096D01*
X231089Y153224D02*
Y153384D01*
X231249D01*
Y153224D01*
X231089D01*
X235089D02*
Y153384D01*
X235249D01*
Y153224D01*
X235089D01*
X234169Y155224D02*
X234089Y155384D01*
X234249D01*
X234169Y155224D01*
X231673Y154224D02*
X231593Y154384D01*
X231753D01*
X231673Y154224D01*
X231680Y139224D02*
X231600Y139384D01*
X231760D01*
X231680Y139224D01*
X234176Y140224D02*
X234096Y140384D01*
X234256D01*
X234176Y140224D01*
X235096Y138224D02*
Y138384D01*
X235256D01*
Y138224D01*
X235096D01*
X231096D02*
Y138384D01*
X231256D01*
Y138224D01*
X231096D01*
Y130724D02*
Y130884D01*
X231256D01*
Y130724D01*
X231096D01*
X235096D02*
Y130884D01*
X235256D01*
Y130724D01*
X235096D01*
X234176Y132724D02*
X234096Y132884D01*
X234256D01*
X234176Y132724D01*
X231680Y131724D02*
X231600Y131884D01*
X231760D01*
X231680Y131724D01*
X242168Y167224D02*
X242088Y167384D01*
X242248D01*
X242168Y167224D01*
X239672Y166224D02*
X239592Y166384D01*
X239752D01*
X239672Y166224D01*
X238592Y168224D02*
Y168384D01*
X238752D01*
Y168224D01*
X238592D01*
X242592D02*
Y168384D01*
X242752D01*
Y168224D01*
X242592D01*
X238596Y160723D02*
Y160883D01*
X238756D01*
Y160723D01*
X238596D01*
X242596D02*
Y160883D01*
X242756D01*
Y160723D01*
X242596D01*
X241676Y162723D02*
X241596Y162883D01*
X241756D01*
X241676Y162723D01*
X239180Y161723D02*
X239100Y161883D01*
X239260D01*
X239180Y161723D01*
Y154223D02*
X239100Y154383D01*
X239260D01*
X239180Y154223D01*
X241676Y155223D02*
X241596Y155383D01*
X241756D01*
X241676Y155223D01*
X242596Y153223D02*
Y153383D01*
X242756D01*
Y153223D01*
X242596D01*
X238596D02*
Y153383D01*
X238756D01*
Y153223D01*
X238596D01*
X238590Y130724D02*
Y130884D01*
X238750D01*
Y130724D01*
X238590D01*
X242590D02*
Y130884D01*
X242750D01*
Y130724D01*
X242590D01*
X241670Y132724D02*
X241590Y132884D01*
X241750D01*
X241670Y132724D01*
X239174Y131724D02*
X239094Y131884D01*
X239254D01*
X239174Y131724D01*
X91859Y131724D02*
X91779Y131884D01*
X91939D01*
X91859Y131724D01*
X94355Y132724D02*
X94275Y132884D01*
X94435D01*
X94355Y132724D01*
X95275Y130724D02*
Y130884D01*
X95435D01*
Y130724D01*
X95275D01*
X91275D02*
Y130884D01*
X91435D01*
Y130724D01*
X91275D01*
X90338Y160723D02*
Y160883D01*
X90498D01*
Y160723D01*
X90338D01*
X94338D02*
Y160883D01*
X94498D01*
Y160723D01*
X94338D01*
X93418Y162723D02*
X93338Y162883D01*
X93498D01*
X93418Y162723D01*
X90922Y161723D02*
X90842Y161883D01*
X91002D01*
X90922Y161723D01*
X131410Y167224D02*
X131330Y167384D01*
X131490D01*
X131410Y167224D01*
X128914Y166224D02*
X128834Y166384D01*
X128994D01*
X128914Y166224D01*
X127834Y168224D02*
Y168384D01*
X127994D01*
Y168224D01*
X127834D01*
X131834D02*
Y168384D01*
X131994D01*
Y168224D01*
X131834D01*
X150910Y169413D02*
X150950Y169453D01*
X150990D01*
X150950Y169493D01*
X150990Y169533D01*
X150950D01*
X150910Y169573D01*
X150870Y169533D01*
X150830D01*
X150870Y169493D01*
X150830Y169453D01*
X150870D01*
X150910Y169413D01*
Y168413D02*
X150950Y168453D01*
X150990D01*
X150950Y168493D01*
X150990Y168533D01*
X150950D01*
X150910Y168573D01*
X150870Y168533D01*
X150830D01*
X150870Y168493D01*
X150830Y168453D01*
X150870D01*
X150910Y168413D01*
Y167413D02*
X150950Y167453D01*
X150990D01*
X150950Y167493D01*
X150990Y167533D01*
X150950D01*
X150910Y167573D01*
X150870Y167533D01*
X150830D01*
X150870Y167493D01*
X150830Y167453D01*
X150870D01*
X150910Y167413D01*
Y166413D02*
X150950Y166453D01*
X150990D01*
X150950Y166493D01*
X150990Y166533D01*
X150950D01*
X150910Y166573D01*
X150870Y166533D01*
X150830D01*
X150870Y166493D01*
X150830Y166453D01*
X150870D01*
X150910Y166413D01*
Y165413D02*
X150950Y165453D01*
X150990D01*
X150950Y165493D01*
X150990Y165533D01*
X150950D01*
X150910Y165573D01*
X150870Y165533D01*
X150830D01*
X150870Y165493D01*
X150830Y165453D01*
X150870D01*
X150910Y165413D01*
Y164413D02*
X150950Y164453D01*
X150990D01*
X150950Y164493D01*
X150990Y164533D01*
X150950D01*
X150910Y164573D01*
X150870Y164533D01*
X150830D01*
X150870Y164493D01*
X150830Y164453D01*
X150870D01*
X150910Y164413D01*
Y163413D02*
X150950Y163453D01*
X150990D01*
X150950Y163493D01*
X150990Y163533D01*
X150950D01*
X150910Y163573D01*
X150870Y163533D01*
X150830D01*
X150870Y163493D01*
X150830Y163453D01*
X150870D01*
X150910Y163413D01*
Y162413D02*
X150950Y162453D01*
X150990D01*
X150950Y162493D01*
X150990Y162533D01*
X150950D01*
X150910Y162573D01*
X150870Y162533D01*
X150830D01*
X150870Y162493D01*
X150830Y162453D01*
X150870D01*
X150910Y162413D01*
Y161413D02*
X150950Y161453D01*
X150990D01*
X150950Y161493D01*
X150990Y161533D01*
X150950D01*
X150910Y161573D01*
X150870Y161533D01*
X150830D01*
X150870Y161493D01*
X150830Y161453D01*
X150870D01*
X150910Y161413D01*
Y160413D02*
X150950Y160453D01*
X150990D01*
X150950Y160493D01*
X150990Y160533D01*
X150950D01*
X150910Y160573D01*
X150870Y160533D01*
X150830D01*
X150870Y160493D01*
X150830Y160453D01*
X150870D01*
X150910Y160413D01*
Y159413D02*
X150950Y159453D01*
X150990D01*
X150950Y159493D01*
X150990Y159533D01*
X150950D01*
X150910Y159573D01*
X150870Y159533D01*
X150830D01*
X150870Y159493D01*
X150830Y159453D01*
X150870D01*
X150910Y159413D01*
Y158413D02*
X150950Y158453D01*
X150990D01*
X150950Y158493D01*
X150990Y158533D01*
X150950D01*
X150910Y158573D01*
X150870Y158533D01*
X150830D01*
X150870Y158493D01*
X150830Y158453D01*
X150870D01*
X150910Y158413D01*
Y157413D02*
X150950Y157453D01*
X150990D01*
X150950Y157493D01*
X150990Y157533D01*
X150950D01*
X150910Y157573D01*
X150870Y157533D01*
X150830D01*
X150870Y157493D01*
X150830Y157453D01*
X150870D01*
X150910Y157413D01*
Y156413D02*
X150950Y156453D01*
X150990D01*
X150950Y156493D01*
X150990Y156533D01*
X150950D01*
X150910Y156573D01*
X150870Y156533D01*
X150830D01*
X150870Y156493D01*
X150830Y156453D01*
X150870D01*
X150910Y156413D01*
Y155413D02*
X150950Y155453D01*
X150990D01*
X150950Y155493D01*
X150990Y155533D01*
X150950D01*
X150910Y155573D01*
X150870Y155533D01*
X150830D01*
X150870Y155493D01*
X150830Y155453D01*
X150870D01*
X150910Y155413D01*
Y154413D02*
X150950Y154453D01*
X150990D01*
X150950Y154493D01*
X150990Y154533D01*
X150950D01*
X150910Y154573D01*
X150870Y154533D01*
X150830D01*
X150870Y154493D01*
X150830Y154453D01*
X150870D01*
X150910Y154413D01*
Y153413D02*
X150950Y153453D01*
X150990D01*
X150950Y153493D01*
X150990Y153533D01*
X150950D01*
X150910Y153573D01*
X150870Y153533D01*
X150830D01*
X150870Y153493D01*
X150830Y153453D01*
X150870D01*
X150910Y153413D01*
Y152413D02*
X150950Y152453D01*
X150990D01*
X150950Y152493D01*
X150990Y152533D01*
X150950D01*
X150910Y152573D01*
X150870Y152533D01*
X150830D01*
X150870Y152493D01*
X150830Y152453D01*
X150870D01*
X150910Y152413D01*
Y151413D02*
X150950Y151453D01*
X150990D01*
X150950Y151493D01*
X150990Y151533D01*
X150950D01*
X150910Y151573D01*
X150870Y151533D01*
X150830D01*
X150870Y151493D01*
X150830Y151453D01*
X150870D01*
X150910Y151413D01*
Y150413D02*
X150950Y150453D01*
X150990D01*
X150950Y150493D01*
X150990Y150533D01*
X150950D01*
X150910Y150573D01*
X150870Y150533D01*
X150830D01*
X150870Y150493D01*
X150830Y150453D01*
X150870D01*
X150910Y150413D01*
X144920Y162413D02*
X144960Y162453D01*
X145000D01*
X144960Y162493D01*
X145000Y162533D01*
X144960D01*
X144920Y162573D01*
X144880Y162533D01*
X144840D01*
X144880Y162493D01*
X144840Y162453D01*
X144880D01*
X144920Y162413D01*
Y161413D02*
X144960Y161453D01*
X145000D01*
X144960Y161493D01*
X145000Y161533D01*
X144960D01*
X144920Y161573D01*
X144880Y161533D01*
X144840D01*
X144880Y161493D01*
X144840Y161453D01*
X144880D01*
X144920Y161413D01*
Y169413D02*
X144960Y169453D01*
X145000D01*
X144960Y169493D01*
X145000Y169533D01*
X144960D01*
X144920Y169573D01*
X144880Y169533D01*
X144840D01*
X144880Y169493D01*
X144840Y169453D01*
X144880D01*
X144920Y169413D01*
Y168413D02*
X144960Y168453D01*
X145000D01*
X144960Y168493D01*
X145000Y168533D01*
X144960D01*
X144920Y168573D01*
X144880Y168533D01*
X144840D01*
X144880Y168493D01*
X144840Y168453D01*
X144880D01*
X144920Y168413D01*
Y167413D02*
X144960Y167453D01*
X145000D01*
X144960Y167493D01*
X145000Y167533D01*
X144960D01*
X144920Y167573D01*
X144880Y167533D01*
X144840D01*
X144880Y167493D01*
X144840Y167453D01*
X144880D01*
X144920Y167413D01*
Y166413D02*
X144960Y166453D01*
X145000D01*
X144960Y166493D01*
X145000Y166533D01*
X144960D01*
X144920Y166573D01*
X144880Y166533D01*
X144840D01*
X144880Y166493D01*
X144840Y166453D01*
X144880D01*
X144920Y166413D01*
Y165413D02*
X144960Y165453D01*
X145000D01*
X144960Y165493D01*
X145000Y165533D01*
X144960D01*
X144920Y165573D01*
X144880Y165533D01*
X144840D01*
X144880Y165493D01*
X144840Y165453D01*
X144880D01*
X144920Y165413D01*
Y164413D02*
X144960Y164453D01*
X145000D01*
X144960Y164493D01*
X145000Y164533D01*
X144960D01*
X144920Y164573D01*
X144880Y164533D01*
X144840D01*
X144880Y164493D01*
X144840Y164453D01*
X144880D01*
X144920Y164413D01*
Y163413D02*
X144960Y163453D01*
X145000D01*
X144960Y163493D01*
X145000Y163533D01*
X144960D01*
X144920Y163573D01*
X144880Y163533D01*
X144840D01*
X144880Y163493D01*
X144840Y163453D01*
X144880D01*
X144920Y163413D01*
Y160413D02*
X144960Y160453D01*
X145000D01*
X144960Y160493D01*
X145000Y160533D01*
X144960D01*
X144920Y160573D01*
X144880Y160533D01*
X144840D01*
X144880Y160493D01*
X144840Y160453D01*
X144880D01*
X144920Y160413D01*
Y159413D02*
X144960Y159453D01*
X145000D01*
X144960Y159493D01*
X145000Y159533D01*
X144960D01*
X144920Y159573D01*
X144880Y159533D01*
X144840D01*
X144880Y159493D01*
X144840Y159453D01*
X144880D01*
X144920Y159413D01*
Y158413D02*
X144960Y158453D01*
X145000D01*
X144960Y158493D01*
X145000Y158533D01*
X144960D01*
X144920Y158573D01*
X144880Y158533D01*
X144840D01*
X144880Y158493D01*
X144840Y158453D01*
X144880D01*
X144920Y158413D01*
Y157413D02*
X144960Y157453D01*
X145000D01*
X144960Y157493D01*
X145000Y157533D01*
X144960D01*
X144920Y157573D01*
X144880Y157533D01*
X144840D01*
X144880Y157493D01*
X144840Y157453D01*
X144880D01*
X144920Y157413D01*
Y156413D02*
X144960Y156453D01*
X145000D01*
X144960Y156493D01*
X145000Y156533D01*
X144960D01*
X144920Y156573D01*
X144880Y156533D01*
X144840D01*
X144880Y156493D01*
X144840Y156453D01*
X144880D01*
X144920Y156413D01*
Y155413D02*
X144960Y155453D01*
X145000D01*
X144960Y155493D01*
X145000Y155533D01*
X144960D01*
X144920Y155573D01*
X144880Y155533D01*
X144840D01*
X144880Y155493D01*
X144840Y155453D01*
X144880D01*
X144920Y155413D01*
Y154413D02*
X144960Y154453D01*
X145000D01*
X144960Y154493D01*
X145000Y154533D01*
X144960D01*
X144920Y154573D01*
X144880Y154533D01*
X144840D01*
X144880Y154493D01*
X144840Y154453D01*
X144880D01*
X144920Y154413D01*
Y153413D02*
X144960Y153453D01*
X145000D01*
X144960Y153493D01*
X145000Y153533D01*
X144960D01*
X144920Y153573D01*
X144880Y153533D01*
X144840D01*
X144880Y153493D01*
X144840Y153453D01*
X144880D01*
X144920Y153413D01*
Y152413D02*
X144960Y152453D01*
X145000D01*
X144960Y152493D01*
X145000Y152533D01*
X144960D01*
X144920Y152573D01*
X144880Y152533D01*
X144840D01*
X144880Y152493D01*
X144840Y152453D01*
X144880D01*
X144920Y152413D01*
Y151413D02*
X144960Y151453D01*
X145000D01*
X144960Y151493D01*
X145000Y151533D01*
X144960D01*
X144920Y151573D01*
X144880Y151533D01*
X144840D01*
X144880Y151493D01*
X144840Y151453D01*
X144880D01*
X144920Y151413D01*
Y150413D02*
X144960Y150453D01*
X145000D01*
X144960Y150493D01*
X145000Y150533D01*
X144960D01*
X144920Y150573D01*
X144880Y150533D01*
X144840D01*
X144880Y150493D01*
X144840Y150453D01*
X144880D01*
X144920Y150413D01*
X148174Y142672D02*
X148214Y142752D01*
X148174Y142832D01*
X148254Y142792D01*
X148334Y142832D01*
X148294Y142752D01*
X148334Y142672D01*
X148254Y142712D01*
X148174Y142672D01*
X149158D02*
X149198Y142752D01*
X149158Y142832D01*
X149238Y142792D01*
X149318Y142832D01*
X149278Y142752D01*
X149318Y142672D01*
X149238Y142712D01*
X149158Y142672D01*
X148174Y137072D02*
X148214Y137152D01*
X148174Y137232D01*
X148254Y137192D01*
X148334Y137232D01*
X148294Y137152D01*
X148334Y137072D01*
X148254Y137112D01*
X148174Y137072D01*
X149158D02*
X149198Y137152D01*
X149158Y137232D01*
X149238Y137192D01*
X149318Y137232D01*
X149278Y137152D01*
X149318Y137072D01*
X149238Y137112D01*
X149158Y137072D01*
X184710Y181640D02*
Y181600D01*
X184790D01*
Y181640D01*
X184830D01*
Y181720D01*
X184790D01*
Y181760D01*
X184710D01*
Y181720D01*
X184670D01*
Y181640D01*
X184710D01*
X184890Y170040D02*
Y170000D01*
X184970D01*
Y170040D01*
X185010D01*
Y170120D01*
X184970D01*
Y170160D01*
X184890D01*
Y170120D01*
X184850D01*
Y170040D01*
X184890D01*
X96573Y164850D02*
Y164810D01*
X96653D01*
Y164850D01*
X96693D01*
Y164930D01*
X96653D01*
Y164970D01*
X96573D01*
Y164930D01*
X96533D01*
Y164850D01*
X96573D01*
X182400Y165170D02*
Y165130D01*
X182480D01*
Y165170D01*
X182520D01*
Y165250D01*
X182480D01*
Y165290D01*
X182400D01*
Y165250D01*
X182360D01*
Y165170D01*
X182400D01*
X177450Y170590D02*
Y170550D01*
X177530D01*
Y170590D01*
X177570D01*
Y170670D01*
X177530D01*
Y170710D01*
X177450D01*
Y170670D01*
X177410D01*
Y170590D01*
X177450D01*
X178430Y170180D02*
Y170140D01*
X178510D01*
Y170180D01*
X178550D01*
Y170260D01*
X178510D01*
Y170300D01*
X178430D01*
Y170260D01*
X178390D01*
Y170180D01*
X178430D01*
X138130Y168453D02*
Y168413D01*
X138210D01*
Y168453D01*
X138250D01*
Y168533D01*
X138210D01*
Y168573D01*
X138130D01*
Y168533D01*
X138090D01*
Y168453D01*
X138130D01*
X142750Y164453D02*
Y164413D01*
X142830D01*
Y164453D01*
X142870D01*
Y164533D01*
X142830D01*
Y164573D01*
X142750D01*
Y164533D01*
X142710D01*
Y164453D01*
X142750D01*
X139960Y167490D02*
Y167450D01*
X140040D01*
Y167490D01*
X140080D01*
Y167570D01*
X140040D01*
Y167610D01*
X139960D01*
Y167570D01*
X139920D01*
Y167490D01*
X139960D01*
X139820Y166480D02*
Y166440D01*
X139900D01*
Y166480D01*
X139940D01*
Y166560D01*
X139900D01*
Y166600D01*
X139820D01*
Y166560D01*
X139780D01*
Y166480D01*
X139820D01*
X142090Y165450D02*
Y165410D01*
X142170D01*
Y165450D01*
X142210D01*
Y165530D01*
X142170D01*
Y165570D01*
X142090D01*
Y165530D01*
X142050D01*
Y165450D01*
X142090D01*
X208110Y160700D02*
Y160660D01*
X208190D01*
Y160700D01*
X208230D01*
Y160780D01*
X208190D01*
Y160820D01*
X208110D01*
Y160780D01*
X208070D01*
Y160700D01*
X208110D01*
X208750Y161170D02*
Y161130D01*
X208830D01*
Y161170D01*
X208870D01*
Y161250D01*
X208830D01*
Y161290D01*
X208750D01*
Y161250D01*
X208710D01*
Y161170D01*
X208750D01*
X171702Y171070D02*
Y171030D01*
X171782D01*
Y171070D01*
X171822D01*
Y171150D01*
X171782D01*
Y171190D01*
X171702D01*
Y171150D01*
X171662D01*
Y171070D01*
X171702D01*
X163310Y150580D02*
Y150540D01*
X163390D01*
Y150580D01*
X163430D01*
Y150660D01*
X163390D01*
Y150700D01*
X163310D01*
Y150660D01*
X163270D01*
Y150580D01*
X163310D01*
X228937Y158430D02*
Y158390D01*
X229017D01*
Y158430D01*
X229057D01*
Y158510D01*
X229017D01*
Y158550D01*
X228937D01*
Y158510D01*
X228897D01*
Y158430D01*
X228937D01*
X195220Y165390D02*
Y165350D01*
X195300D01*
Y165390D01*
X195340D01*
Y165470D01*
X195300D01*
Y165510D01*
X195220D01*
Y165470D01*
X195180D01*
Y165390D01*
X195220D01*
X196910Y163590D02*
Y163550D01*
X196990D01*
Y163590D01*
X197030D01*
Y163670D01*
X196990D01*
Y163710D01*
X196910D01*
Y163670D01*
X196870D01*
Y163590D01*
X196910D01*
X219420Y156170D02*
Y156130D01*
X219500D01*
Y156170D01*
X219540D01*
Y156250D01*
X219500D01*
Y156290D01*
X219420D01*
Y156250D01*
X219380D01*
Y156170D01*
X219420D01*
X208749Y149289D02*
Y149249D01*
X208829D01*
Y149289D01*
X208869D01*
Y149369D01*
X208829D01*
Y149409D01*
X208749D01*
Y149369D01*
X208709D01*
Y149289D01*
X208749D01*
X205771Y134290D02*
Y134250D01*
X205851D01*
Y134290D01*
X205891D01*
Y134370D01*
X205851D01*
Y134410D01*
X205771D01*
Y134370D01*
X205731D01*
Y134290D01*
X205771D01*
X123180Y150230D02*
Y150190D01*
X123260D01*
Y150230D01*
X123300D01*
Y150310D01*
X123260D01*
Y150350D01*
X123180D01*
Y150310D01*
X123140D01*
Y150230D01*
X123180D01*
X220070Y150580D02*
Y150540D01*
X220150D01*
Y150580D01*
X220190D01*
Y150660D01*
X220150D01*
Y150700D01*
X220070D01*
Y150660D01*
X220030D01*
Y150580D01*
X220070D01*
X236440Y158950D02*
Y158910D01*
X236520D01*
Y158950D01*
X236560D01*
Y159030D01*
X236520D01*
Y159070D01*
X236440D01*
Y159030D01*
X236400D01*
Y158950D01*
X236440D01*
X221440Y157900D02*
Y157860D01*
X221520D01*
Y157900D01*
X221560D01*
Y157980D01*
X221520D01*
Y158020D01*
X221440D01*
Y157980D01*
X221400D01*
Y157900D01*
X221440D01*
X218577Y157330D02*
Y157290D01*
X218657D01*
Y157330D01*
X218697D01*
Y157410D01*
X218657D01*
Y157450D01*
X218577D01*
Y157410D01*
X218537D01*
Y157330D01*
X218577D01*
X205445Y156810D02*
Y156770D01*
X205525D01*
Y156810D01*
X205565D01*
Y156890D01*
X205525D01*
Y156930D01*
X205445D01*
Y156890D01*
X205405D01*
Y156810D01*
X205445D01*
X206130Y163620D02*
Y163580D01*
X206210D01*
Y163620D01*
X206250D01*
Y163700D01*
X206210D01*
Y163740D01*
X206130D01*
Y163700D01*
X206090D01*
Y163620D01*
X206130D01*
X186210Y165610D02*
Y165570D01*
X186290D01*
Y165610D01*
X186330D01*
Y165690D01*
X186290D01*
Y165730D01*
X186210D01*
Y165690D01*
X186170D01*
Y165610D01*
X186210D01*
X185305Y164735D02*
Y164695D01*
X185385D01*
Y164735D01*
X185425D01*
Y164815D01*
X185385D01*
Y164855D01*
X185305D01*
Y164815D01*
X185265D01*
Y164735D01*
X185305D01*
X220070Y167310D02*
Y167270D01*
X220150D01*
Y167310D01*
X220190D01*
Y167390D01*
X220150D01*
Y167430D01*
X220070D01*
Y167390D01*
X220030D01*
Y167310D01*
X220070D01*
X220668Y163712D02*
Y163672D01*
X220748D01*
Y163712D01*
X220788D01*
Y163792D01*
X220748D01*
Y163832D01*
X220668D01*
Y163792D01*
X220628D01*
Y163712D01*
X220668D01*
X220680Y168170D02*
Y168130D01*
X220760D01*
Y168170D01*
X220800D01*
Y168250D01*
X220760D01*
Y168290D01*
X220680D01*
Y168250D01*
X220640D01*
Y168170D01*
X220680D01*
X219420Y166650D02*
Y166610D01*
X219500D01*
Y166650D01*
X219540D01*
Y166730D01*
X219500D01*
Y166770D01*
X219420D01*
Y166730D01*
X219380D01*
Y166650D01*
X219420D01*
X206800Y141790D02*
Y141750D01*
X206880D01*
Y141790D01*
X206920D01*
Y141870D01*
X206880D01*
Y141910D01*
X206800D01*
Y141870D01*
X206760D01*
Y141790D01*
X206800D01*
X209370Y161580D02*
Y161540D01*
X209450D01*
Y161580D01*
X209490D01*
Y161660D01*
X209450D01*
Y161700D01*
X209370D01*
Y161660D01*
X209330D01*
Y161580D01*
X209370D01*
X200414Y163620D02*
Y163580D01*
X200494D01*
Y163620D01*
X200534D01*
Y163700D01*
X200494D01*
Y163740D01*
X200414D01*
Y163700D01*
X200374D01*
Y163620D01*
X200414D01*
X210358D02*
Y163580D01*
X210438D01*
Y163620D01*
X210478D01*
Y163700D01*
X210438D01*
Y163740D01*
X210358D01*
Y163700D01*
X210318D01*
Y163620D01*
X210358D01*
X192264Y162967D02*
Y162927D01*
X192344D01*
Y162967D01*
X192384D01*
Y163047D01*
X192344D01*
Y163087D01*
X192264D01*
Y163047D01*
X192224D01*
Y162967D01*
X192264D01*
X188050Y163760D02*
Y163720D01*
X188130D01*
Y163760D01*
X188170D01*
Y163840D01*
X188130D01*
Y163880D01*
X188050D01*
Y163840D01*
X188010D01*
Y163760D01*
X188050D01*
X180320Y163900D02*
Y163860D01*
X180400D01*
Y163900D01*
X180440D01*
Y163980D01*
X180400D01*
Y164020D01*
X180320D01*
Y163980D01*
X180280D01*
Y163900D01*
X180320D01*
X183820Y163880D02*
Y163840D01*
X183900D01*
Y163880D01*
X183940D01*
Y163960D01*
X183900D01*
Y164000D01*
X183820D01*
Y163960D01*
X183780D01*
Y163880D01*
X183820D01*
X134530Y157180D02*
Y157140D01*
X134610D01*
Y157180D01*
X134650D01*
Y157260D01*
X134610D01*
Y157300D01*
X134530D01*
Y157260D01*
X134490D01*
Y157180D01*
X134530D01*
X131400Y149650D02*
Y149610D01*
X131480D01*
Y149650D01*
X131520D01*
Y149730D01*
X131480D01*
Y149770D01*
X131400D01*
Y149730D01*
X131360D01*
Y149650D01*
X131400D01*
X111573Y157917D02*
Y157877D01*
X111653D01*
Y157917D01*
X111693D01*
Y157997D01*
X111653D01*
Y158037D01*
X111573D01*
Y157997D01*
X111533D01*
Y157917D01*
X111573D01*
X104073Y164143D02*
Y164103D01*
X104153D01*
Y164143D01*
X104193D01*
Y164223D01*
X104153D01*
Y164263D01*
X104073D01*
Y164223D01*
X104033D01*
Y164143D01*
X104073D01*
X185290Y170770D02*
Y170730D01*
X185370D01*
Y170770D01*
X185410D01*
Y170850D01*
X185370D01*
Y170890D01*
X185290D01*
Y170850D01*
X185250D01*
Y170770D01*
X185290D01*
D36*
X193880Y160804D02*
G03*
X193880Y160804I-80J0D01*
G01*
X175127Y153303D02*
G03*
X175127Y153303I-80J0D01*
G01*
X92494Y168303D02*
G03*
X92494Y168303I-80J0D01*
G01*
X94373Y153303D02*
G03*
X94373Y153303I-80J0D01*
G01*
X95310Y145804D02*
G03*
X95310Y145804I-80J0D01*
G01*
X97185Y138303D02*
G03*
X97185Y138303I-80J0D01*
G01*
X107494Y168303D02*
G03*
X107494Y168303I-80J0D01*
G01*
X99998Y160803D02*
G03*
X99998Y160803I-80J0D01*
G01*
X103750Y153304D02*
G03*
X103750Y153304I-80J0D01*
G01*
X105622Y145804D02*
G03*
X105622Y145804I-80J0D01*
G01*
X109372Y138304D02*
G03*
X109372Y138304I-80J0D01*
G01*
X102810Y130804D02*
G03*
X102810Y130804I-80J0D01*
G01*
X114994Y168303D02*
G03*
X114994Y168303I-80J0D01*
G01*
X107498Y160803D02*
G03*
X107498Y160803I-80J0D01*
G01*
X111248Y153304D02*
G03*
X111248Y153304I-80J0D01*
G01*
X113123Y145804D02*
G03*
X113123Y145804I-80J0D01*
G01*
X116872Y138304D02*
G03*
X116872Y138304I-80J0D01*
G01*
X112185Y130804D02*
G03*
X112185Y130804I-80J0D01*
G01*
X122494Y168304D02*
G03*
X122494Y168304I-80J0D01*
G01*
X114998Y160803D02*
G03*
X114998Y160803I-80J0D01*
G01*
X118748Y153303D02*
G03*
X118748Y153303I-80J0D01*
G01*
X120622Y145803D02*
G03*
X120622Y145803I-80J0D01*
G01*
X124372Y138304D02*
G03*
X124372Y138304I-80J0D01*
G01*
X122498Y160803D02*
G03*
X122498Y160803I-80J0D01*
G01*
X126248Y153303D02*
G03*
X126248Y153303I-80J0D01*
G01*
X128122Y145803D02*
G03*
X128122Y145803I-80J0D01*
G01*
X131873Y138304D02*
G03*
X131873Y138304I-80J0D01*
G01*
X129660Y130804D02*
G03*
X129660Y130804I-80J0D01*
G01*
X129998Y160804D02*
G03*
X129998Y160804I-80J0D01*
G01*
X133748Y153304D02*
G03*
X133748Y153304I-80J0D01*
G01*
X135623Y145803D02*
G03*
X135623Y145803I-80J0D01*
G01*
X139373Y138304D02*
G03*
X139373Y138304I-80J0D01*
G01*
X137498Y160804D02*
G03*
X137498Y160804I-80J0D01*
G01*
X160124Y168304D02*
G03*
X160124Y168304I-80J0D01*
G01*
X160127Y153304D02*
G03*
X160127Y153304I-80J0D01*
G01*
X162002Y145803D02*
G03*
X162002Y145803I-80J0D01*
G01*
X165752Y138303D02*
G03*
X165752Y138303I-80J0D01*
G01*
X169841Y130804D02*
G03*
X169841Y130804I-80J0D01*
G01*
X167624Y168303D02*
G03*
X167624Y168303I-80J0D01*
G01*
X163875Y160803D02*
G03*
X163875Y160803I-80J0D01*
G01*
X167627Y153303D02*
G03*
X167627Y153303I-80J0D01*
G01*
X169502Y145803D02*
G03*
X169502Y145803I-80J0D01*
G01*
X173252Y138303D02*
G03*
X173252Y138303I-80J0D01*
G01*
X175124Y168303D02*
G03*
X175124Y168303I-80J0D01*
G01*
X171377Y160803D02*
G03*
X171377Y160803I-80J0D01*
G01*
X177002Y145803D02*
G03*
X177002Y145803I-80J0D01*
G01*
X180752Y138303D02*
G03*
X180752Y138303I-80J0D01*
G01*
X182630Y168300D02*
G03*
X182630Y168300I-80J0D01*
G01*
X178877Y160803D02*
G03*
X178877Y160803I-80J0D01*
G01*
X182627Y153303D02*
G03*
X182627Y153303I-80J0D01*
G01*
X184502Y145803D02*
G03*
X184502Y145803I-80J0D01*
G01*
X188252Y138303D02*
G03*
X188252Y138303I-80J0D01*
G01*
X187314Y130804D02*
G03*
X187314Y130804I-80J0D01*
G01*
X193877Y168303D02*
G03*
X193877Y168303I-80J0D01*
G01*
X186377Y160803D02*
G03*
X186377Y160803I-80J0D01*
G01*
X190127Y153303D02*
G03*
X190127Y153303I-80J0D01*
G01*
X192002Y145803D02*
G03*
X192002Y145803I-80J0D01*
G01*
X195752Y138304D02*
G03*
X195752Y138304I-80J0D01*
G01*
X196689Y130804D02*
G03*
X196689Y130804I-80J0D01*
G01*
X201377Y168304D02*
G03*
X201377Y168304I-80J0D01*
G01*
X197630Y153304D02*
G03*
X197630Y153304I-80J0D01*
G01*
X199502Y145803D02*
G03*
X199502Y145803I-80J0D01*
G01*
X209814Y138303D02*
G03*
X209814Y138303I-80J0D01*
G01*
X206064Y130804D02*
G03*
X206064Y130804I-80J0D01*
G01*
X208877Y168303D02*
G03*
X208877Y168303I-80J0D01*
G01*
X201377Y160803D02*
G03*
X201377Y160803I-80J0D01*
G01*
X205127Y153304D02*
G03*
X205127Y153304I-80J0D01*
G01*
X211689Y145803D02*
G03*
X211689Y145803I-80J0D01*
G01*
X215439Y130804D02*
G03*
X215439Y130804I-80J0D01*
G01*
X216377Y168304D02*
G03*
X216377Y168304I-80J0D01*
G01*
X212627Y160803D02*
G03*
X212627Y160803I-80J0D01*
G01*
X214502Y153303D02*
G03*
X214502Y153303I-80J0D01*
G01*
X225752Y168304D02*
G03*
X225752Y168304I-80J0D01*
G01*
X225756Y160803D02*
G03*
X225756Y160803I-80J0D01*
G01*
X225756Y153303D02*
G03*
X225756Y153303I-80J0D01*
G01*
Y130804D02*
G03*
X225756Y130804I-80J0D01*
G01*
X233252Y168303D02*
G03*
X233252Y168303I-80J0D01*
G01*
X233256Y160803D02*
G03*
X233256Y160803I-80J0D01*
G01*
X233249Y153304D02*
G03*
X233249Y153304I-80J0D01*
G01*
X233256Y138304D02*
G03*
X233256Y138304I-80J0D01*
G01*
Y130804D02*
G03*
X233256Y130804I-80J0D01*
G01*
X240752Y168304D02*
G03*
X240752Y168304I-80J0D01*
G01*
X240756Y160803D02*
G03*
X240756Y160803I-80J0D01*
G01*
Y153303D02*
G03*
X240756Y153303I-80J0D01*
G01*
X240750Y130804D02*
G03*
X240750Y130804I-80J0D01*
G01*
X93435Y130804D02*
G03*
X93435Y130804I-80J0D01*
G01*
X92498Y160803D02*
G03*
X92498Y160803I-80J0D01*
G01*
X129994Y168304D02*
G03*
X129994Y168304I-80J0D01*
G01*
M02*
