G04 Layer_Physical_Order=1*
G04 Layer_Color=255*
%FSLAX24Y24*%
%MOIN*%
G70*
G01*
G75*
%ADD10R,0.1181X0.1260*%
%ADD11R,0.0197X0.0984*%
%ADD12C,0.0100*%
%ADD13C,0.0600*%
%ADD14C,0.0984*%
%ADD15R,0.0669X0.0669*%
%ADD16C,0.0669*%
%ADD17R,0.0600X0.0600*%
%ADD18C,0.0220*%
D10*
X152568Y172950D02*
D03*
X143671D02*
D03*
X191547D02*
D03*
X182649D02*
D03*
D11*
X150678Y172163D02*
D03*
X150285D02*
D03*
X147923D02*
D03*
X147529D02*
D03*
X148316D02*
D03*
X146741D02*
D03*
X147135D02*
D03*
X145560D02*
D03*
X146348D02*
D03*
X145954D02*
D03*
X149104D02*
D03*
X149497D02*
D03*
X145167D02*
D03*
X148710D02*
D03*
X151072D02*
D03*
X149891D02*
D03*
X144773D02*
D03*
X151466D02*
D03*
X189657D02*
D03*
X189263D02*
D03*
X186901D02*
D03*
X186507D02*
D03*
X187295D02*
D03*
X185720D02*
D03*
X186114D02*
D03*
X184539D02*
D03*
X185326D02*
D03*
X184933D02*
D03*
X188082D02*
D03*
X188476D02*
D03*
X184145D02*
D03*
X187689D02*
D03*
X190051D02*
D03*
X188870D02*
D03*
X183752D02*
D03*
X190444D02*
D03*
D12*
X184930Y170080D02*
Y172160D01*
X184933Y172163D01*
X186901Y166469D02*
Y172163D01*
Y166469D02*
X190070Y163300D01*
X239190Y131804D02*
Y132840D01*
X135130Y165460D02*
X138170Y168500D01*
X184030Y166800D02*
Y167370D01*
X208790Y149330D02*
X210113Y148007D01*
X137796Y139304D02*
Y140507D01*
X130296Y139304D02*
Y140507D01*
X111546Y146804D02*
Y148007D01*
X195498Y141829D02*
X206915D01*
X141000Y159480D02*
X145550D01*
X132174Y154304D02*
Y155507D01*
X117174Y154303D02*
Y155507D01*
X109674Y154304D02*
Y155507D01*
X94550Y165460D02*
X108230D01*
X93910Y166100D02*
X94550Y165460D01*
X93910Y166100D02*
Y167303D01*
X130790Y165460D02*
X131410Y166080D01*
Y167304D01*
Y166080D02*
X132030Y165460D01*
X123410D02*
X123910Y165960D01*
Y167304D01*
Y165960D02*
X124410Y165460D01*
X115620D02*
X116410Y166250D01*
X109590Y165460D02*
X115620D01*
X116410Y166250D02*
Y167303D01*
Y166250D02*
X117200Y165460D01*
X108230D02*
X108910Y166140D01*
Y167303D01*
Y166140D02*
X109590Y165460D01*
X182440Y165210D02*
X184030Y166800D01*
X177000Y165210D02*
X182440D01*
X176540Y165670D02*
X177000Y165210D01*
X168550Y165290D02*
X169040Y165780D01*
X162130Y165290D02*
X168550D01*
X161540Y165880D02*
X162130Y165290D01*
X176110Y165240D02*
X176540Y165670D01*
X169580Y165240D02*
X176110D01*
X169040Y165780D02*
X169580Y165240D01*
X183420Y170630D02*
X184145Y171355D01*
X177490Y170630D02*
X183420D01*
X184539Y171249D02*
Y172163D01*
X183510Y170220D02*
X184539Y171249D01*
X178470Y170220D02*
X183510D01*
X176540Y165670D02*
Y167303D01*
X176530Y165680D02*
X176540Y165670D01*
X161540Y165880D02*
Y167304D01*
X169040Y165780D02*
Y167303D01*
X239180Y161803D02*
Y162860D01*
X238340Y163700D02*
X239180Y162860D01*
X231680Y162800D02*
Y162860D01*
Y161803D02*
Y162800D01*
X232580Y163700D01*
X230840D02*
X231680Y162860D01*
X224180Y162960D02*
X224919Y163700D01*
X224180Y161803D02*
Y162960D01*
X223388Y163752D02*
X224180Y162960D01*
X239180Y154303D02*
Y155210D01*
X238220Y156170D02*
X239180Y155210D01*
X232587Y156170D02*
X238220D01*
X231673Y155257D02*
X232587Y156170D01*
X231673Y154304D02*
Y155257D01*
X230740Y156190D02*
X231673Y155257D01*
X224180Y155400D02*
X224969Y156190D01*
X224180Y154303D02*
Y155400D01*
X223370Y156210D02*
X224180Y155400D01*
X230629Y134070D02*
X231680Y133020D01*
Y131804D02*
Y133020D01*
X232730Y134070D01*
X231636Y131804D02*
X231680D01*
X237960Y134070D02*
X239190Y132840D01*
X232730Y134070D02*
X237960D01*
X225470D02*
X230629D01*
X224180Y132780D02*
X225470Y134070D01*
X222839Y134120D02*
X224180Y132780D01*
X214976Y134120D02*
X222839D01*
X213863Y133007D02*
X214976Y134120D01*
X231680Y139304D02*
Y140950D01*
X230910Y141720D02*
X231680Y140950D01*
X209452Y141720D02*
X230910D01*
X208238Y140507D02*
X209452Y141720D01*
X224180Y131804D02*
Y132780D01*
X138170Y168500D02*
Y169610D01*
X142790Y169310D02*
X143870Y170390D01*
X142790Y164493D02*
Y169310D01*
X185710Y172073D02*
X185760Y172123D01*
X185326Y170810D02*
Y172163D01*
X148330Y137228D02*
Y143170D01*
X141990Y170140D02*
X143028Y171178D01*
X138700Y170140D02*
X141990D01*
X138170Y169610D02*
X138700Y170140D01*
X143028Y171178D02*
X144518D01*
X143420Y170790D02*
X144800D01*
X142130Y169500D02*
X143420Y170790D01*
X142130Y165490D02*
Y169500D01*
X143870Y170390D02*
X144950D01*
X144518Y171178D02*
X144773Y171433D01*
X144800Y170790D02*
X145167Y171157D01*
X144950Y170390D02*
X145560Y171000D01*
X138410Y165490D02*
X142130D01*
X135922Y163002D02*
X138410Y165490D01*
X138620Y167530D02*
X140000D01*
X138510Y166520D02*
X139860D01*
X135922Y161804D02*
Y163002D01*
X150157Y162493D02*
X150910D01*
X147923Y164727D02*
X150157Y162493D01*
X147923Y164727D02*
Y172163D01*
X150157Y163493D02*
X150910D01*
X148316Y165334D02*
X150157Y163493D01*
X148316Y165334D02*
Y172163D01*
X150147Y164493D02*
X150910D01*
X148710Y165930D02*
X150147Y164493D01*
X148710Y165930D02*
Y172163D01*
X150177Y166493D02*
X150910D01*
X149497Y167173D02*
X150177Y166493D01*
X149497Y167173D02*
Y172163D01*
X150117Y165493D02*
X150910D01*
X149104Y166506D02*
X150117Y165493D01*
X149104Y166506D02*
Y172163D01*
X144773Y171433D02*
Y172163D01*
X145954Y159884D02*
Y172163D01*
X145550Y159480D02*
X145954Y159884D01*
X150910Y157493D02*
X151483D01*
X150910Y158493D02*
X151483D01*
X144920Y154493D02*
X145633D01*
X150910Y159493D02*
X151473D01*
X144920Y150493D02*
X145597D01*
X144920Y155493D02*
X145573D01*
X140953D02*
X144920D01*
X150910Y160493D02*
X151473D01*
X144920Y156493D02*
X145593D01*
X140783D02*
X144920D01*
X150910Y161493D02*
X151473D01*
X141343Y160493D02*
X144920D01*
Y153493D02*
X145587D01*
X146348Y157248D02*
Y172163D01*
X145593Y156493D02*
X146348Y157248D01*
X146741Y156661D02*
Y172163D01*
X145573Y155493D02*
X146741Y156661D01*
X147135Y155995D02*
X147135Y170025D01*
X145633Y154493D02*
X147135Y155995D01*
X149993Y156493D02*
X150910D01*
X148880Y155380D02*
X149993Y156493D01*
X148880Y147180D02*
Y155380D01*
Y147180D02*
X150340Y145720D01*
X152270Y161290D02*
Y170230D01*
X151473Y160493D02*
X152270Y161290D01*
X152820Y159830D02*
Y170590D01*
X151483Y158493D02*
X152820Y159830D01*
X153130Y159140D02*
Y170790D01*
X151483Y157493D02*
X153130Y159140D01*
X152540Y160560D02*
Y170430D01*
X151473Y159493D02*
X152540Y160560D01*
X151920Y161940D02*
Y170000D01*
X151473Y161493D02*
X151920Y161940D01*
X152500Y171420D02*
X153130Y170790D01*
X152260Y171150D02*
X152820Y170590D01*
X152100Y170870D02*
X152540Y170430D01*
X151910Y170590D02*
X152270Y170230D01*
X151620Y170300D02*
X151920Y170000D01*
X150290Y170300D02*
X151620D01*
X151220Y171150D02*
X152260D01*
X151072Y171298D02*
X151220Y171150D01*
X151570Y171420D02*
X152500D01*
X151466Y171524D02*
X151570Y171420D01*
X150930Y170870D02*
X152100D01*
X150678Y171122D02*
X150930Y170870D01*
X150620Y170590D02*
X151910D01*
X150285Y170925D02*
X150620Y170590D01*
X149891Y170699D02*
X150290Y170300D01*
X150678Y171122D02*
Y172163D01*
X150285Y170925D02*
Y172163D01*
X149891Y170699D02*
Y172163D01*
X151466Y171524D02*
Y172163D01*
X151072Y171298D02*
Y172163D01*
X138070Y157220D02*
X141343Y160493D01*
X144920D02*
X144940D01*
X141093Y154493D02*
X144920D01*
X145750Y145750D02*
Y150340D01*
X145597Y150493D02*
X145750Y150340D01*
X146530Y146890D02*
Y152550D01*
X145587Y153493D02*
X146530Y152550D01*
X208150Y160740D02*
Y162570D01*
X208160Y162580D01*
X208790Y161210D02*
X208800Y161220D01*
Y162710D01*
X207090Y164420D02*
X208800Y162710D01*
X206620Y164120D02*
X208160Y162580D01*
X183260Y171110D02*
X183752Y171602D01*
X171742Y171110D02*
X183260D01*
X163350Y150620D02*
X220110D01*
X190830Y158470D02*
X228977D01*
X195270Y165440D02*
X201911D01*
X195260Y165430D02*
X195270Y165440D01*
X201911D02*
X202793Y166322D01*
X195260Y165430D02*
Y167270D01*
X195293Y167303D01*
X196950Y163630D02*
X199178D01*
X199801Y163007D01*
X219460Y156210D02*
X223370D01*
X213629D02*
X219460D01*
X123220Y150270D02*
X135640D01*
X191290Y158990D02*
X236480D01*
X190630Y159650D02*
X191290Y158990D01*
X190630Y159650D02*
Y163570D01*
X204488Y133007D02*
X205811Y134330D01*
X190420Y157970D02*
X221450D01*
X221480Y157940D01*
X184160Y157400D02*
X218587D01*
X218617Y157370D01*
X183450Y156850D02*
X205485D01*
X182550Y159010D02*
X184160Y157400D01*
X182550Y159010D02*
Y163580D01*
X181990Y158310D02*
X183450Y156850D01*
X181990Y158310D02*
Y163920D01*
X189470Y158920D02*
X190420Y157970D01*
X190070Y159230D02*
X190830Y158470D01*
X190070Y159230D02*
Y163300D01*
X189470Y158920D02*
Y163197D01*
X188082Y166918D02*
X190880Y164120D01*
X188476Y167334D02*
X191390Y164420D01*
X190880Y164120D02*
X206620D01*
X191390Y164420D02*
X207090D01*
X200454Y163660D02*
X206170D01*
X186220Y165650D02*
X186250D01*
X185345Y164775D02*
X186220Y165650D01*
X219460Y166690D02*
Y169230D01*
X218980Y169710D02*
X219460Y169230D01*
X190310Y169710D02*
X218980D01*
X220720Y168210D02*
Y169660D01*
X219617Y170763D02*
X220720Y169660D01*
X190507Y170763D02*
X219617D01*
X220110Y167350D02*
Y169340D01*
X219213Y170237D02*
X220110Y169340D01*
X190383Y170237D02*
X219213D01*
X190444Y171456D02*
X190610Y171290D01*
X190444Y171456D02*
Y172163D01*
X190610Y171290D02*
X227570D01*
X190051Y171219D02*
X190507Y170763D01*
X190051Y171219D02*
Y172163D01*
X189657Y170963D02*
X190383Y170237D01*
X189657Y170963D02*
Y172163D01*
X227570Y171290D02*
X229440Y169420D01*
X220708Y163752D02*
X223388D01*
X211752D02*
X220708D01*
X211051Y163007D02*
Y163051D01*
Y161803D02*
Y163007D01*
Y163051D02*
X211752Y163752D01*
X205811Y134330D02*
X212540D01*
X196436D02*
X203165D01*
X191748Y149329D02*
X196602D01*
X228040Y165450D02*
X229440D01*
X227168Y166322D02*
X228040Y165450D01*
X233796D02*
X234668Y166322D01*
X229440Y165450D02*
X233796D01*
X229440D02*
Y169420D01*
X226196Y165350D02*
X227168Y166322D01*
X218765Y165350D02*
X226196D01*
X217793Y166322D02*
X218765Y165350D01*
X209431Y165460D02*
X210293Y166322D01*
X203655Y165460D02*
X209431D01*
X202793Y166322D02*
X203655Y165460D01*
X216881Y165410D02*
X217793Y166322D01*
X211205Y165410D02*
X216881D01*
X210293Y166322D02*
X211205Y165410D01*
X207500Y164780D02*
X209410Y162870D01*
Y161620D02*
Y162870D01*
X191750Y164780D02*
X207500D01*
X188870Y167660D02*
X191750Y164780D01*
X189263Y170757D02*
X190310Y169710D01*
X192304Y161804D02*
Y163007D01*
X183080Y165010D02*
X184210D01*
X181990Y163920D02*
X183080Y165010D01*
X183590Y164620D02*
X184470D01*
X182550Y163580D02*
X183590Y164620D01*
X184470D02*
X186090Y166240D01*
Y172139D01*
X185710Y166510D02*
Y172073D01*
X184210Y165010D02*
X185710Y166510D01*
X188870Y167660D02*
Y172163D01*
X188476Y167334D02*
Y172163D01*
X188082Y166918D02*
Y172163D01*
X232580Y163700D02*
X238340D01*
X224919D02*
X230840D01*
X210398Y163660D02*
X211051Y163007D01*
X199801D02*
X200454Y163660D01*
X185634Y163800D02*
X188090D01*
X185614Y163820D02*
X185634Y163800D01*
X184801Y163007D02*
X185614Y163820D01*
X178234Y163940D02*
X180360D01*
X177301Y163007D02*
X178234Y163940D01*
X183860Y163920D02*
X183888D01*
X184801Y163007D01*
X189263Y170757D02*
Y172163D01*
X186507Y166160D02*
Y172163D01*
X145560Y171000D02*
Y172163D01*
X145167Y171157D02*
Y172163D01*
X147135Y170025D02*
Y172163D01*
X141173Y163493D02*
X144920D01*
X140933Y157493D02*
X144920D01*
X141123Y158493D02*
X144920D01*
X140890Y154290D02*
X141093Y154493D01*
X140890Y149420D02*
Y154290D01*
Y149420D02*
X142630Y147680D01*
X140280Y154820D02*
X140953Y155493D01*
X140280Y150960D02*
Y154820D01*
X139120Y149800D02*
X140280Y150960D01*
X139120Y141831D02*
Y149800D01*
X139640Y155350D02*
X140783Y156493D01*
X140690Y163010D02*
X141173Y163493D01*
X138270Y156750D02*
X141000Y159480D01*
X133417Y156750D02*
X138270D01*
X138480Y155850D02*
X141123Y158493D01*
X138480Y153110D02*
Y155850D01*
X138980Y155540D02*
X140933Y157493D01*
X138980Y153010D02*
Y155540D01*
X134570Y157220D02*
X138070D01*
X139640Y152710D02*
Y155350D01*
X134937Y148007D02*
X139640Y152710D01*
X134046Y148007D02*
X134937D01*
X140690Y160520D02*
Y163010D01*
X138127Y157957D02*
X140690Y160520D01*
X135660Y149690D02*
X138980Y153010D01*
X131440Y149690D02*
X135660D01*
X127439Y148900D02*
X133152D01*
X134046Y148007D01*
X126546D02*
X127439Y148900D01*
X111613Y157957D02*
X138127D01*
X135640Y150270D02*
X138480Y153110D01*
X132174Y155507D02*
X133417Y156750D01*
X136173Y164183D02*
X138510Y166520D01*
X105208Y163720D02*
X105922Y163007D01*
X99135Y163720D02*
X105208D01*
X98422Y163007D02*
X99135Y163720D01*
X135239Y163690D02*
X135922Y163007D01*
X129105Y163690D02*
X135239D01*
X128422Y163007D02*
X129105Y163690D01*
X127759Y163670D02*
X128422Y163007D01*
X121585Y163670D02*
X127759D01*
X120922Y163007D02*
X121585Y163670D01*
X120259D02*
X120922Y163007D01*
X114085Y163670D02*
X120259D01*
X113422Y163007D02*
X114085Y163670D01*
X112739Y163690D02*
X113422Y163007D01*
X106605Y163690D02*
X112739D01*
X105922Y163007D02*
X106605Y163690D01*
X104113Y164183D02*
X136173D01*
X135980Y164890D02*
X138620Y167530D01*
X96613Y164890D02*
X135980D01*
X132030Y165460D02*
X135130D01*
X124410D02*
X130790D01*
X117200D02*
X123410D01*
X97699Y163730D02*
X98422Y163007D01*
X91645Y163730D02*
X97699D01*
X90922Y163007D02*
X91645Y163730D01*
X146530Y146890D02*
X149238Y144182D01*
X145750Y145750D02*
X148330Y143170D01*
X142630Y136200D02*
Y147680D01*
X137796Y140507D02*
X139120Y141831D01*
X148254Y137152D02*
X148330Y137228D01*
X150340Y138254D02*
Y145720D01*
X149238Y137152D02*
X150340Y138254D01*
X149238Y142752D02*
Y144182D01*
X129358Y134281D02*
X140711D01*
X142630Y136200D01*
X136472Y141830D02*
X137796Y140507D01*
X128084Y133007D02*
X129358Y134281D01*
X128422Y161804D02*
Y163007D01*
X100850Y156829D02*
X100851Y156830D01*
X94119Y156829D02*
X100850D01*
X93734Y148007D02*
X95057Y149330D01*
X102722D01*
X106471Y141829D02*
X106472Y141830D01*
X96932Y141829D02*
X106471D01*
X91859Y133007D02*
X93182Y134330D01*
X99911D01*
X101234Y133007D02*
X102557Y134330D01*
X109286D01*
X110609Y133007D02*
X111933Y134330D01*
X126761D01*
X92797Y154303D02*
Y155507D01*
X94119Y156829D01*
X93734Y146804D02*
Y148007D01*
X95609Y139303D02*
Y140507D01*
X96932Y141829D01*
X91859Y131804D02*
Y133007D01*
X99911Y134330D02*
X101234Y133007D01*
Y131804D02*
Y133007D01*
X109286Y134330D02*
X110609Y133007D01*
Y131804D02*
Y133007D01*
X126761Y134330D02*
X128084Y133007D01*
Y131804D02*
Y133007D01*
X90922Y161803D02*
Y163007D01*
X98422Y161803D02*
Y163007D01*
X105922Y161803D02*
Y163007D01*
X113422Y161803D02*
Y163007D01*
X120922Y161803D02*
Y163007D01*
X102174Y155507D02*
X103496Y156829D01*
X102174Y154304D02*
Y155507D01*
X100851Y156830D02*
X102174Y155507D01*
X109674D02*
X110996Y156829D01*
X108351Y156830D02*
X109674Y155507D01*
X117174Y155507D02*
X118496Y156829D01*
X115851Y156830D02*
X117174Y155507D01*
X124674Y155507D02*
X125996Y156829D01*
X124674Y154304D02*
Y155507D01*
X123351Y156830D02*
X124674Y155507D01*
X130851Y156830D02*
X132174Y155507D01*
X103496Y156829D02*
X108350D01*
X108351Y156830D01*
X110996Y156829D02*
X115850D01*
X115851Y156830D01*
X118496Y156829D02*
X123350D01*
X123351Y156830D01*
X125996Y156829D02*
X130850D01*
X130851Y156830D01*
X104046Y148007D02*
X105368Y149329D01*
X104046Y146804D02*
Y148007D01*
X102722Y149330D02*
X104046Y148007D01*
X111546D02*
X112868Y149329D01*
X110222Y149330D02*
X111546Y148007D01*
X119046Y148007D02*
X120368Y149329D01*
X119046Y146803D02*
Y148007D01*
X117722Y149330D02*
X119046Y148007D01*
X126546Y146804D02*
Y148007D01*
X125222Y149330D02*
X126546Y148007D01*
X134046Y146804D02*
Y148007D01*
X105368Y149329D02*
X110222D01*
X110222Y149330D01*
X112868Y149329D02*
X117722D01*
X117722Y149330D01*
X120368Y149329D02*
X125221D01*
X125222Y149330D01*
X122796Y139304D02*
Y140507D01*
Y139303D02*
Y139304D01*
X107796Y140507D02*
X109118Y141829D01*
X107796Y139304D02*
Y140507D01*
X106472Y141830D02*
X107796Y140507D01*
X115296D02*
X116618Y141829D01*
X115296Y139304D02*
Y140507D01*
X113972Y141830D02*
X115296Y140507D01*
X122796Y140507D02*
X124118Y141829D01*
X121472Y141830D02*
X122796Y140507D01*
X130296Y140507D02*
X131618Y141829D01*
X128972Y141830D02*
X130296Y140507D01*
X109118Y141829D02*
X113972D01*
X113972Y141830D01*
X116618Y141829D02*
X121472D01*
X121472Y141830D01*
X124118Y141829D02*
X128971D01*
X128972Y141830D01*
X131618Y141829D02*
X136472D01*
X136472Y141830D01*
X202793Y166322D02*
Y167304D01*
X210293Y166322D02*
Y167303D01*
X217793Y166322D02*
Y167304D01*
X227168Y166322D02*
Y167304D01*
X242168Y166248D02*
Y167304D01*
X240930Y165010D02*
X242168Y166248D01*
X235980Y165010D02*
X240930D01*
X234668Y166322D02*
X235980Y165010D01*
X234668Y166322D02*
Y167303D01*
X175979Y164329D02*
X177301Y163007D01*
X171123Y164329D02*
X175979D01*
X168477D02*
X168478Y164330D01*
X163621Y164329D02*
X168477D01*
X158551Y155507D02*
X159874Y156830D01*
X164728D01*
X166051Y155507D02*
X167374Y156830D01*
X172228D01*
X173551Y155507D02*
X174874Y156830D01*
X179728D01*
X208789Y149329D02*
X208790Y149330D01*
X199248Y149329D02*
X208789D01*
X196602D02*
X196603Y149330D01*
X189102Y149329D02*
X189103Y149330D01*
X181602Y149329D02*
X181603Y149330D01*
X176748Y149329D02*
X181602D01*
X174102Y149329D02*
X174103Y149330D01*
X169248Y149329D02*
X174102D01*
X166602D02*
X166603Y149330D01*
X161748Y149329D02*
X166602D01*
X169588Y134329D02*
X184415D01*
X168265Y131804D02*
Y133007D01*
X169588Y134329D01*
X199801Y161803D02*
Y163007D01*
X184801Y161803D02*
Y163007D01*
X177301Y161803D02*
Y163007D01*
X168478Y164330D02*
X169801Y163007D01*
Y161803D02*
Y163007D01*
X171123Y164329D01*
X162299Y161803D02*
Y163007D01*
X163621Y164329D01*
X158551Y154304D02*
Y155507D01*
X164728Y156830D02*
X166051Y155507D01*
Y154303D02*
Y155507D01*
X172228Y156830D02*
X173551Y155507D01*
Y154303D02*
Y155507D01*
X179728Y156830D02*
X181051Y155507D01*
Y154303D02*
Y155507D01*
X188551Y154303D02*
Y155507D01*
X196054Y154304D02*
Y155507D01*
X203551Y154304D02*
Y155507D01*
X212926Y154303D02*
Y155507D01*
X210113Y146803D02*
Y148007D01*
X197926Y146803D02*
Y148007D01*
X199248Y149329D01*
X189103Y149330D02*
X190426Y148007D01*
Y146803D02*
Y148007D01*
X191748Y149329D01*
X181603Y149330D02*
X182926Y148007D01*
Y146803D02*
Y148007D01*
X184248Y149329D01*
X174103Y149330D02*
X175426Y148007D01*
Y146803D02*
Y148007D01*
X176748Y149329D01*
X166603Y149330D02*
X167926Y148007D01*
Y146803D02*
Y148007D01*
X169248Y149329D01*
X160426Y146803D02*
Y148007D01*
X161748Y149329D01*
X170354Y141829D02*
X171676Y140507D01*
X170353Y141830D02*
X170354Y141829D01*
X165498D02*
X170354D01*
X164176Y140507D02*
X165498Y141829D01*
X164176Y139303D02*
Y140507D01*
X172998Y141829D02*
X177853D01*
X179176Y140507D01*
X177853Y141830D02*
X177853Y141829D01*
X171676Y140507D02*
X172998Y141829D01*
X171676Y139303D02*
Y140507D01*
X185354Y141829D02*
X186676Y140507D01*
X185353Y141830D02*
X185354Y141829D01*
X180498D02*
X185354D01*
X179176Y140507D02*
X180498Y141829D01*
X179176Y139303D02*
Y140507D01*
X186676Y139303D02*
Y140507D01*
X194176Y140507D02*
X195498Y141829D01*
X194176Y139304D02*
Y140507D01*
X208238Y139303D02*
Y140507D01*
X206915Y141830D02*
X208238Y140507D01*
X185738Y133007D02*
X187061Y134329D01*
X185738Y131804D02*
Y133007D01*
X184415Y134330D02*
X185738Y133007D01*
X195113Y133007D02*
X196436Y134330D01*
X195113Y131804D02*
Y133007D01*
X193790Y134330D02*
X195113Y133007D01*
X204488Y131804D02*
Y133007D01*
X203165Y134330D02*
X204488Y133007D01*
X213863Y131804D02*
Y133007D01*
X212540Y134330D02*
X213863Y133007D01*
X188079Y141910D02*
X192773D01*
X194176Y140507D01*
X186676Y140507D02*
X188079Y141910D01*
X184248Y149329D02*
X189102D01*
X184145Y171355D02*
Y172163D01*
X183752Y171602D02*
Y172163D01*
X187061Y134329D02*
X193790D01*
X196603Y149330D02*
X197926Y148007D01*
X224969Y156190D02*
X230740D01*
X212926Y155507D02*
X213629Y156210D01*
X203551Y155507D02*
X204254Y156210D01*
X212223D01*
X212926Y155507D01*
X196054Y155507D02*
X196817Y156270D01*
X202788D01*
X203551Y155507D01*
X188551Y155507D02*
X189234Y156190D01*
X195371D01*
X196054Y155507D01*
X181051Y155507D02*
X181734Y156190D01*
X187868D01*
X188551Y155507D01*
X186090Y172139D02*
X186114Y172163D01*
X185720D02*
X185760Y172123D01*
X186507Y166160D02*
X189470Y163197D01*
X187295Y166905D02*
Y172163D01*
Y166905D02*
X190630Y163570D01*
X88668Y144623D02*
G03*
X88668Y146985I1J1181D01*
G01*
X244422Y146985D02*
G03*
X244422Y144623I-2J-1181D01*
G01*
X88668Y127053D02*
Y144623D01*
Y146985D02*
Y174022D01*
X244422D01*
Y146985D02*
Y174022D01*
Y127053D02*
Y144623D01*
X88668Y127053D02*
X244422D01*
D13*
X191800Y160804D02*
D03*
X193800D02*
D03*
X195800D02*
D03*
X177047Y153303D02*
D03*
X175047D02*
D03*
X173047D02*
D03*
X94414Y168303D02*
D03*
X92414D02*
D03*
X90414D02*
D03*
X96293Y153303D02*
D03*
X94293D02*
D03*
X92293D02*
D03*
X93230Y145804D02*
D03*
X95230D02*
D03*
X97230D02*
D03*
X99105Y138303D02*
D03*
X97105D02*
D03*
X95105D02*
D03*
X109414Y168303D02*
D03*
X107414D02*
D03*
X105414D02*
D03*
X101918Y160803D02*
D03*
X99918D02*
D03*
X97918D02*
D03*
X101670Y153304D02*
D03*
X103670D02*
D03*
X105670D02*
D03*
X107542Y145804D02*
D03*
X105542D02*
D03*
X103542D02*
D03*
X107292Y138304D02*
D03*
X109292D02*
D03*
X111292D02*
D03*
X104730Y130804D02*
D03*
X102730D02*
D03*
X100730D02*
D03*
X116914Y168303D02*
D03*
X114914D02*
D03*
X112914D02*
D03*
X109418Y160803D02*
D03*
X107418D02*
D03*
X105418D02*
D03*
X109168Y153304D02*
D03*
X111168D02*
D03*
X113168D02*
D03*
X115043Y145804D02*
D03*
X113043D02*
D03*
X111043D02*
D03*
X114792Y138304D02*
D03*
X116792D02*
D03*
X118792D02*
D03*
X114105Y130804D02*
D03*
X112105D02*
D03*
X110105D02*
D03*
X124414Y168304D02*
D03*
X122414D02*
D03*
X120414D02*
D03*
X116918Y160803D02*
D03*
X114918D02*
D03*
X112918D02*
D03*
X116668Y153303D02*
D03*
X118668D02*
D03*
X120668D02*
D03*
X122542Y145803D02*
D03*
X120542D02*
D03*
X118542D02*
D03*
X122292Y138304D02*
D03*
X124292D02*
D03*
X126292D02*
D03*
X124418Y160803D02*
D03*
X122418D02*
D03*
X120418D02*
D03*
X124168Y153303D02*
D03*
X126168D02*
D03*
X128168D02*
D03*
X130042Y145803D02*
D03*
X128042D02*
D03*
X126042D02*
D03*
X129793Y138304D02*
D03*
X131793D02*
D03*
X133793D02*
D03*
X131580Y130804D02*
D03*
X129580D02*
D03*
X127580D02*
D03*
X127918Y160804D02*
D03*
X129918D02*
D03*
X131918D02*
D03*
X135668Y153304D02*
D03*
X133668D02*
D03*
X131668D02*
D03*
X133543Y145803D02*
D03*
X135543D02*
D03*
X137543D02*
D03*
X141293Y138304D02*
D03*
X139293D02*
D03*
X137293D02*
D03*
X135418Y160804D02*
D03*
X137418D02*
D03*
X139418D02*
D03*
X158044Y168304D02*
D03*
X160044D02*
D03*
X162044D02*
D03*
X158047Y153304D02*
D03*
X160047D02*
D03*
X162047D02*
D03*
X163922Y145803D02*
D03*
X161922D02*
D03*
X159922D02*
D03*
X163672Y138303D02*
D03*
X165672D02*
D03*
X167672D02*
D03*
X171761Y130804D02*
D03*
X169761D02*
D03*
X167761D02*
D03*
X169544Y168303D02*
D03*
X167544D02*
D03*
X165544D02*
D03*
X165795Y160803D02*
D03*
X163795D02*
D03*
X161795D02*
D03*
X165547Y153303D02*
D03*
X167547D02*
D03*
X169547D02*
D03*
X171422Y145803D02*
D03*
X169422D02*
D03*
X167422D02*
D03*
X171172Y138303D02*
D03*
X173172D02*
D03*
X175172D02*
D03*
X173044Y168303D02*
D03*
X175044D02*
D03*
X177044D02*
D03*
X169297Y160803D02*
D03*
X171297D02*
D03*
X173297D02*
D03*
X178922Y145803D02*
D03*
X176922D02*
D03*
X174922D02*
D03*
X178672Y138303D02*
D03*
X180672D02*
D03*
X182672D02*
D03*
X180550Y168300D02*
D03*
X182550D02*
D03*
X184550D02*
D03*
X176797Y160803D02*
D03*
X178797D02*
D03*
X180797D02*
D03*
X184547Y153303D02*
D03*
X182547D02*
D03*
X180547D02*
D03*
X182422Y145803D02*
D03*
X184422D02*
D03*
X186422D02*
D03*
X190172Y138303D02*
D03*
X188172D02*
D03*
X186172D02*
D03*
X185234Y130804D02*
D03*
X187234D02*
D03*
X189234D02*
D03*
X191797Y168303D02*
D03*
X193797D02*
D03*
X195797D02*
D03*
X184297Y160803D02*
D03*
X186297D02*
D03*
X188297D02*
D03*
X192047Y153303D02*
D03*
X190047D02*
D03*
X188047D02*
D03*
X189922Y145803D02*
D03*
X191922D02*
D03*
X193922D02*
D03*
X197672Y138304D02*
D03*
X195672D02*
D03*
X193672D02*
D03*
X194609Y130804D02*
D03*
X196609D02*
D03*
X198609D02*
D03*
X199297Y168304D02*
D03*
X201297D02*
D03*
X203297D02*
D03*
X195550Y153304D02*
D03*
X197550D02*
D03*
X199550D02*
D03*
X201422Y145803D02*
D03*
X199422D02*
D03*
X197422D02*
D03*
X207734Y138303D02*
D03*
X209734D02*
D03*
X211734D02*
D03*
X207984Y130804D02*
D03*
X205984D02*
D03*
X203984D02*
D03*
X210797Y168303D02*
D03*
X208797D02*
D03*
X206797D02*
D03*
X203297Y160803D02*
D03*
X201297D02*
D03*
X199297D02*
D03*
X203047Y153304D02*
D03*
X205047D02*
D03*
X207047D02*
D03*
X213609Y145803D02*
D03*
X211609D02*
D03*
X209609D02*
D03*
X213359Y130804D02*
D03*
X215359D02*
D03*
X217359D02*
D03*
X214297Y168304D02*
D03*
X216297D02*
D03*
X218297D02*
D03*
X210547Y160803D02*
D03*
X212547D02*
D03*
X214547D02*
D03*
X216422Y153303D02*
D03*
X214422D02*
D03*
X212422D02*
D03*
X227672Y168304D02*
D03*
X225672D02*
D03*
X223672D02*
D03*
X227676Y160803D02*
D03*
X225676D02*
D03*
X223676D02*
D03*
X223676Y153303D02*
D03*
X225676D02*
D03*
X227676D02*
D03*
Y130804D02*
D03*
X225676D02*
D03*
X223676D02*
D03*
X235172Y168303D02*
D03*
X233172D02*
D03*
X231172D02*
D03*
X235176Y160803D02*
D03*
X233176D02*
D03*
X231176D02*
D03*
X231169Y153304D02*
D03*
X233169D02*
D03*
X235169D02*
D03*
X235176Y138304D02*
D03*
X233176D02*
D03*
X231176D02*
D03*
Y130804D02*
D03*
X233176D02*
D03*
X235176D02*
D03*
X238672Y168304D02*
D03*
X240672D02*
D03*
X242672D02*
D03*
X238676Y160803D02*
D03*
X240676D02*
D03*
X242676D02*
D03*
Y153303D02*
D03*
X240676D02*
D03*
X238676D02*
D03*
X238670Y130804D02*
D03*
X240670D02*
D03*
X242670D02*
D03*
X95355Y130804D02*
D03*
X93355D02*
D03*
X91355D02*
D03*
X90418Y160803D02*
D03*
X92418D02*
D03*
X94418D02*
D03*
X127914Y168304D02*
D03*
X129914D02*
D03*
X131914D02*
D03*
X149238Y142752D02*
D03*
Y137152D02*
D03*
D14*
X194800Y162804D02*
D03*
X192304Y161804D02*
D03*
X173551Y154303D02*
D03*
X176047Y155303D02*
D03*
X91414Y166303D02*
D03*
X93910Y167303D02*
D03*
X92797Y154303D02*
D03*
X95293Y155303D02*
D03*
X96230Y147804D02*
D03*
X93734Y146804D02*
D03*
X95609Y139303D02*
D03*
X98105Y140303D02*
D03*
X106414Y166303D02*
D03*
X108910Y167303D02*
D03*
X98422Y161803D02*
D03*
X100918Y162803D02*
D03*
X104670Y155304D02*
D03*
X102174Y154304D02*
D03*
X104046Y146804D02*
D03*
X106542Y147804D02*
D03*
X110292Y140304D02*
D03*
X107796Y139304D02*
D03*
X101234Y131804D02*
D03*
X103730Y132804D02*
D03*
X113914Y166303D02*
D03*
X116410Y167303D02*
D03*
X105922Y161803D02*
D03*
X108418Y162803D02*
D03*
X112168Y155304D02*
D03*
X109672Y154304D02*
D03*
X111547Y146804D02*
D03*
X114043Y147804D02*
D03*
X117792Y140304D02*
D03*
X115296Y139304D02*
D03*
X110609Y131804D02*
D03*
X113105Y132804D02*
D03*
X121414Y166304D02*
D03*
X123910Y167304D02*
D03*
X113422Y161803D02*
D03*
X115918Y162803D02*
D03*
X119668Y155303D02*
D03*
X117172Y154303D02*
D03*
X119046Y146803D02*
D03*
X121542Y147803D02*
D03*
X125292Y140304D02*
D03*
X122796Y139304D02*
D03*
X120922Y161803D02*
D03*
X123418Y162803D02*
D03*
X127168Y155303D02*
D03*
X124672Y154303D02*
D03*
X126546Y146803D02*
D03*
X129042Y147803D02*
D03*
X132793Y140304D02*
D03*
X130297Y139304D02*
D03*
X128084Y131804D02*
D03*
X130580Y132804D02*
D03*
X130918Y162804D02*
D03*
X128422Y161804D02*
D03*
X132172Y154304D02*
D03*
X134668Y155304D02*
D03*
X136543Y147803D02*
D03*
X134047Y146803D02*
D03*
X137797Y139304D02*
D03*
X140293Y140304D02*
D03*
X138418Y162804D02*
D03*
X135922Y161804D02*
D03*
X161540Y167304D02*
D03*
X159044Y166304D02*
D03*
X161047Y155304D02*
D03*
X158551Y154304D02*
D03*
X160426Y146803D02*
D03*
X162922Y147803D02*
D03*
X166672Y140303D02*
D03*
X164176Y139303D02*
D03*
X168265Y131804D02*
D03*
X170761Y132804D02*
D03*
X166544Y166303D02*
D03*
X169040Y167303D02*
D03*
X162299Y161803D02*
D03*
X164795Y162803D02*
D03*
X168547Y155303D02*
D03*
X166051Y154303D02*
D03*
X167926Y146803D02*
D03*
X170422Y147803D02*
D03*
X174172Y140303D02*
D03*
X171676Y139303D02*
D03*
X176540Y167303D02*
D03*
X174044Y166303D02*
D03*
X172297Y162803D02*
D03*
X169801Y161803D02*
D03*
X175426Y146803D02*
D03*
X177922Y147803D02*
D03*
X181672Y140303D02*
D03*
X179176Y139303D02*
D03*
X184046Y167300D02*
D03*
X181550Y166300D02*
D03*
X179797Y162803D02*
D03*
X177301Y161803D02*
D03*
X181051Y154303D02*
D03*
X183547Y155303D02*
D03*
X185422Y147803D02*
D03*
X182926Y146803D02*
D03*
X186676Y139303D02*
D03*
X189172Y140303D02*
D03*
X188234Y132804D02*
D03*
X185738Y131804D02*
D03*
X195293Y167303D02*
D03*
X192797Y166303D02*
D03*
X187297Y162803D02*
D03*
X184801Y161803D02*
D03*
X188551Y154303D02*
D03*
X191047Y155303D02*
D03*
X192922Y147803D02*
D03*
X190426Y146803D02*
D03*
X194176Y139304D02*
D03*
X196672Y140304D02*
D03*
X197609Y132804D02*
D03*
X195113Y131804D02*
D03*
X202793Y167304D02*
D03*
X200297Y166304D02*
D03*
X198550Y155304D02*
D03*
X196054Y154304D02*
D03*
X197926Y146803D02*
D03*
X200422Y147803D02*
D03*
X210734Y140303D02*
D03*
X208238Y139303D02*
D03*
X204488Y131804D02*
D03*
X206984Y132804D02*
D03*
X207797Y166303D02*
D03*
X210293Y167303D02*
D03*
X199801Y161803D02*
D03*
X202297Y162803D02*
D03*
X206047Y155304D02*
D03*
X203551Y154304D02*
D03*
X210113Y146803D02*
D03*
X212609Y147803D02*
D03*
X216359Y132804D02*
D03*
X213863Y131804D02*
D03*
X217793Y167304D02*
D03*
X215297Y166304D02*
D03*
X213547Y162803D02*
D03*
X211051Y161803D02*
D03*
X212926Y154303D02*
D03*
X215422Y155303D02*
D03*
X224672Y166304D02*
D03*
X227168Y167304D02*
D03*
X224180Y161803D02*
D03*
X226676Y162803D02*
D03*
X226676Y155303D02*
D03*
X224180Y154303D02*
D03*
Y131804D02*
D03*
X226676Y132804D02*
D03*
X232172Y166303D02*
D03*
X234668Y167303D02*
D03*
X231680Y161803D02*
D03*
X234176Y162803D02*
D03*
X234169Y155304D02*
D03*
X231673Y154304D02*
D03*
X231680Y139304D02*
D03*
X234176Y140304D02*
D03*
Y132804D02*
D03*
X231680Y131804D02*
D03*
X242168Y167304D02*
D03*
X239672Y166304D02*
D03*
X241676Y162803D02*
D03*
X239180Y161803D02*
D03*
Y154303D02*
D03*
X241676Y155303D02*
D03*
X241670Y132804D02*
D03*
X239174Y131804D02*
D03*
X91859Y131804D02*
D03*
X94355Y132804D02*
D03*
X93418Y162803D02*
D03*
X90922Y161803D02*
D03*
X131410Y167304D02*
D03*
X128914Y166304D02*
D03*
D15*
X150910Y169493D02*
D03*
X144920D02*
D03*
D16*
X150910Y168493D02*
D03*
Y167493D02*
D03*
Y166493D02*
D03*
Y165493D02*
D03*
Y164493D02*
D03*
Y163493D02*
D03*
Y162493D02*
D03*
Y161493D02*
D03*
Y160493D02*
D03*
Y159493D02*
D03*
Y158493D02*
D03*
Y157493D02*
D03*
Y156493D02*
D03*
Y155493D02*
D03*
Y154493D02*
D03*
Y153493D02*
D03*
Y152493D02*
D03*
Y151493D02*
D03*
Y150493D02*
D03*
X144920Y162493D02*
D03*
Y161493D02*
D03*
Y168493D02*
D03*
Y167493D02*
D03*
Y166493D02*
D03*
Y165493D02*
D03*
Y164493D02*
D03*
Y163493D02*
D03*
Y160493D02*
D03*
Y159493D02*
D03*
Y158493D02*
D03*
Y157493D02*
D03*
Y156493D02*
D03*
Y155493D02*
D03*
Y154493D02*
D03*
Y153493D02*
D03*
Y152493D02*
D03*
Y151493D02*
D03*
Y150493D02*
D03*
D17*
X148254Y142752D02*
D03*
Y137152D02*
D03*
D18*
X184750Y181680D02*
D03*
X184930Y170080D02*
D03*
X96613Y164890D02*
D03*
X182440Y165210D02*
D03*
X177490Y170630D02*
D03*
X178470Y170220D02*
D03*
X138170Y168493D02*
D03*
X142790Y164493D02*
D03*
X140000Y167530D02*
D03*
X139860Y166520D02*
D03*
X142130Y165490D02*
D03*
X208150Y160740D02*
D03*
X208790Y161210D02*
D03*
X171742Y171110D02*
D03*
X163350Y150620D02*
D03*
X228977Y158470D02*
D03*
X195260Y165430D02*
D03*
X196950Y163630D02*
D03*
X219460Y156210D02*
D03*
X208789Y149329D02*
D03*
X205811Y134330D02*
D03*
X123220Y150270D02*
D03*
X220110Y150620D02*
D03*
X236480Y158990D02*
D03*
X221480Y157940D02*
D03*
X218617Y157370D02*
D03*
X205485Y156850D02*
D03*
X206170Y163660D02*
D03*
X186250Y165650D02*
D03*
X185345Y164775D02*
D03*
X220110Y167350D02*
D03*
X220708Y163752D02*
D03*
X220720Y168210D02*
D03*
X219460Y166690D02*
D03*
X206840Y141830D02*
D03*
X209410Y161620D02*
D03*
X200454Y163660D02*
D03*
X210398D02*
D03*
X192304Y163007D02*
D03*
X188090Y163800D02*
D03*
X180360Y163940D02*
D03*
X183860Y163920D02*
D03*
X134570Y157220D02*
D03*
X131440Y149690D02*
D03*
X111613Y157957D02*
D03*
X104113Y164183D02*
D03*
X185330Y170810D02*
D03*
M02*
