G04 Layer_Color=255*
%FSLAX24Y24*%
%MOIN*%
G70*
G01*
G75*
%ADD12C,0.0100*%
%ADD13C,0.0600*%
%ADD14C,0.0984*%
%ADD15R,0.0669X0.0669*%
%ADD16C,0.0669*%
%ADD17R,0.0600X0.0600*%
%ADD19R,0.0394X0.0236*%
%ADD20R,0.0236X0.0394*%
D12*
X88668Y144623D02*
G03*
X88668Y146985I1J1181D01*
G01*
X244422Y146985D02*
G03*
X244422Y144623I-2J-1181D01*
G01*
X88668Y127053D02*
Y144623D01*
Y146985D02*
Y174022D01*
X244422D01*
Y146985D02*
Y174022D01*
Y127053D02*
Y144623D01*
X88668Y127053D02*
X244422D01*
D13*
X191800Y160804D02*
D03*
X193800D02*
D03*
X195800D02*
D03*
X177047Y153303D02*
D03*
X175047D02*
D03*
X173047D02*
D03*
X94414Y168303D02*
D03*
X92414D02*
D03*
X90414D02*
D03*
X96293Y153303D02*
D03*
X94293D02*
D03*
X92293D02*
D03*
X93230Y145804D02*
D03*
X95230D02*
D03*
X97230D02*
D03*
X99105Y138303D02*
D03*
X97105D02*
D03*
X95105D02*
D03*
X109414Y168303D02*
D03*
X107414D02*
D03*
X105414D02*
D03*
X101918Y160803D02*
D03*
X99918D02*
D03*
X97918D02*
D03*
X101670Y153304D02*
D03*
X103670D02*
D03*
X105670D02*
D03*
X107542Y145804D02*
D03*
X105542D02*
D03*
X103542D02*
D03*
X107292Y138304D02*
D03*
X109292D02*
D03*
X111292D02*
D03*
X104730Y130804D02*
D03*
X102730D02*
D03*
X100730D02*
D03*
X116914Y168303D02*
D03*
X114914D02*
D03*
X112914D02*
D03*
X109418Y160803D02*
D03*
X107418D02*
D03*
X105418D02*
D03*
X109168Y153304D02*
D03*
X111168D02*
D03*
X113168D02*
D03*
X115043Y145804D02*
D03*
X113043D02*
D03*
X111043D02*
D03*
X114792Y138304D02*
D03*
X116792D02*
D03*
X118792D02*
D03*
X114105Y130804D02*
D03*
X112105D02*
D03*
X110105D02*
D03*
X124414Y168304D02*
D03*
X122414D02*
D03*
X120414D02*
D03*
X116918Y160803D02*
D03*
X114918D02*
D03*
X112918D02*
D03*
X116668Y153303D02*
D03*
X118668D02*
D03*
X120668D02*
D03*
X122542Y145803D02*
D03*
X120542D02*
D03*
X118542D02*
D03*
X122292Y138304D02*
D03*
X124292D02*
D03*
X126292D02*
D03*
X124418Y160803D02*
D03*
X122418D02*
D03*
X120418D02*
D03*
X124168Y153303D02*
D03*
X126168D02*
D03*
X128168D02*
D03*
X130042Y145803D02*
D03*
X128042D02*
D03*
X126042D02*
D03*
X129793Y138304D02*
D03*
X131793D02*
D03*
X133793D02*
D03*
X131580Y130804D02*
D03*
X129580D02*
D03*
X127580D02*
D03*
X127918Y160804D02*
D03*
X129918D02*
D03*
X131918D02*
D03*
X135668Y153304D02*
D03*
X133668D02*
D03*
X131668D02*
D03*
X133543Y145803D02*
D03*
X135543D02*
D03*
X137543D02*
D03*
X141293Y138304D02*
D03*
X139293D02*
D03*
X137293D02*
D03*
X135418Y160804D02*
D03*
X137418D02*
D03*
X139418D02*
D03*
X158044Y168304D02*
D03*
X160044D02*
D03*
X162044D02*
D03*
X158047Y153304D02*
D03*
X160047D02*
D03*
X162047D02*
D03*
X163922Y145803D02*
D03*
X161922D02*
D03*
X159922D02*
D03*
X163672Y138303D02*
D03*
X165672D02*
D03*
X167672D02*
D03*
X171761Y130804D02*
D03*
X169761D02*
D03*
X167761D02*
D03*
X169544Y168303D02*
D03*
X167544D02*
D03*
X165544D02*
D03*
X165795Y160803D02*
D03*
X163795D02*
D03*
X161795D02*
D03*
X165547Y153303D02*
D03*
X167547D02*
D03*
X169547D02*
D03*
X171422Y145803D02*
D03*
X169422D02*
D03*
X167422D02*
D03*
X171172Y138303D02*
D03*
X173172D02*
D03*
X175172D02*
D03*
X173044Y168303D02*
D03*
X175044D02*
D03*
X177044D02*
D03*
X169297Y160803D02*
D03*
X171297D02*
D03*
X173297D02*
D03*
X178922Y145803D02*
D03*
X176922D02*
D03*
X174922D02*
D03*
X178672Y138303D02*
D03*
X180672D02*
D03*
X182672D02*
D03*
X180550Y168300D02*
D03*
X182550D02*
D03*
X184550D02*
D03*
X176797Y160803D02*
D03*
X178797D02*
D03*
X180797D02*
D03*
X184547Y153303D02*
D03*
X182547D02*
D03*
X180547D02*
D03*
X182422Y145803D02*
D03*
X184422D02*
D03*
X186422D02*
D03*
X190172Y138303D02*
D03*
X188172D02*
D03*
X186172D02*
D03*
X185234Y130804D02*
D03*
X187234D02*
D03*
X189234D02*
D03*
X191797Y168303D02*
D03*
X193797D02*
D03*
X195797D02*
D03*
X184297Y160803D02*
D03*
X186297D02*
D03*
X188297D02*
D03*
X192047Y153303D02*
D03*
X190047D02*
D03*
X188047D02*
D03*
X189922Y145803D02*
D03*
X191922D02*
D03*
X193922D02*
D03*
X197672Y138304D02*
D03*
X195672D02*
D03*
X193672D02*
D03*
X194609Y130804D02*
D03*
X196609D02*
D03*
X198609D02*
D03*
X199297Y168304D02*
D03*
X201297D02*
D03*
X203297D02*
D03*
X195550Y153304D02*
D03*
X197550D02*
D03*
X199550D02*
D03*
X201422Y145803D02*
D03*
X199422D02*
D03*
X197422D02*
D03*
X207734Y138303D02*
D03*
X209734D02*
D03*
X211734D02*
D03*
X207984Y130804D02*
D03*
X205984D02*
D03*
X203984D02*
D03*
X210797Y168303D02*
D03*
X208797D02*
D03*
X206797D02*
D03*
X203297Y160803D02*
D03*
X201297D02*
D03*
X199297D02*
D03*
X203047Y153304D02*
D03*
X205047D02*
D03*
X207047D02*
D03*
X213609Y145803D02*
D03*
X211609D02*
D03*
X209609D02*
D03*
X213359Y130804D02*
D03*
X215359D02*
D03*
X217359D02*
D03*
X214297Y168304D02*
D03*
X216297D02*
D03*
X218297D02*
D03*
X210547Y160803D02*
D03*
X212547D02*
D03*
X214547D02*
D03*
X216422Y153303D02*
D03*
X214422D02*
D03*
X212422D02*
D03*
X227672Y168304D02*
D03*
X225672D02*
D03*
X223672D02*
D03*
X227676Y160803D02*
D03*
X225676D02*
D03*
X223676D02*
D03*
X223676Y153303D02*
D03*
X225676D02*
D03*
X227676D02*
D03*
Y130804D02*
D03*
X225676D02*
D03*
X223676D02*
D03*
X235172Y168303D02*
D03*
X233172D02*
D03*
X231172D02*
D03*
X235176Y160803D02*
D03*
X233176D02*
D03*
X231176D02*
D03*
X231169Y153304D02*
D03*
X233169D02*
D03*
X235169D02*
D03*
X235176Y138304D02*
D03*
X233176D02*
D03*
X231176D02*
D03*
Y130804D02*
D03*
X233176D02*
D03*
X235176D02*
D03*
X238672Y168304D02*
D03*
X240672D02*
D03*
X242672D02*
D03*
X238676Y160803D02*
D03*
X240676D02*
D03*
X242676D02*
D03*
Y153303D02*
D03*
X240676D02*
D03*
X238676D02*
D03*
X238670Y130804D02*
D03*
X240670D02*
D03*
X242670D02*
D03*
X95355Y130804D02*
D03*
X93355D02*
D03*
X91355D02*
D03*
X90418Y160803D02*
D03*
X92418D02*
D03*
X94418D02*
D03*
X127914Y168304D02*
D03*
X129914D02*
D03*
X131914D02*
D03*
X149238Y142752D02*
D03*
Y137152D02*
D03*
D14*
X194800Y162804D02*
D03*
X192304Y161804D02*
D03*
X173551Y154303D02*
D03*
X176047Y155303D02*
D03*
X91414Y166303D02*
D03*
X93910Y167303D02*
D03*
X92797Y154303D02*
D03*
X95293Y155303D02*
D03*
X96230Y147804D02*
D03*
X93734Y146804D02*
D03*
X95609Y139303D02*
D03*
X98105Y140303D02*
D03*
X106414Y166303D02*
D03*
X108910Y167303D02*
D03*
X98422Y161803D02*
D03*
X100918Y162803D02*
D03*
X104670Y155304D02*
D03*
X102174Y154304D02*
D03*
X104046Y146804D02*
D03*
X106542Y147804D02*
D03*
X110292Y140304D02*
D03*
X107796Y139304D02*
D03*
X101234Y131804D02*
D03*
X103730Y132804D02*
D03*
X113914Y166303D02*
D03*
X116410Y167303D02*
D03*
X105922Y161803D02*
D03*
X108418Y162803D02*
D03*
X112168Y155304D02*
D03*
X109672Y154304D02*
D03*
X111547Y146804D02*
D03*
X114043Y147804D02*
D03*
X117792Y140304D02*
D03*
X115296Y139304D02*
D03*
X110609Y131804D02*
D03*
X113105Y132804D02*
D03*
X121414Y166304D02*
D03*
X123910Y167304D02*
D03*
X113422Y161803D02*
D03*
X115918Y162803D02*
D03*
X119668Y155303D02*
D03*
X117172Y154303D02*
D03*
X119046Y146803D02*
D03*
X121542Y147803D02*
D03*
X125292Y140304D02*
D03*
X122796Y139304D02*
D03*
X120922Y161803D02*
D03*
X123418Y162803D02*
D03*
X127168Y155303D02*
D03*
X124672Y154303D02*
D03*
X126546Y146803D02*
D03*
X129042Y147803D02*
D03*
X132793Y140304D02*
D03*
X130297Y139304D02*
D03*
X128084Y131804D02*
D03*
X130580Y132804D02*
D03*
X130918Y162804D02*
D03*
X128422Y161804D02*
D03*
X132172Y154304D02*
D03*
X134668Y155304D02*
D03*
X136543Y147803D02*
D03*
X134047Y146803D02*
D03*
X137797Y139304D02*
D03*
X140293Y140304D02*
D03*
X138418Y162804D02*
D03*
X135922Y161804D02*
D03*
X161540Y167304D02*
D03*
X159044Y166304D02*
D03*
X161047Y155304D02*
D03*
X158551Y154304D02*
D03*
X160426Y146803D02*
D03*
X162922Y147803D02*
D03*
X166672Y140303D02*
D03*
X164176Y139303D02*
D03*
X168265Y131804D02*
D03*
X170761Y132804D02*
D03*
X166544Y166303D02*
D03*
X169040Y167303D02*
D03*
X162299Y161803D02*
D03*
X164795Y162803D02*
D03*
X168547Y155303D02*
D03*
X166051Y154303D02*
D03*
X167926Y146803D02*
D03*
X170422Y147803D02*
D03*
X174172Y140303D02*
D03*
X171676Y139303D02*
D03*
X176540Y167303D02*
D03*
X174044Y166303D02*
D03*
X172297Y162803D02*
D03*
X169801Y161803D02*
D03*
X175426Y146803D02*
D03*
X177922Y147803D02*
D03*
X181672Y140303D02*
D03*
X179176Y139303D02*
D03*
X184046Y167300D02*
D03*
X181550Y166300D02*
D03*
X179797Y162803D02*
D03*
X177301Y161803D02*
D03*
X181051Y154303D02*
D03*
X183547Y155303D02*
D03*
X185422Y147803D02*
D03*
X182926Y146803D02*
D03*
X186676Y139303D02*
D03*
X189172Y140303D02*
D03*
X188234Y132804D02*
D03*
X185738Y131804D02*
D03*
X195293Y167303D02*
D03*
X192797Y166303D02*
D03*
X187297Y162803D02*
D03*
X184801Y161803D02*
D03*
X188551Y154303D02*
D03*
X191047Y155303D02*
D03*
X192922Y147803D02*
D03*
X190426Y146803D02*
D03*
X194176Y139304D02*
D03*
X196672Y140304D02*
D03*
X197609Y132804D02*
D03*
X195113Y131804D02*
D03*
X202793Y167304D02*
D03*
X200297Y166304D02*
D03*
X198550Y155304D02*
D03*
X196054Y154304D02*
D03*
X197926Y146803D02*
D03*
X200422Y147803D02*
D03*
X210734Y140303D02*
D03*
X208238Y139303D02*
D03*
X204488Y131804D02*
D03*
X206984Y132804D02*
D03*
X207797Y166303D02*
D03*
X210293Y167303D02*
D03*
X199801Y161803D02*
D03*
X202297Y162803D02*
D03*
X206047Y155304D02*
D03*
X203551Y154304D02*
D03*
X210113Y146803D02*
D03*
X212609Y147803D02*
D03*
X216359Y132804D02*
D03*
X213863Y131804D02*
D03*
X217793Y167304D02*
D03*
X215297Y166304D02*
D03*
X213547Y162803D02*
D03*
X211051Y161803D02*
D03*
X212926Y154303D02*
D03*
X215422Y155303D02*
D03*
X224672Y166304D02*
D03*
X227168Y167304D02*
D03*
X224180Y161803D02*
D03*
X226676Y162803D02*
D03*
X226676Y155303D02*
D03*
X224180Y154303D02*
D03*
Y131804D02*
D03*
X226676Y132804D02*
D03*
X232172Y166303D02*
D03*
X234668Y167303D02*
D03*
X231680Y161803D02*
D03*
X234176Y162803D02*
D03*
X234169Y155304D02*
D03*
X231673Y154304D02*
D03*
X231680Y139304D02*
D03*
X234176Y140304D02*
D03*
Y132804D02*
D03*
X231680Y131804D02*
D03*
X242168Y167304D02*
D03*
X239672Y166304D02*
D03*
X241676Y162803D02*
D03*
X239180Y161803D02*
D03*
Y154303D02*
D03*
X241676Y155303D02*
D03*
X241670Y132804D02*
D03*
X239174Y131804D02*
D03*
X91859Y131804D02*
D03*
X94355Y132804D02*
D03*
X93418Y162803D02*
D03*
X90922Y161803D02*
D03*
X131410Y167304D02*
D03*
X128914Y166304D02*
D03*
D15*
X150910Y169493D02*
D03*
X144920D02*
D03*
D16*
X150910Y168493D02*
D03*
Y167493D02*
D03*
Y166493D02*
D03*
Y165493D02*
D03*
Y164493D02*
D03*
Y163493D02*
D03*
Y162493D02*
D03*
Y161493D02*
D03*
Y160493D02*
D03*
Y159493D02*
D03*
Y158493D02*
D03*
Y157493D02*
D03*
Y156493D02*
D03*
Y155493D02*
D03*
Y154493D02*
D03*
Y153493D02*
D03*
Y152493D02*
D03*
Y151493D02*
D03*
Y150493D02*
D03*
X144920Y162493D02*
D03*
Y161493D02*
D03*
Y168493D02*
D03*
Y167493D02*
D03*
Y166493D02*
D03*
Y165493D02*
D03*
Y164493D02*
D03*
Y163493D02*
D03*
Y160493D02*
D03*
Y159493D02*
D03*
Y158493D02*
D03*
Y157493D02*
D03*
Y156493D02*
D03*
Y155493D02*
D03*
Y154493D02*
D03*
Y153493D02*
D03*
Y152493D02*
D03*
Y151493D02*
D03*
Y150493D02*
D03*
D17*
X148254Y142752D02*
D03*
Y137152D02*
D03*
D19*
X170880Y166340D02*
D03*
X171711D02*
D03*
X186265Y156770D02*
D03*
X187095D02*
D03*
X96613Y166303D02*
D03*
X95783D02*
D03*
X96613Y162803D02*
D03*
X95783D02*
D03*
X98488Y155303D02*
D03*
X97658D02*
D03*
X99425Y147804D02*
D03*
X98595D02*
D03*
X101301Y140303D02*
D03*
X100470D02*
D03*
X97551Y132804D02*
D03*
X96720D02*
D03*
X111613Y166303D02*
D03*
X110782D02*
D03*
X104113Y162803D02*
D03*
X103282D02*
D03*
X107865Y155304D02*
D03*
X107035D02*
D03*
X109737Y147804D02*
D03*
X108906D02*
D03*
X113487Y140304D02*
D03*
X112656D02*
D03*
X106926Y132804D02*
D03*
X106095D02*
D03*
X119111Y166303D02*
D03*
X118280D02*
D03*
X111613Y162803D02*
D03*
X110782D02*
D03*
X115363Y155304D02*
D03*
X114533D02*
D03*
X117238Y147804D02*
D03*
X116407D02*
D03*
X120987Y140304D02*
D03*
X120156D02*
D03*
X116301Y132804D02*
D03*
X115470D02*
D03*
X126613Y166304D02*
D03*
X125782D02*
D03*
X119113Y162803D02*
D03*
X118282D02*
D03*
X122863Y155303D02*
D03*
X122033D02*
D03*
X124737Y147803D02*
D03*
X123906D02*
D03*
X128487Y140304D02*
D03*
X127656D02*
D03*
X134113Y166304D02*
D03*
X133282D02*
D03*
X126613Y162803D02*
D03*
X125782D02*
D03*
X130363Y155303D02*
D03*
X129533D02*
D03*
X132237Y147803D02*
D03*
X131406D02*
D03*
X135988Y140304D02*
D03*
X135158D02*
D03*
X133775Y132804D02*
D03*
X132945D02*
D03*
X134113Y162804D02*
D03*
X133282D02*
D03*
X137863Y155304D02*
D03*
X137033D02*
D03*
X139738Y147803D02*
D03*
X138908D02*
D03*
X143488Y140304D02*
D03*
X142658D02*
D03*
X139265Y164480D02*
D03*
X138435D02*
D03*
X163375Y149730D02*
D03*
X162545D02*
D03*
X163375Y166340D02*
D03*
X164205D02*
D03*
X167990Y162803D02*
D03*
X167160D02*
D03*
X164395Y156530D02*
D03*
X165225D02*
D03*
X166215Y149510D02*
D03*
X167045D02*
D03*
X169275Y141760D02*
D03*
X170105D02*
D03*
X174705Y163580D02*
D03*
X173875D02*
D03*
X171565Y156650D02*
D03*
X172395D02*
D03*
X173355Y149130D02*
D03*
X174185D02*
D03*
X177175Y141780D02*
D03*
X178005D02*
D03*
X178445Y166290D02*
D03*
X179275D02*
D03*
X177345Y163980D02*
D03*
X178175D02*
D03*
X178715Y156650D02*
D03*
X179545D02*
D03*
X180825Y149120D02*
D03*
X181655D02*
D03*
X184685Y141890D02*
D03*
X185515D02*
D03*
X185345Y163960D02*
D03*
X186175D02*
D03*
X188565Y149370D02*
D03*
X189395D02*
D03*
X192075Y141850D02*
D03*
X192905D02*
D03*
X197102Y166304D02*
D03*
X197932D02*
D03*
X197995Y162804D02*
D03*
X197165D02*
D03*
X201745Y155304D02*
D03*
X200915D02*
D03*
X203617Y147803D02*
D03*
X202787D02*
D03*
X213930Y140303D02*
D03*
X213099D02*
D03*
X203655Y135200D02*
D03*
X204485D02*
D03*
X204602Y166303D02*
D03*
X205432D02*
D03*
X205492Y162803D02*
D03*
X204662D02*
D03*
X205485Y158340D02*
D03*
X206315D02*
D03*
X215805Y147803D02*
D03*
X214974D02*
D03*
X213905Y135250D02*
D03*
X214735D02*
D03*
X212102Y166304D02*
D03*
X212932D02*
D03*
X216742Y162803D02*
D03*
X215912D02*
D03*
X218617Y155303D02*
D03*
X217787D02*
D03*
X221477Y166304D02*
D03*
X222307D02*
D03*
X221477Y162803D02*
D03*
X222307D02*
D03*
X221477Y155303D02*
D03*
X222307D02*
D03*
X223865Y134850D02*
D03*
X224695D02*
D03*
X228977Y166303D02*
D03*
X229807D02*
D03*
X228977Y162803D02*
D03*
X229807D02*
D03*
X228977Y155303D02*
D03*
X229807D02*
D03*
X228976Y140304D02*
D03*
X229807D02*
D03*
X228985Y134850D02*
D03*
X229815D02*
D03*
X236476Y166304D02*
D03*
X237307D02*
D03*
X236476Y162803D02*
D03*
X237307D02*
D03*
X236476Y155303D02*
D03*
X237307D02*
D03*
X236485Y134850D02*
D03*
X237315D02*
D03*
D20*
X159860Y164045D02*
D03*
Y164875D02*
D03*
X161040Y158235D02*
D03*
Y157405D02*
D03*
X165070Y143065D02*
D03*
Y142235D02*
D03*
X169310Y135955D02*
D03*
Y135125D02*
D03*
X184670Y135355D02*
D03*
Y134525D02*
D03*
X190280Y167155D02*
D03*
Y166325D02*
D03*
X192130Y135245D02*
D03*
Y134415D02*
D03*
M02*
