M48
;Layer_Color=9474304
;FILE_FORMAT=2:4
INCH,LZ
;TYPE=PLATED
T3F00S00C0.0120
T4F00S00C0.0354
T5F00S00C0.0394
T6F00S00C0.0591
;TYPE=NON_PLATED
T1F00S00C0.0787
T2F00S00C0.1575
%
T03
X205811Y13433
X22011Y15062
X21946Y15621
X208789Y149329
X20684Y14183
X16335Y15062
X13144Y14969
X12322Y15027
X104113Y164183
X096613Y16489
X111613Y157957
X13457Y15722
X13986Y16652
X14Y16753
X13817Y168493
X14213Y16549
X14279Y164493
X171742Y17111
X17749Y17063
X17847Y17022
X18493Y17008
X18533Y17081
X185345Y164775
X18625Y16565
X18386Y16392
X18244Y16521
X18036Y16394
X18809Y1638
X192304Y163007
X19695Y16363
X19526Y16543
X200454Y16366
X20617
X210398
X20941Y16162
X20879Y16121
X20815Y16074
X205485Y15685
X218617Y15737
X22148Y15794
X220708Y163752
X21946Y16669
X22011Y16735
X22072Y16821
X228977Y15847
X23648Y15899
X18475Y18168
T04
X15091Y155493
Y154493
Y153493
Y152493
Y151493
Y150493
X14492
Y151493
Y152493
Y153493
Y154493
Y155493
Y156493
Y157493
Y158493
Y159493
Y160493
Y161493
Y162493
Y163493
Y164493
Y165493
Y166493
Y167493
Y168493
Y169493
X15091
Y168493
Y167493
Y166493
Y165493
Y164493
Y163493
Y162493
Y161493
Y160493
Y159493
Y158493
Y157493
Y156493
T05
X149238Y137152
X148254
Y142752
X149238
T06
X091859Y131804
X094355Y132804
X095609Y139303
X098105Y140303
X107796Y139304
X10373Y132804
X101234Y131804
X110609
X113105Y132804
X115296Y139304
X117792Y140304
X122796Y139304
X110292Y140304
X125292
X130297Y139304
X132793Y140304
X137797Y139304
X140293Y140304
X13058Y132804
X128084Y131804
X168265Y131804
X170761Y132804
X171676Y139303
X166672Y140303
X164176Y139303
X174172Y140303
X179176Y139303
X181672Y140303
X186676Y139303
X185738Y131804
X188234Y132804
X195113Y131804
X197609Y132804
X196672Y140304
X194176Y139304
X189172Y140303
X208238Y139303
X210734Y140303
X206984Y132804
X204488Y131804
X213863
X216359Y132804
X22418Y131804
X226676Y132804
X23168Y131804
X234176Y132804
Y140304
X23168Y139304
X239174Y131804
X24167Y132804
X241676Y155303
X23918Y154303
X234169Y155304
X231673Y154304
X226676Y155303
X22418Y154303
X215422Y155303
X212926Y154303
X212609Y147803
X210113Y146803
X206047Y155304
X203551Y154304
X19855Y155304
X196054Y154304
X191047Y155303
X188551Y154303
X190426Y146803
X192922Y147803
X197926Y146803
X200422Y147803
X185422
X182926Y146803
X177922Y147803
X175426Y146803
X176047Y155303
X173551Y154303
X181051
X183547Y155303
X168547Y155303
X166051Y154303
X161047Y155304
X158551Y154304
X160426Y146803
X162922Y147803
X167926Y146803
X170422Y147803
X136543
X134047Y146803
X129042Y147803
X126546Y146803
X127168Y155303
X132172Y154304
X134668Y155304
X124672Y154303
X119668Y155303
X117172Y154303
X112168Y155304
X109672Y154304
X111547Y146804
X114043Y147804
X119046Y146803
X121542Y147803
X106542Y147804
X104046Y146804
X09623Y147804
X095293Y155303
X102174Y154304
X10467Y155304
X092797Y154303
X093734Y146804
X093418Y162803
X090922Y161803
X091414Y166303
X09391Y167303
X098422Y161803
X100918Y162803
X105922Y161803
X108418Y162803
X10891Y167303
X106414Y166303
X113914
X11641Y167303
X115918Y162803
X113422Y161803
X120922Y161803
X123418Y162803
X12391Y167304
X121414Y166304
X128914
X13141Y167304
X130918Y162804
X128422Y161804
X135922Y161804
X138418Y162804
X159044Y166304
X16154Y167304
X166544Y166303
X16904Y167303
X169801Y161803
X164795Y162803
X162299Y161803
X172297Y162803
X174044Y166303
X17654Y167303
X18155Y1663
X184046Y1673
X184801Y161803
X187297Y162803
X179797Y162803
X177301Y161803
X192304Y161804
X1948Y162804
X195293Y167303
X192797Y166303
X200297Y166304
X202793Y167304
X202297Y162803
X199801Y161803
X211051
X213547Y162803
X215297Y166304
X217793Y167304
X210293Y167303
X207797Y166303
X224672Y166304
X227168Y167304
X226676Y162803
X22418Y161803
X23168
X234176Y162803
X232172Y166303
X234668Y167303
X239672Y166304
X242168Y167304
X241676Y162803
X23918Y161803
T01
X091355Y130804
X095355
X10073Y130804
X10473
X107292Y138304
X099105Y138303
X095105
X111292Y138304
X114792
X118792
X122292
X114105Y130804
X110105
X12758Y130804
X13158
X129793Y138304
X126292Y138304
X133793Y138304
X137293Y138304
X141293
X163672Y138303
X167672
X171172Y138303
X171761Y130804
X167761
X175172Y138303
X178672Y138303
X182672
X186172Y138303
X185234Y130804
X189234
X194609Y130804
X198609
X197672Y138304
X193672
X190172Y138303
X207734
X211734
X213359Y130804
X217359
X207984
X203984
X223676Y130804
X227676
X231176Y130804
Y138304
X235176
Y130804
X23867Y130804
X24267
X242676Y153303
X238676
X235169Y153304
X231169
X227676Y153303
X223676
X216422
X212422
X207047Y153304
X209609Y145803
X213609
X201422
X197422
X193922
X189922
X188047Y153303
X192047
X19555Y153304
X19955
X203047Y153304
X184547Y153303
X180547
X177047
X173047
X174922Y145803
X178922
X182422Y145803
X186422
X171422
X167422
X163922
X159922
X158047Y153304
X162047
X165547Y153303
X169547
X135668Y153304
X131668
X128168Y153303
X130042Y145803
X133543Y145803
X137543
X126042Y145803
X122542
X118542
X115043Y145804
X111043
X113168Y153304
X116668Y153303
X120668
X124168
X109168Y153304
X10567Y153304
X10167
X096293Y153303
X09723Y145804
X103542Y145804
X107542
X09323Y145804
X092293Y153303
X090418Y160803
X090414Y168303
X094414
X094418Y160803
X097918Y160803
X101918
X105418
X105414Y168303
X109414
X112914
X116914
X120414Y168304
X124414
X124418Y160803
X120418
X116918Y160803
X112918
X109418Y160803
X127918Y160804
X131918
X135418Y160804
X139418
X131914Y168304
X127914
X158044
X162044
X165544Y168303
X169544
X169297Y160803
X165795
X161795
X173297
X176797
X180797
X184297Y160803
X18455Y1683
X18055
X177044Y168303
X173044
X191797Y168303
X195797
X199297Y168304
Y160803
X1958Y160804
X1918
X188297Y160803
X203297Y160803
X210547
X214547
X214297Y168304
X210797Y168303
X206797
X203297Y168304
X218297
X223672
X227672
X231172Y168303
X231176Y160803
X227676
X223676
X235176
X238676
X242676
X242672Y168304
X238672
X235172Y168303
T02
X093355Y130804
X10273Y130804
X097105Y138303
X109292Y138304
X116792
X124292
X112105Y130804
X12958Y130804
X131793Y138304
X139293Y138304
X165672Y138303
X169761Y130804
X173172Y138303
X180672Y138303
X187234Y130804
X188172Y138303
X195672Y138304
X196609Y130804
X205984
X215359
X209734Y138303
X225676Y130804
X233176Y130804
Y138304
X24067Y130804
X240676Y153303
X233169Y153304
X225676Y153303
X214422
X205047Y153304
X211609Y145803
X199422
X191922
X190047Y153303
X19755Y153304
X182547Y153303
X175047
X176922Y145803
X184422Y145803
X169422
X161922
X160047Y153304
X167547Y153303
X133668Y153304
X126168Y153303
X128042Y145803
X135543Y145803
X120542Y145803
X113043Y145804
X111168Y153304
X118668Y153303
X10367Y153304
X105542Y145804
X09523Y145804
X094293Y153303
X092418Y160803
X092414Y168303
X107414
X107418Y160803
X099918
X114918Y160803
X122418Y160803
X122414Y168304
X114914Y168303
X129914Y168304
X129918Y160804
X137418Y160804
X163795Y160803
X171297
X167544Y168303
X160044Y168304
X175044Y168303
X18255Y1683
X186297Y160803
X178797Y160803
X1938Y160804
X201297Y160803
Y168304
X193797Y168303
X208797
X216297Y168304
X212547Y160803
X225676
X233176
X233172Y168303
X225672Y168304
X240672
X240676Y160803
M30
