G04 Layer_Color=65535*
%FSLAX24Y24*%
%MOIN*%
G70*
G01*
G75*
%ADD12C,0.0100*%
%ADD21C,0.0079*%
%ADD22C,0.0118*%
%ADD23C,0.0000*%
%ADD24R,0.2400X0.2050*%
G36*
X146370Y150693D02*
X145720D01*
Y154843D01*
X146370D01*
Y150693D01*
D02*
G37*
%LPC*%
G36*
X146041Y152026D02*
X146037D01*
X146022Y152025D01*
X146008Y152024D01*
X145994Y152021D01*
X145982Y152019D01*
X145969Y152015D01*
X145958Y152011D01*
X145949Y152006D01*
X145940Y152002D01*
X145931Y151998D01*
X145924Y151993D01*
X145918Y151989D01*
X145912Y151986D01*
X145908Y151983D01*
X145906Y151980D01*
X145904Y151979D01*
X145903Y151978D01*
X145894Y151969D01*
X145886Y151959D01*
X145880Y151949D01*
X145874Y151938D01*
X145869Y151927D01*
X145865Y151917D01*
X145862Y151906D01*
X145859Y151897D01*
X145857Y151887D01*
X145855Y151879D01*
X145854Y151871D01*
X145853Y151864D01*
Y151859D01*
X145853Y151854D01*
Y151851D01*
Y151851D01*
X145854Y151829D01*
X145857Y151809D01*
X145860Y151790D01*
X145862Y151783D01*
X145864Y151775D01*
X145866Y151768D01*
X145869Y151763D01*
X145871Y151757D01*
X145872Y151753D01*
X145874Y151750D01*
X145875Y151747D01*
X145876Y151746D01*
Y151745D01*
X145925D01*
X145918Y151763D01*
X145912Y151781D01*
X145907Y151798D01*
X145905Y151813D01*
X145903Y151820D01*
X145903Y151826D01*
X145902Y151832D01*
Y151836D01*
X145901Y151840D01*
Y151843D01*
Y151845D01*
Y151846D01*
X145902Y151856D01*
X145903Y151866D01*
X145905Y151875D01*
X145907Y151884D01*
X145913Y151899D01*
X145916Y151906D01*
X145920Y151912D01*
X145923Y151917D01*
X145927Y151923D01*
X145930Y151927D01*
X145932Y151930D01*
X145935Y151933D01*
X145937Y151935D01*
X145938Y151936D01*
X145938Y151936D01*
X145945Y151942D01*
X145953Y151947D01*
X145962Y151952D01*
X145970Y151956D01*
X145987Y151962D01*
X146003Y151966D01*
X146011Y151968D01*
X146018Y151969D01*
X146024Y151969D01*
X146030Y151970D01*
X146034Y151971D01*
X146040D01*
X146052Y151970D01*
X146064Y151969D01*
X146075Y151967D01*
X146085Y151965D01*
X146094Y151962D01*
X146103Y151959D01*
X146111Y151956D01*
X146119Y151952D01*
X146125Y151949D01*
X146131Y151945D01*
X146136Y151942D01*
X146140Y151940D01*
X146143Y151937D01*
X146145Y151935D01*
X146146Y151934D01*
X146147Y151934D01*
X146154Y151927D01*
X146160Y151919D01*
X146166Y151911D01*
X146170Y151903D01*
X146174Y151895D01*
X146177Y151887D01*
X146182Y151871D01*
X146184Y151864D01*
X146185Y151858D01*
X146186Y151852D01*
X146186Y151847D01*
X146187Y151843D01*
Y151840D01*
Y151838D01*
Y151837D01*
X146186Y151820D01*
X146184Y151803D01*
X146181Y151788D01*
X146177Y151774D01*
X146174Y151768D01*
X146172Y151762D01*
X146171Y151757D01*
X146169Y151753D01*
X146168Y151750D01*
X146166Y151747D01*
X146166Y151746D01*
Y151745D01*
X146219D01*
X146225Y151760D01*
X146229Y151776D01*
X146232Y151791D01*
X146234Y151805D01*
X146234Y151812D01*
X146235Y151818D01*
Y151823D01*
X146236Y151827D01*
Y151831D01*
Y151834D01*
Y151836D01*
Y151836D01*
X146235Y151851D01*
X146233Y151866D01*
X146230Y151880D01*
X146227Y151892D01*
X146223Y151905D01*
X146218Y151916D01*
X146213Y151926D01*
X146208Y151936D01*
X146203Y151944D01*
X146198Y151951D01*
X146194Y151958D01*
X146189Y151963D01*
X146186Y151967D01*
X146183Y151970D01*
X146181Y151972D01*
X146181Y151973D01*
X146170Y151982D01*
X146159Y151990D01*
X146147Y151997D01*
X146135Y152003D01*
X146123Y152008D01*
X146111Y152013D01*
X146100Y152016D01*
X146089Y152019D01*
X146078Y152021D01*
X146068Y152023D01*
X146059Y152024D01*
X146052Y152025D01*
X146046D01*
X146041Y152026D01*
D02*
G37*
G36*
X146179Y152276D02*
X146128D01*
X146129Y152270D01*
X146131Y152264D01*
X146132Y152258D01*
X146133Y152254D01*
X146135Y152250D01*
X146136Y152247D01*
X146137Y152245D01*
Y152245D01*
X146140Y152236D01*
X146144Y152227D01*
X146146Y152225D01*
X146147Y152222D01*
X146148Y152221D01*
Y152220D01*
X146153Y152212D01*
X146157Y152205D01*
X146159Y152202D01*
X146159Y152200D01*
X146160Y152199D01*
Y152199D01*
X146163Y152195D01*
X146165Y152194D01*
X146166Y152193D01*
X146171D01*
X146170Y152192D01*
X146168D01*
X146166Y152193D01*
X145859D01*
Y152140D01*
X146238D01*
Y152164D01*
X146231Y152172D01*
X146225Y152180D01*
X146223Y152183D01*
X146221Y152186D01*
X146221Y152187D01*
X146220Y152188D01*
X146214Y152197D01*
X146209Y152206D01*
X146207Y152210D01*
X146205Y152213D01*
X146205Y152215D01*
X146204Y152216D01*
X146199Y152226D01*
X146196Y152231D01*
X146194Y152236D01*
X146192Y152240D01*
X146191Y152243D01*
X146190Y152245D01*
Y152245D01*
X146185Y152256D01*
X146183Y152262D01*
X146182Y152267D01*
X146181Y152271D01*
X146179Y152274D01*
X146179Y152276D01*
Y152276D01*
D02*
G37*
G36*
X145859Y152570D02*
Y152514D01*
X145944Y152461D01*
X145950Y152458D01*
X145954Y152455D01*
X145957Y152453D01*
X145954Y152452D01*
X145949Y152449D01*
X145945Y152447D01*
X145945Y152446D01*
X145944D01*
X145859Y152394D01*
Y152337D01*
X145991Y152422D01*
X146127Y152335D01*
Y152390D01*
X146023Y152452D01*
X146024Y152452D01*
X146030Y152455D01*
X146034Y152457D01*
X146035Y152459D01*
X146035D01*
X146127Y152510D01*
Y152567D01*
X145990Y152483D01*
X145859Y152570D01*
D02*
G37*
G36*
X146030Y151091D02*
X146022D01*
X146008Y151090D01*
X145995Y151089D01*
X145983Y151088D01*
X145973Y151087D01*
X145963Y151085D01*
X145957Y151084D01*
X145955Y151083D01*
X145953Y151083D01*
X145952D01*
X145941Y151080D01*
X145930Y151076D01*
X145921Y151072D01*
X145914Y151068D01*
X145907Y151065D01*
X145902Y151062D01*
X145899Y151060D01*
X145898Y151060D01*
X145890Y151054D01*
X145884Y151047D01*
X145878Y151041D01*
X145873Y151034D01*
X145870Y151029D01*
X145866Y151025D01*
X145865Y151023D01*
X145864Y151021D01*
X145860Y151013D01*
X145858Y151004D01*
X145855Y150995D01*
X145854Y150987D01*
X145853Y150980D01*
X145853Y150975D01*
Y150971D01*
Y150970D01*
X145853Y150960D01*
X145854Y150952D01*
X145855Y150944D01*
X145857Y150936D01*
X145859Y150931D01*
X145860Y150926D01*
X145861Y150923D01*
X145862Y150922D01*
X145866Y150914D01*
X145870Y150907D01*
X145874Y150901D01*
X145878Y150895D01*
X145882Y150890D01*
X145885Y150887D01*
X145887Y150885D01*
X145888Y150885D01*
X145894Y150879D01*
X145901Y150874D01*
X145908Y150870D01*
X145914Y150866D01*
X145920Y150863D01*
X145924Y150861D01*
X145927Y150860D01*
X145928Y150859D01*
X145937Y150856D01*
X145945Y150854D01*
X145954Y150852D01*
X145962Y150852D01*
X145968Y150851D01*
X145973Y150850D01*
X145987D01*
X145996Y150852D01*
X146004Y150853D01*
X146011Y150854D01*
X146017Y150855D01*
X146021Y150857D01*
X146024Y150857D01*
X146024Y150858D01*
X146032Y150861D01*
X146039Y150864D01*
X146046Y150868D01*
X146051Y150872D01*
X146056Y150875D01*
X146059Y150877D01*
X146061Y150879D01*
X146061Y150880D01*
X146067Y150886D01*
X146072Y150892D01*
X146076Y150898D01*
X146080Y150903D01*
X146082Y150908D01*
X146084Y150912D01*
X146085Y150914D01*
X146085Y150915D01*
X146089Y150923D01*
X146091Y150931D01*
X146092Y150938D01*
X146093Y150945D01*
X146094Y150951D01*
X146094Y150956D01*
Y150958D01*
Y150960D01*
X146094Y150971D01*
X146092Y150981D01*
X146091Y150990D01*
X146087Y150999D01*
X146084Y151006D01*
X146080Y151014D01*
X146076Y151020D01*
X146072Y151026D01*
X146068Y151030D01*
X146063Y151035D01*
X146061Y151037D01*
X146070Y151036D01*
X146080Y151035D01*
X146088Y151034D01*
X146094Y151032D01*
X146100Y151032D01*
X146103Y151030D01*
X146105D01*
X146114Y151027D01*
X146124Y151024D01*
X146131Y151021D01*
X146138Y151017D01*
X146144Y151015D01*
X146148Y151012D01*
X146150Y151011D01*
X146151Y151010D01*
X146157Y151005D01*
X146163Y150999D01*
X146168Y150994D01*
X146172Y150990D01*
X146175Y150985D01*
X146178Y150982D01*
X146179Y150979D01*
X146180Y150979D01*
X146183Y150971D01*
X146186Y150964D01*
X146188Y150958D01*
X146189Y150951D01*
X146190Y150946D01*
X146190Y150942D01*
Y150939D01*
Y150938D01*
X146190Y150926D01*
X146188Y150915D01*
X146186Y150904D01*
X146183Y150894D01*
X146181Y150885D01*
X146178Y150879D01*
X146177Y150876D01*
X146177Y150874D01*
X146176Y150874D01*
Y150873D01*
X146223D01*
X146227Y150883D01*
X146230Y150894D01*
X146232Y150905D01*
X146234Y150916D01*
X146235Y150925D01*
X146236Y150932D01*
Y150934D01*
Y150936D01*
Y150938D01*
Y150938D01*
X146235Y150951D01*
X146233Y150963D01*
X146230Y150974D01*
X146228Y150983D01*
X146225Y150991D01*
X146223Y150997D01*
X146221Y151001D01*
X146220Y151001D01*
Y151002D01*
X146214Y151012D01*
X146207Y151021D01*
X146199Y151029D01*
X146192Y151036D01*
X146186Y151042D01*
X146181Y151046D01*
X146177Y151049D01*
X146177Y151050D01*
X146176D01*
X146165Y151057D01*
X146154Y151063D01*
X146142Y151068D01*
X146132Y151072D01*
X146123Y151076D01*
X146115Y151078D01*
X146113Y151079D01*
X146111Y151080D01*
X146109Y151080D01*
X146109D01*
X146094Y151083D01*
X146079Y151086D01*
X146065Y151088D01*
X146051Y151089D01*
X146039Y151090D01*
X146035D01*
X146030Y151091D01*
D02*
G37*
G36*
X146230Y151438D02*
X146004D01*
X145990Y151437D01*
X145977Y151437D01*
X145965Y151435D01*
X145954Y151432D01*
X145943Y151429D01*
X145934Y151425D01*
X145925Y151421D01*
X145916Y151417D01*
X145909Y151411D01*
X145902Y151406D01*
X145890Y151395D01*
X145879Y151382D01*
X145871Y151369D01*
X145866Y151357D01*
X145860Y151345D01*
X145857Y151333D01*
X145855Y151323D01*
X145854Y151314D01*
X145853Y151307D01*
Y151304D01*
Y151303D01*
Y151302D01*
Y151301D01*
X145853Y151288D01*
X145855Y151276D01*
X145857Y151264D01*
X145859Y151254D01*
X145863Y151244D01*
X145867Y151235D01*
X145872Y151226D01*
X145877Y151218D01*
X145889Y151205D01*
X145903Y151193D01*
X145916Y151183D01*
X145931Y151176D01*
X145946Y151170D01*
X145960Y151166D01*
X145973Y151163D01*
X145985Y151160D01*
X145995Y151159D01*
X145999D01*
X146003Y151158D01*
X146230D01*
Y151211D01*
X146003D01*
X145985Y151212D01*
X145969Y151215D01*
X145956Y151219D01*
X145944Y151225D01*
X145934Y151231D01*
X145926Y151238D01*
X145919Y151246D01*
X145914Y151254D01*
X145910Y151262D01*
X145906Y151269D01*
X145905Y151277D01*
X145903Y151283D01*
X145902Y151289D01*
X145901Y151293D01*
Y151295D01*
Y151297D01*
X145903Y151312D01*
X145906Y151326D01*
X145911Y151338D01*
X145918Y151348D01*
X145926Y151356D01*
X145935Y151363D01*
X145944Y151369D01*
X145954Y151374D01*
X145964Y151378D01*
X145973Y151380D01*
X145982Y151382D01*
X145991Y151384D01*
X145997Y151384D01*
X146002Y151385D01*
X146230D01*
Y151438D01*
D02*
G37*
G36*
X145859Y151717D02*
Y151661D01*
X145944Y151608D01*
X145950Y151604D01*
X145954Y151602D01*
X145957Y151600D01*
X145954Y151599D01*
X145949Y151595D01*
X145945Y151593D01*
X145945Y151593D01*
X145944D01*
X145859Y151540D01*
Y151483D01*
X145991Y151569D01*
X146127Y151482D01*
Y151536D01*
X146023Y151598D01*
X146024Y151599D01*
X146030Y151602D01*
X146034Y151604D01*
X146035Y151605D01*
X146035D01*
X146127Y151656D01*
Y151713D01*
X145990Y151629D01*
X145859Y151717D01*
D02*
G37*
G36*
X145986Y152858D02*
X145943D01*
Y152688D01*
X145859D01*
Y152635D01*
X145943D01*
Y152589D01*
X145991D01*
Y152635D01*
X146230D01*
Y152690D01*
X146218Y152695D01*
X146207Y152701D01*
X146196Y152706D01*
X146186Y152711D01*
X146179Y152716D01*
X146172Y152719D01*
X146168Y152722D01*
X146168Y152722D01*
X146167D01*
X146155Y152729D01*
X146144Y152737D01*
X146134Y152744D01*
X146125Y152750D01*
X146117Y152755D01*
X146111Y152759D01*
X146107Y152762D01*
X146106Y152763D01*
X146105D01*
X146094Y152771D01*
X146083Y152779D01*
X146072Y152787D01*
X146063Y152794D01*
X146055Y152800D01*
X146049Y152805D01*
X146045Y152808D01*
X146045Y152809D01*
X146044D01*
X146033Y152818D01*
X146022Y152827D01*
X146012Y152835D01*
X146003Y152843D01*
X145996Y152849D01*
X145990Y152854D01*
X145987Y152856D01*
X145986Y152858D01*
D02*
G37*
G36*
X146230Y154113D02*
X145859D01*
Y154060D01*
X146129D01*
X146135Y154060D01*
X145859Y153937D01*
Y153909D01*
X146136Y153787D01*
X146139Y153785D01*
X146134Y153786D01*
X146125D01*
X146116Y153786D01*
X145859D01*
Y153733D01*
X146230D01*
Y153795D01*
X145976Y153909D01*
X145970Y153912D01*
X145963Y153915D01*
X145956Y153918D01*
X145949Y153920D01*
X145944Y153923D01*
X145945Y153923D01*
X145958Y153928D01*
X145965Y153931D01*
X145970Y153933D01*
X145973Y153935D01*
X145975Y153935D01*
X146230Y154047D01*
Y154113D01*
D02*
G37*
G36*
Y154426D02*
X146181D01*
Y154322D01*
X145859D01*
Y154269D01*
X146181D01*
Y154165D01*
X146230D01*
Y154426D01*
D02*
G37*
G36*
X145934Y154686D02*
X145875D01*
X145871Y154678D01*
X145868Y154671D01*
X145866Y154668D01*
X145865Y154666D01*
X145864Y154665D01*
Y154664D01*
X145862Y154655D01*
X145860Y154647D01*
X145859Y154644D01*
Y154641D01*
X145859Y154639D01*
Y154638D01*
X145857Y154629D01*
X145856Y154620D01*
X145855Y154617D01*
X145855Y154614D01*
Y154613D01*
Y154613D01*
X145853Y154603D01*
X145853Y154596D01*
Y154594D01*
Y154592D01*
Y154591D01*
Y154590D01*
Y154581D01*
X145853Y154572D01*
X145855Y154563D01*
X145855Y154555D01*
X145857Y154550D01*
X145857Y154544D01*
X145858Y154542D01*
Y154541D01*
X145860Y154532D01*
X145863Y154524D01*
X145866Y154517D01*
X145869Y154510D01*
X145871Y154505D01*
X145873Y154501D01*
X145875Y154498D01*
X145875Y154498D01*
X145881Y154491D01*
X145886Y154486D01*
X145891Y154480D01*
X145896Y154476D01*
X145901Y154473D01*
X145904Y154470D01*
X145906Y154469D01*
X145907Y154468D01*
X145915Y154464D01*
X145923Y154462D01*
X145930Y154459D01*
X145938Y154458D01*
X145945Y154457D01*
X145950Y154456D01*
X145954D01*
X145962Y154457D01*
X145969Y154458D01*
X145976Y154459D01*
X145981Y154460D01*
X145986Y154462D01*
X145989Y154463D01*
X145991Y154464D01*
X145992Y154465D01*
X146004Y154471D01*
X146009Y154475D01*
X146013Y154478D01*
X146017Y154482D01*
X146020Y154484D01*
X146021Y154486D01*
X146022Y154487D01*
X146032Y154497D01*
X146039Y154508D01*
X146043Y154512D01*
X146045Y154515D01*
X146046Y154518D01*
X146046Y154519D01*
X146054Y154532D01*
X146057Y154538D01*
X146061Y154544D01*
X146063Y154548D01*
X146065Y154552D01*
X146066Y154555D01*
X146067Y154555D01*
X146073Y154568D01*
X146076Y154574D01*
X146078Y154578D01*
X146080Y154583D01*
X146082Y154585D01*
X146083Y154587D01*
X146083Y154588D01*
X146089Y154598D01*
X146092Y154601D01*
X146094Y154605D01*
X146096Y154608D01*
X146098Y154610D01*
X146098Y154611D01*
X146099Y154612D01*
X146105Y154618D01*
X146111Y154622D01*
X146114Y154625D01*
X146115Y154625D01*
X146116D01*
X146123Y154628D01*
X146130Y154629D01*
X146133Y154630D01*
X146138D01*
X146147Y154629D01*
X146154Y154627D01*
X146157Y154626D01*
X146159Y154625D01*
X146159Y154624D01*
X146160D01*
X146166Y154619D01*
X146172Y154614D01*
X146174Y154610D01*
X146175Y154609D01*
Y154609D01*
X146179Y154601D01*
X146182Y154594D01*
X146183Y154590D01*
X146183Y154588D01*
X146184Y154587D01*
Y154586D01*
X146186Y154576D01*
X146186Y154568D01*
X146187Y154564D01*
Y154561D01*
Y154560D01*
Y154559D01*
X146186Y154542D01*
X146184Y154525D01*
X146180Y154510D01*
X146176Y154497D01*
X146174Y154491D01*
X146172Y154486D01*
X146170Y154482D01*
X146168Y154478D01*
X146167Y154475D01*
X146166Y154473D01*
X146165Y154472D01*
Y154471D01*
X146220D01*
X146225Y154483D01*
X146229Y154497D01*
X146232Y154511D01*
X146234Y154524D01*
X146235Y154536D01*
Y154541D01*
X146236Y154546D01*
Y154550D01*
Y154552D01*
Y154554D01*
Y154555D01*
X146234Y154572D01*
X146234Y154580D01*
X146232Y154587D01*
X146231Y154594D01*
X146230Y154598D01*
X146229Y154601D01*
Y154602D01*
X146227Y154611D01*
X146224Y154618D01*
X146221Y154625D01*
X146218Y154632D01*
X146216Y154637D01*
X146213Y154641D01*
X146212Y154644D01*
X146211Y154644D01*
X146206Y154651D01*
X146201Y154657D01*
X146195Y154662D01*
X146190Y154666D01*
X146186Y154670D01*
X146183Y154672D01*
X146180Y154673D01*
X146179Y154674D01*
X146172Y154678D01*
X146164Y154681D01*
X146157Y154683D01*
X146149Y154684D01*
X146143Y154684D01*
X146138Y154685D01*
X146134D01*
X146126Y154684D01*
X146119Y154684D01*
X146113Y154683D01*
X146107Y154681D01*
X146103Y154680D01*
X146099Y154679D01*
X146097Y154678D01*
X146096D01*
X146085Y154672D01*
X146081Y154669D01*
X146077Y154666D01*
X146073Y154663D01*
X146070Y154660D01*
X146069Y154659D01*
X146068Y154659D01*
X146060Y154648D01*
X146052Y154638D01*
X146050Y154635D01*
X146048Y154631D01*
X146046Y154629D01*
X146046Y154629D01*
X146039Y154616D01*
X146035Y154610D01*
X146032Y154604D01*
X146030Y154600D01*
X146028Y154596D01*
X146027Y154594D01*
X146026Y154593D01*
X146023Y154586D01*
X146019Y154579D01*
X146017Y154574D01*
X146014Y154569D01*
X146012Y154565D01*
X146010Y154562D01*
X146010Y154560D01*
X146009Y154559D01*
X146003Y154550D01*
X146000Y154545D01*
X145998Y154542D01*
X145996Y154539D01*
X145994Y154537D01*
X145993Y154535D01*
X145993Y154535D01*
X145986Y154528D01*
X145980Y154522D01*
X145978Y154521D01*
X145976Y154519D01*
X145975Y154518D01*
X145975D01*
X145967Y154514D01*
X145960Y154512D01*
X145956Y154511D01*
X145952D01*
X145943Y154512D01*
X145936Y154514D01*
X145929Y154517D01*
X145924Y154521D01*
X145919Y154524D01*
X145917Y154527D01*
X145915Y154529D01*
X145914Y154530D01*
X145910Y154537D01*
X145906Y154545D01*
X145905Y154554D01*
X145903Y154563D01*
X145902Y154572D01*
X145901Y154578D01*
Y154581D01*
Y154582D01*
Y154583D01*
Y154584D01*
X145902Y154592D01*
X145903Y154600D01*
Y154603D01*
X145903Y154606D01*
Y154607D01*
Y154608D01*
X145905Y154617D01*
X145907Y154625D01*
X145908Y154629D01*
X145908Y154631D01*
X145909Y154633D01*
Y154633D01*
X145912Y154642D01*
X145916Y154650D01*
X145917Y154653D01*
X145918Y154656D01*
X145919Y154657D01*
Y154658D01*
X145923Y154667D01*
X145929Y154676D01*
X145930Y154680D01*
X145932Y154683D01*
X145933Y154685D01*
X145934Y154686D01*
D02*
G37*
G36*
X145927Y153656D02*
X145874D01*
X145867Y153642D01*
X145862Y153628D01*
X145858Y153614D01*
X145855Y153600D01*
X145854Y153588D01*
X145853Y153583D01*
Y153578D01*
X145853Y153574D01*
Y153572D01*
Y153570D01*
Y153569D01*
X145853Y153559D01*
X145854Y153548D01*
X145855Y153539D01*
X145857Y153532D01*
X145858Y153525D01*
X145859Y153520D01*
X145860Y153517D01*
Y153516D01*
X145864Y153507D01*
X145868Y153499D01*
X145871Y153492D01*
X145875Y153486D01*
X145879Y153481D01*
X145881Y153477D01*
X145883Y153475D01*
X145884Y153474D01*
X145890Y153468D01*
X145895Y153462D01*
X145902Y153457D01*
X145907Y153453D01*
X145912Y153450D01*
X145916Y153448D01*
X145919Y153447D01*
X145919Y153446D01*
X145927Y153443D01*
X145936Y153440D01*
X145943Y153439D01*
X145951Y153438D01*
X145957Y153437D01*
X145962Y153436D01*
X145973D01*
X145980Y153438D01*
X145986Y153438D01*
X145990Y153440D01*
X145995Y153441D01*
X145998Y153442D01*
X146000Y153443D01*
X146000Y153444D01*
X146011Y153449D01*
X146017Y153453D01*
X146021Y153456D01*
X146024Y153458D01*
X146026Y153461D01*
X146028Y153462D01*
X146028Y153463D01*
X146036Y153472D01*
X146042Y153482D01*
X146045Y153486D01*
X146046Y153489D01*
X146047Y153491D01*
Y153491D01*
X146052Y153503D01*
X146054Y153508D01*
X146054Y153509D01*
X146059Y153498D01*
X146065Y153488D01*
X146072Y153480D01*
X146080Y153473D01*
X146088Y153467D01*
X146096Y153462D01*
X146104Y153458D01*
X146112Y153455D01*
X146120Y153453D01*
X146126Y153451D01*
X146132Y153451D01*
X146137Y153450D01*
X146141Y153449D01*
X146151D01*
X146159Y153451D01*
X146165Y153452D01*
X146170Y153453D01*
X146175Y153455D01*
X146178Y153456D01*
X146181Y153456D01*
X146181Y153457D01*
X146193Y153464D01*
X146197Y153468D01*
X146202Y153471D01*
X146205Y153474D01*
X146208Y153477D01*
X146209Y153479D01*
X146210Y153479D01*
X146218Y153490D01*
X146224Y153501D01*
X146226Y153505D01*
X146227Y153509D01*
X146229Y153512D01*
Y153512D01*
X146231Y153519D01*
X146232Y153527D01*
X146234Y153534D01*
X146235Y153541D01*
Y153547D01*
X146236Y153552D01*
Y153554D01*
Y153556D01*
X146234Y153573D01*
X146232Y153590D01*
X146229Y153604D01*
X146224Y153617D01*
X146222Y153623D01*
X146219Y153628D01*
X146218Y153632D01*
X146216Y153636D01*
X146214Y153639D01*
X146214Y153641D01*
X146212Y153642D01*
Y153642D01*
X146164D01*
X146173Y153628D01*
X146179Y153613D01*
X146184Y153600D01*
X146187Y153589D01*
X146189Y153579D01*
X146190Y153575D01*
Y153572D01*
X146190Y153569D01*
Y153567D01*
Y153566D01*
Y153565D01*
X146190Y153554D01*
X146188Y153545D01*
X146185Y153536D01*
X146181Y153529D01*
X146177Y153523D01*
X146173Y153518D01*
X146168Y153513D01*
X146162Y153510D01*
X146157Y153508D01*
X146152Y153506D01*
X146147Y153504D01*
X146143Y153503D01*
X146139D01*
X146137Y153502D01*
X146134D01*
X146123Y153503D01*
X146114Y153506D01*
X146105Y153510D01*
X146099Y153515D01*
X146093Y153522D01*
X146088Y153529D01*
X146084Y153537D01*
X146081Y153545D01*
X146078Y153552D01*
X146076Y153560D01*
X146075Y153567D01*
X146074Y153574D01*
X146074Y153579D01*
X146073Y153583D01*
Y153586D01*
Y153587D01*
Y153620D01*
X146028D01*
Y153585D01*
X146027Y153569D01*
X146025Y153554D01*
X146022Y153541D01*
X146017Y153530D01*
X146013Y153521D01*
X146007Y153513D01*
X146001Y153506D01*
X145995Y153501D01*
X145989Y153497D01*
X145983Y153495D01*
X145977Y153492D01*
X145973Y153491D01*
X145968Y153490D01*
X145965Y153490D01*
X145962D01*
X145952Y153490D01*
X145947Y153491D01*
X145943Y153492D01*
X145940Y153493D01*
X145937Y153495D01*
X145936Y153495D01*
X145935D01*
X145927Y153500D01*
X145921Y153505D01*
X145918Y153507D01*
X145916Y153509D01*
X145916Y153510D01*
X145915Y153511D01*
X145909Y153519D01*
X145905Y153527D01*
X145904Y153530D01*
X145903Y153533D01*
X145902Y153535D01*
Y153536D01*
X145900Y153547D01*
X145899Y153552D01*
Y153557D01*
X145898Y153561D01*
Y153565D01*
Y153567D01*
Y153568D01*
X145899Y153576D01*
X145899Y153585D01*
X145903Y153600D01*
X145907Y153615D01*
X145912Y153629D01*
X145918Y153640D01*
X145920Y153644D01*
X145922Y153648D01*
X145924Y153652D01*
X145925Y153654D01*
X145927Y153655D01*
Y153656D01*
D02*
G37*
G36*
X146230Y153071D02*
X145859D01*
Y153018D01*
X146018D01*
Y152887D01*
X146067D01*
Y153018D01*
X146181D01*
Y152877D01*
X146230D01*
Y153071D01*
D02*
G37*
G36*
X145890Y153375D02*
X145859D01*
Y153142D01*
X145906D01*
Y153322D01*
X145913Y153321D01*
X145919Y153320D01*
X145921D01*
X145923Y153319D01*
X145925Y153318D01*
X145925D01*
X145933Y153315D01*
X145940Y153311D01*
X145942Y153309D01*
X145944Y153307D01*
X145945Y153306D01*
X145946Y153306D01*
X145950Y153302D01*
X145954Y153298D01*
X145962Y153289D01*
X145965Y153286D01*
X145967Y153283D01*
X145969Y153281D01*
X145969Y153280D01*
X145975Y153274D01*
X145980Y153267D01*
X145985Y153259D01*
X145989Y153253D01*
X145993Y153247D01*
X145997Y153243D01*
X145999Y153240D01*
X146000Y153239D01*
X146005Y153231D01*
X146010Y153224D01*
X146015Y153218D01*
X146019Y153213D01*
X146023Y153208D01*
X146026Y153205D01*
X146028Y153203D01*
X146028Y153202D01*
X146034Y153197D01*
X146039Y153191D01*
X146045Y153187D01*
X146050Y153183D01*
X146054Y153180D01*
X146057Y153178D01*
X146059Y153177D01*
X146059Y153176D01*
X146072Y153169D01*
X146077Y153166D01*
X146082Y153164D01*
X146087Y153162D01*
X146090Y153161D01*
X146092Y153160D01*
X146093D01*
X146107Y153157D01*
X146114Y153156D01*
X146120Y153156D01*
X146125Y153155D01*
X146133D01*
X146142Y153156D01*
X146150Y153156D01*
X146157Y153158D01*
X146164Y153159D01*
X146169Y153161D01*
X146173Y153162D01*
X146175Y153163D01*
X146176Y153164D01*
X146183Y153167D01*
X146190Y153171D01*
X146195Y153175D01*
X146199Y153178D01*
X146203Y153182D01*
X146206Y153184D01*
X146208Y153186D01*
X146208Y153187D01*
X146213Y153193D01*
X146218Y153199D01*
X146221Y153204D01*
X146223Y153210D01*
X146226Y153215D01*
X146227Y153219D01*
X146229Y153221D01*
Y153222D01*
X146231Y153230D01*
X146232Y153237D01*
X146234Y153244D01*
X146235Y153251D01*
Y153256D01*
X146236Y153261D01*
Y153263D01*
Y153265D01*
X146235Y153276D01*
X146234Y153287D01*
X146232Y153296D01*
X146231Y153304D01*
X146229Y153311D01*
X146227Y153316D01*
X146227Y153318D01*
X146226Y153320D01*
X146222Y153328D01*
X146218Y153335D01*
X146213Y153342D01*
X146208Y153349D01*
X146204Y153354D01*
X146201Y153359D01*
X146198Y153361D01*
X146197Y153362D01*
X146146D01*
X146150Y153355D01*
X146154Y153350D01*
X146157Y153345D01*
X146160Y153341D01*
X146162Y153338D01*
X146164Y153336D01*
X146164Y153335D01*
X146165Y153334D01*
X146170Y153326D01*
X146175Y153320D01*
X146176Y153317D01*
X146177Y153315D01*
X146178Y153314D01*
Y153313D01*
X146182Y153306D01*
X146184Y153298D01*
X146186Y153296D01*
X146186Y153294D01*
X146187Y153293D01*
Y153292D01*
X146189Y153283D01*
X146190Y153277D01*
X146190Y153274D01*
Y153272D01*
Y153271D01*
Y153270D01*
X146190Y153261D01*
X146188Y153253D01*
X146188Y153250D01*
X146187Y153248D01*
X146186Y153247D01*
Y153246D01*
X146183Y153238D01*
X146179Y153232D01*
X146176Y153228D01*
X146175Y153227D01*
X146175Y153226D01*
X146169Y153221D01*
X146162Y153217D01*
X146160Y153215D01*
X146158Y153214D01*
X146157Y153213D01*
X146156D01*
X146148Y153210D01*
X146139Y153209D01*
X146135Y153208D01*
X146130D01*
X146120Y153209D01*
X146115Y153210D01*
X146111D01*
X146107Y153210D01*
X146105Y153211D01*
X146103Y153212D01*
X146103D01*
X146094Y153215D01*
X146086Y153219D01*
X146083Y153221D01*
X146080Y153222D01*
X146079Y153223D01*
X146078Y153223D01*
X146069Y153230D01*
X146061Y153236D01*
X146058Y153239D01*
X146056Y153241D01*
X146054Y153243D01*
X146054Y153243D01*
X146045Y153252D01*
X146036Y153261D01*
X146033Y153265D01*
X146030Y153267D01*
X146029Y153269D01*
X146028Y153270D01*
X146021Y153282D01*
X146013Y153292D01*
X146007Y153301D01*
X146002Y153309D01*
X145997Y153315D01*
X145993Y153318D01*
X145991Y153322D01*
X145991Y153322D01*
X145985Y153329D01*
X145979Y153335D01*
X145974Y153340D01*
X145969Y153345D01*
X145965Y153348D01*
X145961Y153351D01*
X145959Y153353D01*
X145958Y153353D01*
X145946Y153361D01*
X145940Y153364D01*
X145935Y153366D01*
X145930Y153368D01*
X145927Y153369D01*
X145924Y153370D01*
X145923D01*
X145909Y153374D01*
X145902Y153374D01*
X145895Y153375D01*
X145890Y153375D01*
D02*
G37*
%LPD*%
G36*
X145991Y151035D02*
X146000Y151033D01*
X146003Y151032D01*
X146006Y151031D01*
X146007Y151030D01*
X146008D01*
X146016Y151026D01*
X146023Y151021D01*
X146026Y151020D01*
X146028Y151018D01*
X146028Y151017D01*
X146029Y151017D01*
X146035Y151010D01*
X146039Y151003D01*
X146041Y151000D01*
X146043Y150997D01*
X146043Y150996D01*
Y150995D01*
X146046Y150986D01*
X146048Y150978D01*
X146049Y150975D01*
Y150972D01*
Y150970D01*
Y150969D01*
X146048Y150958D01*
X146047Y150954D01*
X146046Y150949D01*
X146045Y150946D01*
X146044Y150944D01*
X146043Y150942D01*
Y150942D01*
X146039Y150933D01*
X146034Y150927D01*
X146032Y150924D01*
X146030Y150922D01*
X146029Y150921D01*
X146028Y150921D01*
X146021Y150915D01*
X146013Y150911D01*
X146010Y150910D01*
X146007Y150909D01*
X146005Y150908D01*
X146004D01*
X145994Y150905D01*
X145984Y150904D01*
X145979Y150903D01*
X145973D01*
X145961Y150904D01*
X145955Y150905D01*
X145951Y150906D01*
X145947Y150907D01*
X145944Y150908D01*
X145942Y150909D01*
X145941D01*
X145932Y150912D01*
X145925Y150917D01*
X145922Y150918D01*
X145920Y150920D01*
X145919Y150921D01*
X145918Y150921D01*
X145912Y150928D01*
X145907Y150935D01*
X145905Y150938D01*
X145905Y150940D01*
X145903Y150942D01*
Y150942D01*
X145900Y150951D01*
X145899Y150960D01*
X145898Y150963D01*
Y150966D01*
Y150968D01*
Y150968D01*
X145899Y150979D01*
X145900Y150983D01*
X145901Y150988D01*
X145902Y150991D01*
X145903Y150993D01*
X145904Y150995D01*
Y150995D01*
X145909Y151004D01*
X145915Y151010D01*
X145918Y151013D01*
X145919Y151014D01*
X145921Y151015D01*
X145921Y151016D01*
X145930Y151022D01*
X145939Y151026D01*
X145943Y151028D01*
X145945Y151029D01*
X145947Y151030D01*
X145948D01*
X145960Y151034D01*
X145965Y151034D01*
X145971Y151035D01*
X145975Y151036D01*
X145982D01*
X145991Y151035D01*
D02*
G37*
G36*
X145994Y152796D02*
X145998Y152792D01*
X146006Y152785D01*
X146009Y152781D01*
X146012Y152779D01*
X146014Y152777D01*
X146015Y152776D01*
X146028Y152765D01*
X146035Y152761D01*
X146041Y152756D01*
X146046Y152752D01*
X146050Y152749D01*
X146053Y152747D01*
X146054Y152746D01*
X146070Y152735D01*
X146078Y152729D01*
X146085Y152724D01*
X146092Y152720D01*
X146096Y152716D01*
X146100Y152715D01*
X146101Y152714D01*
X146111Y152708D01*
X146121Y152703D01*
X146131Y152698D01*
X146139Y152694D01*
X146146Y152692D01*
X146152Y152690D01*
X146156Y152689D01*
X146157Y152688D01*
X145991D01*
Y152801D01*
X145994Y152796D01*
D02*
G37*
D12*
X149927Y142752D02*
G03*
X149927Y142752I-1181J0D01*
G01*
Y137152D02*
G03*
X149927Y137152I-1181J0D01*
G01*
X142214Y171178D02*
X154025D01*
Y173943D01*
X142214D02*
X154025D01*
X142214Y171178D02*
Y173943D01*
X181193Y171178D02*
X193004D01*
Y173943D01*
X181193D02*
X193004D01*
X181193Y171178D02*
Y173943D01*
X223780Y159620D02*
X223680Y159720D01*
X223480D01*
X223380Y159620D01*
Y159520D01*
X223480Y159420D01*
X223680D01*
X223780Y159320D01*
Y159220D01*
X223680Y159120D01*
X223480D01*
X223380Y159220D01*
X223980Y159720D02*
X224380D01*
Y159620D01*
X223980Y159220D01*
Y159120D01*
X224580Y159720D02*
X224979D01*
Y159620D01*
X224580Y159220D01*
Y159120D01*
X231280Y159620D02*
X231180Y159720D01*
X230980D01*
X230880Y159620D01*
Y159520D01*
X230980Y159420D01*
X231180D01*
X231280Y159320D01*
Y159220D01*
X231180Y159120D01*
X230980D01*
X230880Y159220D01*
X231480Y159620D02*
X231580Y159720D01*
X231780D01*
X231880Y159620D01*
Y159520D01*
X231780Y159420D01*
X231880Y159320D01*
Y159220D01*
X231780Y159120D01*
X231580D01*
X231480Y159220D01*
Y159320D01*
X231580Y159420D01*
X231480Y159520D01*
Y159620D01*
X231580Y159420D02*
X231780D01*
X232080Y159120D02*
X232280D01*
X232180D01*
Y159720D01*
X232080Y159620D01*
X238780D02*
X238680Y159720D01*
X238480D01*
X238380Y159620D01*
Y159520D01*
X238480Y159420D01*
X238680D01*
X238780Y159320D01*
Y159220D01*
X238680Y159120D01*
X238480D01*
X238380Y159220D01*
X238980Y159620D02*
X239080Y159720D01*
X239280D01*
X239380Y159620D01*
Y159520D01*
X239280Y159420D01*
X239380Y159320D01*
Y159220D01*
X239280Y159120D01*
X239080D01*
X238980Y159220D01*
Y159320D01*
X239080Y159420D01*
X238980Y159520D01*
Y159620D01*
X239080Y159420D02*
X239280D01*
X239979Y159720D02*
X239780Y159620D01*
X239580Y159420D01*
Y159220D01*
X239680Y159120D01*
X239880D01*
X239979Y159220D01*
Y159320D01*
X239880Y159420D01*
X239580D01*
X223780Y152120D02*
X223680Y152220D01*
X223480D01*
X223380Y152120D01*
Y152020D01*
X223480Y151920D01*
X223680D01*
X223780Y151820D01*
Y151720D01*
X223680Y151620D01*
X223480D01*
X223380Y151720D01*
X223980Y152220D02*
X224380D01*
Y152120D01*
X223980Y151720D01*
Y151620D01*
X224580Y152120D02*
X224680Y152220D01*
X224880D01*
X224979Y152120D01*
Y152020D01*
X224880Y151920D01*
X224979Y151820D01*
Y151720D01*
X224880Y151620D01*
X224680D01*
X224580Y151720D01*
Y151820D01*
X224680Y151920D01*
X224580Y152020D01*
Y152120D01*
X224680Y151920D02*
X224880D01*
X231280Y152120D02*
X231180Y152220D01*
X230980D01*
X230880Y152120D01*
Y152020D01*
X230980Y151920D01*
X231180D01*
X231280Y151820D01*
Y151720D01*
X231180Y151620D01*
X230980D01*
X230880Y151720D01*
X231480Y152120D02*
X231580Y152220D01*
X231780D01*
X231880Y152120D01*
Y152020D01*
X231780Y151920D01*
X231880Y151820D01*
Y151720D01*
X231780Y151620D01*
X231580D01*
X231480Y151720D01*
Y151820D01*
X231580Y151920D01*
X231480Y152020D01*
Y152120D01*
X231580Y151920D02*
X231780D01*
X232479Y151620D02*
X232080D01*
X232479Y152020D01*
Y152120D01*
X232380Y152220D01*
X232180D01*
X232080Y152120D01*
X238780D02*
X238680Y152220D01*
X238480D01*
X238380Y152120D01*
Y152020D01*
X238480Y151920D01*
X238680D01*
X238780Y151820D01*
Y151720D01*
X238680Y151620D01*
X238480D01*
X238380Y151720D01*
X238980Y152120D02*
X239080Y152220D01*
X239280D01*
X239380Y152120D01*
Y152020D01*
X239280Y151920D01*
X239380Y151820D01*
Y151720D01*
X239280Y151620D01*
X239080D01*
X238980Y151720D01*
Y151820D01*
X239080Y151920D01*
X238980Y152020D01*
Y152120D01*
X239080Y151920D02*
X239280D01*
X239580Y152220D02*
X239979D01*
Y152120D01*
X239580Y151720D01*
Y151620D01*
X231280Y137120D02*
X231180Y137220D01*
X230980D01*
X230880Y137120D01*
Y137020D01*
X230980Y136920D01*
X231180D01*
X231280Y136820D01*
Y136720D01*
X231180Y136620D01*
X230980D01*
X230880Y136720D01*
X231480Y137120D02*
X231580Y137220D01*
X231780D01*
X231880Y137120D01*
Y137020D01*
X231780Y136920D01*
X231880Y136820D01*
Y136720D01*
X231780Y136620D01*
X231580D01*
X231480Y136720D01*
Y136820D01*
X231580Y136920D01*
X231480Y137020D01*
Y137120D01*
X231580Y136920D02*
X231780D01*
X232080Y137120D02*
X232180Y137220D01*
X232380D01*
X232479Y137120D01*
Y137020D01*
X232380Y136920D01*
X232280D01*
X232380D01*
X232479Y136820D01*
Y136720D01*
X232380Y136620D01*
X232180D01*
X232080Y136720D01*
X238780Y129620D02*
X238680Y129720D01*
X238480D01*
X238380Y129620D01*
Y129520D01*
X238480Y129420D01*
X238680D01*
X238780Y129320D01*
Y129220D01*
X238680Y129120D01*
X238480D01*
X238380Y129220D01*
X238980Y129620D02*
X239080Y129720D01*
X239280D01*
X239380Y129620D01*
Y129520D01*
X239280Y129420D01*
X239380Y129320D01*
Y129220D01*
X239280Y129120D01*
X239080D01*
X238980Y129220D01*
Y129320D01*
X239080Y129420D01*
X238980Y129520D01*
Y129620D01*
X239080Y129420D02*
X239280D01*
X239580Y129620D02*
X239680Y129720D01*
X239880D01*
X239979Y129620D01*
Y129520D01*
X239880Y129420D01*
X239979Y129320D01*
Y129220D01*
X239880Y129120D01*
X239680D01*
X239580Y129220D01*
Y129320D01*
X239680Y129420D01*
X239580Y129520D01*
Y129620D01*
X239680Y129420D02*
X239880D01*
X231280Y129620D02*
X231180Y129720D01*
X230980D01*
X230880Y129620D01*
Y129520D01*
X230980Y129420D01*
X231180D01*
X231280Y129320D01*
Y129220D01*
X231180Y129120D01*
X230980D01*
X230880Y129220D01*
X231480Y129620D02*
X231580Y129720D01*
X231780D01*
X231880Y129620D01*
Y129520D01*
X231780Y129420D01*
X231880Y129320D01*
Y129220D01*
X231780Y129120D01*
X231580D01*
X231480Y129220D01*
Y129320D01*
X231580Y129420D01*
X231480Y129520D01*
Y129620D01*
X231580Y129420D02*
X231780D01*
X232380Y129120D02*
Y129720D01*
X232080Y129420D01*
X232479D01*
X223780Y129620D02*
X223680Y129720D01*
X223480D01*
X223380Y129620D01*
Y129520D01*
X223480Y129420D01*
X223680D01*
X223780Y129320D01*
Y129220D01*
X223680Y129120D01*
X223480D01*
X223380Y129220D01*
X223980Y129720D02*
X224380D01*
Y129620D01*
X223980Y129220D01*
Y129120D01*
X224580Y129220D02*
X224680Y129120D01*
X224880D01*
X224979Y129220D01*
Y129620D01*
X224880Y129720D01*
X224680D01*
X224580Y129620D01*
Y129520D01*
X224680Y129420D01*
X224979D01*
X144486Y149030D02*
X144786D01*
X144886Y149130D01*
X144786Y149230D01*
X144586D01*
X144486Y149330D01*
X144586Y149430D01*
X144886D01*
X145186Y149530D02*
Y149430D01*
X145086D01*
X145286D01*
X145186D01*
Y149130D01*
X145286Y149030D01*
X145586D02*
Y149430D01*
X145686D01*
X145785Y149330D01*
Y149030D01*
Y149330D01*
X145885Y149430D01*
X145985Y149330D01*
Y149030D01*
X146185D02*
X146385D01*
X146285D01*
Y149630D01*
X146185Y149530D01*
X90520Y159620D02*
X90420Y159720D01*
X90220D01*
X90120Y159620D01*
Y159520D01*
X90220Y159420D01*
X90420D01*
X90520Y159320D01*
Y159220D01*
X90420Y159120D01*
X90220D01*
X90120Y159220D01*
X91120Y159120D02*
X90720D01*
X91120Y159520D01*
Y159620D01*
X91020Y159720D01*
X90820D01*
X90720Y159620D01*
X91460Y129620D02*
X91360Y129720D01*
X91160D01*
X91060Y129620D01*
Y129520D01*
X91160Y129420D01*
X91360D01*
X91460Y129320D01*
Y129220D01*
X91360Y129120D01*
X91160D01*
X91060Y129220D01*
X92060Y129720D02*
X91860Y129620D01*
X91660Y129420D01*
Y129220D01*
X91760Y129120D01*
X91960D01*
X92060Y129220D01*
Y129320D01*
X91960Y129420D01*
X91660D01*
X238780Y169890D02*
X238680Y169990D01*
X238480D01*
X238380Y169890D01*
Y169790D01*
X238480Y169690D01*
X238680D01*
X238780Y169590D01*
Y169490D01*
X238680Y169390D01*
X238480D01*
X238380Y169490D01*
X238980Y169890D02*
X239080Y169990D01*
X239280D01*
X239380Y169890D01*
Y169790D01*
X239280Y169690D01*
X239380Y169590D01*
Y169490D01*
X239280Y169390D01*
X239080D01*
X238980Y169490D01*
Y169590D01*
X239080Y169690D01*
X238980Y169790D01*
Y169890D01*
X239080Y169690D02*
X239280D01*
X239979Y169990D02*
X239580D01*
Y169690D01*
X239780Y169790D01*
X239880D01*
X239979Y169690D01*
Y169490D01*
X239880Y169390D01*
X239680D01*
X239580Y169490D01*
X231280Y169890D02*
X231180Y169990D01*
X230980D01*
X230880Y169890D01*
Y169790D01*
X230980Y169690D01*
X231180D01*
X231280Y169590D01*
Y169490D01*
X231180Y169390D01*
X230980D01*
X230880Y169490D01*
X231480Y169890D02*
X231580Y169990D01*
X231780D01*
X231880Y169890D01*
Y169790D01*
X231780Y169690D01*
X231880Y169590D01*
Y169490D01*
X231780Y169390D01*
X231580D01*
X231480Y169490D01*
Y169590D01*
X231580Y169690D01*
X231480Y169790D01*
Y169890D01*
X231580Y169690D02*
X231780D01*
X232080Y169890D02*
X232180Y169990D01*
X232380D01*
X232479Y169890D01*
Y169490D01*
X232380Y169390D01*
X232180D01*
X232080Y169490D01*
Y169890D01*
X223780D02*
X223680Y169990D01*
X223480D01*
X223380Y169890D01*
Y169790D01*
X223480Y169690D01*
X223680D01*
X223780Y169590D01*
Y169490D01*
X223680Y169390D01*
X223480D01*
X223380Y169490D01*
X223980Y169990D02*
X224380D01*
Y169890D01*
X223980Y169490D01*
Y169390D01*
X224979Y169990D02*
X224780Y169890D01*
X224580Y169690D01*
Y169490D01*
X224680Y169390D01*
X224880D01*
X224979Y169490D01*
Y169590D01*
X224880Y169690D01*
X224580D01*
X212530Y152120D02*
X212430Y152220D01*
X212230D01*
X212130Y152120D01*
Y152020D01*
X212230Y151920D01*
X212430D01*
X212530Y151820D01*
Y151720D01*
X212430Y151620D01*
X212230D01*
X212130Y151720D01*
X212730Y152220D02*
X213130D01*
Y152120D01*
X212730Y151720D01*
Y151620D01*
X213729Y152220D02*
X213330D01*
Y151920D01*
X213530Y152020D01*
X213630D01*
X213729Y151920D01*
Y151720D01*
X213630Y151620D01*
X213430D01*
X213330Y151720D01*
X210650Y159620D02*
X210550Y159720D01*
X210350D01*
X210250Y159620D01*
Y159520D01*
X210350Y159420D01*
X210550D01*
X210650Y159320D01*
Y159220D01*
X210550Y159120D01*
X210350D01*
X210250Y159220D01*
X210850Y159720D02*
X211250D01*
Y159620D01*
X210850Y159220D01*
Y159120D01*
X211750D02*
Y159720D01*
X211450Y159420D01*
X211849D01*
X214400Y169890D02*
X214300Y169990D01*
X214100D01*
X214000Y169890D01*
Y169790D01*
X214100Y169690D01*
X214300D01*
X214400Y169590D01*
Y169490D01*
X214300Y169390D01*
X214100D01*
X214000Y169490D01*
X214600Y169990D02*
X215000D01*
Y169890D01*
X214600Y169490D01*
Y169390D01*
X215200Y169890D02*
X215300Y169990D01*
X215500D01*
X215599Y169890D01*
Y169790D01*
X215500Y169690D01*
X215400D01*
X215500D01*
X215599Y169590D01*
Y169490D01*
X215500Y169390D01*
X215300D01*
X215200Y169490D01*
X213470Y129620D02*
X213370Y129720D01*
X213170D01*
X213070Y129620D01*
Y129520D01*
X213170Y129420D01*
X213370D01*
X213470Y129320D01*
Y129220D01*
X213370Y129120D01*
X213170D01*
X213070Y129220D01*
X213670Y129720D02*
X214070D01*
Y129620D01*
X213670Y129220D01*
Y129120D01*
X214669D02*
X214270D01*
X214669Y129520D01*
Y129620D01*
X214570Y129720D01*
X214370D01*
X214270Y129620D01*
X209720Y144620D02*
X209620Y144720D01*
X209420D01*
X209320Y144620D01*
Y144520D01*
X209420Y144420D01*
X209620D01*
X209720Y144320D01*
Y144220D01*
X209620Y144120D01*
X209420D01*
X209320Y144220D01*
X209920Y144720D02*
X210320D01*
Y144620D01*
X209920Y144220D01*
Y144120D01*
X210520D02*
X210720D01*
X210620D01*
Y144720D01*
X210520Y144620D01*
X203150Y152120D02*
X203050Y152220D01*
X202850D01*
X202750Y152120D01*
Y152020D01*
X202850Y151920D01*
X203050D01*
X203150Y151820D01*
Y151720D01*
X203050Y151620D01*
X202850D01*
X202750Y151720D01*
X203350Y152220D02*
X203750D01*
Y152120D01*
X203350Y151720D01*
Y151620D01*
X203950Y152120D02*
X204050Y152220D01*
X204250D01*
X204349Y152120D01*
Y151720D01*
X204250Y151620D01*
X204050D01*
X203950Y151720D01*
Y152120D01*
X199400Y159620D02*
X199300Y159720D01*
X199100D01*
X199000Y159620D01*
Y159520D01*
X199100Y159420D01*
X199300D01*
X199400Y159320D01*
Y159220D01*
X199300Y159120D01*
X199100D01*
X199000Y159220D01*
X200000Y159720D02*
X199800Y159620D01*
X199600Y159420D01*
Y159220D01*
X199700Y159120D01*
X199900D01*
X200000Y159220D01*
Y159320D01*
X199900Y159420D01*
X199600D01*
X200200Y159220D02*
X200300Y159120D01*
X200500D01*
X200599Y159220D01*
Y159620D01*
X200500Y159720D01*
X200300D01*
X200200Y159620D01*
Y159520D01*
X200300Y159420D01*
X200599D01*
X206900Y169890D02*
X206800Y169990D01*
X206600D01*
X206500Y169890D01*
Y169790D01*
X206600Y169690D01*
X206800D01*
X206900Y169590D01*
Y169490D01*
X206800Y169390D01*
X206600D01*
X206500Y169490D01*
X207500Y169990D02*
X207300Y169890D01*
X207100Y169690D01*
Y169490D01*
X207200Y169390D01*
X207400D01*
X207500Y169490D01*
Y169590D01*
X207400Y169690D01*
X207100D01*
X207700Y169890D02*
X207800Y169990D01*
X208000D01*
X208099Y169890D01*
Y169790D01*
X208000Y169690D01*
X208099Y169590D01*
Y169490D01*
X208000Y169390D01*
X207800D01*
X207700Y169490D01*
Y169590D01*
X207800Y169690D01*
X207700Y169790D01*
Y169890D01*
X207800Y169690D02*
X208000D01*
X204090Y129620D02*
X203990Y129720D01*
X203790D01*
X203690Y129620D01*
Y129520D01*
X203790Y129420D01*
X203990D01*
X204090Y129320D01*
Y129220D01*
X203990Y129120D01*
X203790D01*
X203690Y129220D01*
X204690Y129720D02*
X204490Y129620D01*
X204290Y129420D01*
Y129220D01*
X204390Y129120D01*
X204590D01*
X204690Y129220D01*
Y129320D01*
X204590Y129420D01*
X204290D01*
X204890Y129720D02*
X205289D01*
Y129620D01*
X204890Y129220D01*
Y129120D01*
X207840Y137120D02*
X207740Y137220D01*
X207540D01*
X207440Y137120D01*
Y137020D01*
X207540Y136920D01*
X207740D01*
X207840Y136820D01*
Y136720D01*
X207740Y136620D01*
X207540D01*
X207440Y136720D01*
X208440Y137220D02*
X208240Y137120D01*
X208040Y136920D01*
Y136720D01*
X208140Y136620D01*
X208340D01*
X208440Y136720D01*
Y136820D01*
X208340Y136920D01*
X208040D01*
X209039Y137220D02*
X208840Y137120D01*
X208640Y136920D01*
Y136720D01*
X208740Y136620D01*
X208940D01*
X209039Y136720D01*
Y136820D01*
X208940Y136920D01*
X208640D01*
X197530Y144620D02*
X197430Y144720D01*
X197230D01*
X197130Y144620D01*
Y144520D01*
X197230Y144420D01*
X197430D01*
X197530Y144320D01*
Y144220D01*
X197430Y144120D01*
X197230D01*
X197130Y144220D01*
X198130Y144720D02*
X197930Y144620D01*
X197730Y144420D01*
Y144220D01*
X197830Y144120D01*
X198030D01*
X198130Y144220D01*
Y144320D01*
X198030Y144420D01*
X197730D01*
X198729Y144720D02*
X198330D01*
Y144420D01*
X198530Y144520D01*
X198630D01*
X198729Y144420D01*
Y144220D01*
X198630Y144120D01*
X198430D01*
X198330Y144220D01*
X195660Y152120D02*
X195560Y152220D01*
X195360D01*
X195260Y152120D01*
Y152020D01*
X195360Y151920D01*
X195560D01*
X195660Y151820D01*
Y151720D01*
X195560Y151620D01*
X195360D01*
X195260Y151720D01*
X196260Y152220D02*
X196060Y152120D01*
X195860Y151920D01*
Y151720D01*
X195960Y151620D01*
X196160D01*
X196260Y151720D01*
Y151820D01*
X196160Y151920D01*
X195860D01*
X196760Y151620D02*
Y152220D01*
X196460Y151920D01*
X196859D01*
X199400Y169890D02*
X199300Y169990D01*
X199100D01*
X199000Y169890D01*
Y169790D01*
X199100Y169690D01*
X199300D01*
X199400Y169590D01*
Y169490D01*
X199300Y169390D01*
X199100D01*
X199000Y169490D01*
X200000Y169990D02*
X199800Y169890D01*
X199600Y169690D01*
Y169490D01*
X199700Y169390D01*
X199900D01*
X200000Y169490D01*
Y169590D01*
X199900Y169690D01*
X199600D01*
X200599Y169390D02*
X200200D01*
X200599Y169790D01*
Y169890D01*
X200500Y169990D01*
X200300D01*
X200200Y169890D01*
X194720Y129620D02*
X194620Y129720D01*
X194420D01*
X194320Y129620D01*
Y129520D01*
X194420Y129420D01*
X194620D01*
X194720Y129320D01*
Y129220D01*
X194620Y129120D01*
X194420D01*
X194320Y129220D01*
X195320Y129720D02*
X195120Y129620D01*
X194920Y129420D01*
Y129220D01*
X195020Y129120D01*
X195220D01*
X195320Y129220D01*
Y129320D01*
X195220Y129420D01*
X194920D01*
X195520Y129120D02*
X195720D01*
X195620D01*
Y129720D01*
X195520Y129620D01*
X193780Y137120D02*
X193680Y137220D01*
X193480D01*
X193380Y137120D01*
Y137020D01*
X193480Y136920D01*
X193680D01*
X193780Y136820D01*
Y136720D01*
X193680Y136620D01*
X193480D01*
X193380Y136720D01*
X194380Y137220D02*
X194180Y137120D01*
X193980Y136920D01*
Y136720D01*
X194080Y136620D01*
X194280D01*
X194380Y136720D01*
Y136820D01*
X194280Y136920D01*
X193980D01*
X194580Y137120D02*
X194680Y137220D01*
X194880D01*
X194979Y137120D01*
Y136720D01*
X194880Y136620D01*
X194680D01*
X194580Y136720D01*
Y137120D01*
X190030Y144620D02*
X189930Y144720D01*
X189730D01*
X189630Y144620D01*
Y144520D01*
X189730Y144420D01*
X189930D01*
X190030Y144320D01*
Y144220D01*
X189930Y144120D01*
X189730D01*
X189630Y144220D01*
X190630Y144720D02*
X190230D01*
Y144420D01*
X190430Y144520D01*
X190530D01*
X190630Y144420D01*
Y144220D01*
X190530Y144120D01*
X190330D01*
X190230Y144220D01*
X190830D02*
X190930Y144120D01*
X191130D01*
X191229Y144220D01*
Y144620D01*
X191130Y144720D01*
X190930D01*
X190830Y144620D01*
Y144520D01*
X190930Y144420D01*
X191229D01*
X188150Y152120D02*
X188050Y152220D01*
X187850D01*
X187750Y152120D01*
Y152020D01*
X187850Y151920D01*
X188050D01*
X188150Y151820D01*
Y151720D01*
X188050Y151620D01*
X187850D01*
X187750Y151720D01*
X188750Y152220D02*
X188350D01*
Y151920D01*
X188550Y152020D01*
X188650D01*
X188750Y151920D01*
Y151720D01*
X188650Y151620D01*
X188450D01*
X188350Y151720D01*
X188950Y152120D02*
X189050Y152220D01*
X189250D01*
X189349Y152120D01*
Y152020D01*
X189250Y151920D01*
X189349Y151820D01*
Y151720D01*
X189250Y151620D01*
X189050D01*
X188950Y151720D01*
Y151820D01*
X189050Y151920D01*
X188950Y152020D01*
Y152120D01*
X189050Y151920D02*
X189250D01*
X184400Y159620D02*
X184300Y159720D01*
X184100D01*
X184000Y159620D01*
Y159520D01*
X184100Y159420D01*
X184300D01*
X184400Y159320D01*
Y159220D01*
X184300Y159120D01*
X184100D01*
X184000Y159220D01*
X185000Y159720D02*
X184600D01*
Y159420D01*
X184800Y159520D01*
X184900D01*
X185000Y159420D01*
Y159220D01*
X184900Y159120D01*
X184700D01*
X184600Y159220D01*
X185200Y159720D02*
X185599D01*
Y159620D01*
X185200Y159220D01*
Y159120D01*
X191900Y169890D02*
X191800Y169990D01*
X191600D01*
X191500Y169890D01*
Y169790D01*
X191600Y169690D01*
X191800D01*
X191900Y169590D01*
Y169490D01*
X191800Y169390D01*
X191600D01*
X191500Y169490D01*
X192500Y169990D02*
X192100D01*
Y169690D01*
X192300Y169790D01*
X192400D01*
X192500Y169690D01*
Y169490D01*
X192400Y169390D01*
X192200D01*
X192100Y169490D01*
X193099Y169990D02*
X192900Y169890D01*
X192700Y169690D01*
Y169490D01*
X192800Y169390D01*
X193000D01*
X193099Y169490D01*
Y169590D01*
X193000Y169690D01*
X192700D01*
X185340Y129620D02*
X185240Y129720D01*
X185040D01*
X184940Y129620D01*
Y129520D01*
X185040Y129420D01*
X185240D01*
X185340Y129320D01*
Y129220D01*
X185240Y129120D01*
X185040D01*
X184940Y129220D01*
X185940Y129720D02*
X185540D01*
Y129420D01*
X185740Y129520D01*
X185840D01*
X185940Y129420D01*
Y129220D01*
X185840Y129120D01*
X185640D01*
X185540Y129220D01*
X186539Y129720D02*
X186140D01*
Y129420D01*
X186340Y129520D01*
X186440D01*
X186539Y129420D01*
Y129220D01*
X186440Y129120D01*
X186240D01*
X186140Y129220D01*
X186280Y137120D02*
X186180Y137220D01*
X185980D01*
X185880Y137120D01*
Y137020D01*
X185980Y136920D01*
X186180D01*
X186280Y136820D01*
Y136720D01*
X186180Y136620D01*
X185980D01*
X185880Y136720D01*
X186880Y137220D02*
X186480D01*
Y136920D01*
X186680Y137020D01*
X186780D01*
X186880Y136920D01*
Y136720D01*
X186780Y136620D01*
X186580D01*
X186480Y136720D01*
X187380Y136620D02*
Y137220D01*
X187080Y136920D01*
X187479D01*
X182530Y144620D02*
X182430Y144720D01*
X182230D01*
X182130Y144620D01*
Y144520D01*
X182230Y144420D01*
X182430D01*
X182530Y144320D01*
Y144220D01*
X182430Y144120D01*
X182230D01*
X182130Y144220D01*
X183130Y144720D02*
X182730D01*
Y144420D01*
X182930Y144520D01*
X183030D01*
X183130Y144420D01*
Y144220D01*
X183030Y144120D01*
X182830D01*
X182730Y144220D01*
X183330Y144620D02*
X183430Y144720D01*
X183630D01*
X183729Y144620D01*
Y144520D01*
X183630Y144420D01*
X183530D01*
X183630D01*
X183729Y144320D01*
Y144220D01*
X183630Y144120D01*
X183430D01*
X183330Y144220D01*
X180650Y152120D02*
X180550Y152220D01*
X180350D01*
X180250Y152120D01*
Y152020D01*
X180350Y151920D01*
X180550D01*
X180650Y151820D01*
Y151720D01*
X180550Y151620D01*
X180350D01*
X180250Y151720D01*
X181250Y152220D02*
X180850D01*
Y151920D01*
X181050Y152020D01*
X181150D01*
X181250Y151920D01*
Y151720D01*
X181150Y151620D01*
X180950D01*
X180850Y151720D01*
X181849Y151620D02*
X181450D01*
X181849Y152020D01*
Y152120D01*
X181750Y152220D01*
X181550D01*
X181450Y152120D01*
X176900Y159620D02*
X176800Y159720D01*
X176600D01*
X176500Y159620D01*
Y159520D01*
X176600Y159420D01*
X176800D01*
X176900Y159320D01*
Y159220D01*
X176800Y159120D01*
X176600D01*
X176500Y159220D01*
X177500Y159720D02*
X177100D01*
Y159420D01*
X177300Y159520D01*
X177400D01*
X177500Y159420D01*
Y159220D01*
X177400Y159120D01*
X177200D01*
X177100Y159220D01*
X177700Y159120D02*
X177900D01*
X177800D01*
Y159720D01*
X177700Y159620D01*
X178780Y137120D02*
X178680Y137220D01*
X178480D01*
X178380Y137120D01*
Y137020D01*
X178480Y136920D01*
X178680D01*
X178780Y136820D01*
Y136720D01*
X178680Y136620D01*
X178480D01*
X178380Y136720D01*
X179280Y136620D02*
Y137220D01*
X178980Y136920D01*
X179380D01*
X179580Y136720D02*
X179680Y136620D01*
X179880D01*
X179979Y136720D01*
Y137120D01*
X179880Y137220D01*
X179680D01*
X179580Y137120D01*
Y137020D01*
X179680Y136920D01*
X179979D01*
X175030Y144620D02*
X174930Y144720D01*
X174730D01*
X174630Y144620D01*
Y144520D01*
X174730Y144420D01*
X174930D01*
X175030Y144320D01*
Y144220D01*
X174930Y144120D01*
X174730D01*
X174630Y144220D01*
X175530Y144120D02*
Y144720D01*
X175230Y144420D01*
X175630D01*
X175830Y144620D02*
X175930Y144720D01*
X176130D01*
X176229Y144620D01*
Y144520D01*
X176130Y144420D01*
X176229Y144320D01*
Y144220D01*
X176130Y144120D01*
X175930D01*
X175830Y144220D01*
Y144320D01*
X175930Y144420D01*
X175830Y144520D01*
Y144620D01*
X175930Y144420D02*
X176130D01*
X169400Y159620D02*
X169300Y159720D01*
X169100D01*
X169000Y159620D01*
Y159520D01*
X169100Y159420D01*
X169300D01*
X169400Y159320D01*
Y159220D01*
X169300Y159120D01*
X169100D01*
X169000Y159220D01*
X169900Y159120D02*
Y159720D01*
X169600Y159420D01*
X170000D01*
X170599Y159720D02*
X170400Y159620D01*
X170200Y159420D01*
Y159220D01*
X170300Y159120D01*
X170500D01*
X170599Y159220D01*
Y159320D01*
X170500Y159420D01*
X170200D01*
X171280Y137120D02*
X171180Y137220D01*
X170980D01*
X170880Y137120D01*
Y137020D01*
X170980Y136920D01*
X171180D01*
X171280Y136820D01*
Y136720D01*
X171180Y136620D01*
X170980D01*
X170880Y136720D01*
X171780Y136620D02*
Y137220D01*
X171480Y136920D01*
X171880D01*
X172380Y136620D02*
Y137220D01*
X172080Y136920D01*
X172479D01*
X167530Y144620D02*
X167430Y144720D01*
X167230D01*
X167130Y144620D01*
Y144520D01*
X167230Y144420D01*
X167430D01*
X167530Y144320D01*
Y144220D01*
X167430Y144120D01*
X167230D01*
X167130Y144220D01*
X168030Y144120D02*
Y144720D01*
X167730Y144420D01*
X168130D01*
X168330Y144620D02*
X168430Y144720D01*
X168630D01*
X168729Y144620D01*
Y144520D01*
X168630Y144420D01*
X168530D01*
X168630D01*
X168729Y144320D01*
Y144220D01*
X168630Y144120D01*
X168430D01*
X168330Y144220D01*
X165650Y152120D02*
X165550Y152220D01*
X165350D01*
X165250Y152120D01*
Y152020D01*
X165350Y151920D01*
X165550D01*
X165650Y151820D01*
Y151720D01*
X165550Y151620D01*
X165350D01*
X165250Y151720D01*
X166150Y151620D02*
Y152220D01*
X165850Y151920D01*
X166250D01*
X166849Y151620D02*
X166450D01*
X166849Y152020D01*
Y152120D01*
X166750Y152220D01*
X166550D01*
X166450Y152120D01*
X161900Y159620D02*
X161800Y159720D01*
X161600D01*
X161500Y159620D01*
Y159520D01*
X161600Y159420D01*
X161800D01*
X161900Y159320D01*
Y159220D01*
X161800Y159120D01*
X161600D01*
X161500Y159220D01*
X162400Y159120D02*
Y159720D01*
X162100Y159420D01*
X162500D01*
X162700Y159120D02*
X162900D01*
X162800D01*
Y159720D01*
X162700Y159620D01*
X167870Y129620D02*
X167770Y129720D01*
X167570D01*
X167470Y129620D01*
Y129520D01*
X167570Y129420D01*
X167770D01*
X167870Y129320D01*
Y129220D01*
X167770Y129120D01*
X167570D01*
X167470Y129220D01*
X168070Y129620D02*
X168170Y129720D01*
X168370D01*
X168470Y129620D01*
Y129520D01*
X168370Y129420D01*
X168270D01*
X168370D01*
X168470Y129320D01*
Y129220D01*
X168370Y129120D01*
X168170D01*
X168070Y129220D01*
X168670D02*
X168770Y129120D01*
X168970D01*
X169069Y129220D01*
Y129620D01*
X168970Y129720D01*
X168770D01*
X168670Y129620D01*
Y129520D01*
X168770Y129420D01*
X169069D01*
X163780Y137120D02*
X163680Y137220D01*
X163480D01*
X163380Y137120D01*
Y137020D01*
X163480Y136920D01*
X163680D01*
X163780Y136820D01*
Y136720D01*
X163680Y136620D01*
X163480D01*
X163380Y136720D01*
X163980Y137120D02*
X164080Y137220D01*
X164280D01*
X164380Y137120D01*
Y137020D01*
X164280Y136920D01*
X164180D01*
X164280D01*
X164380Y136820D01*
Y136720D01*
X164280Y136620D01*
X164080D01*
X163980Y136720D01*
X164580Y137120D02*
X164680Y137220D01*
X164880D01*
X164979Y137120D01*
Y137020D01*
X164880Y136920D01*
X164979Y136820D01*
Y136720D01*
X164880Y136620D01*
X164680D01*
X164580Y136720D01*
Y136820D01*
X164680Y136920D01*
X164580Y137020D01*
Y137120D01*
X164680Y136920D02*
X164880D01*
X160030Y144620D02*
X159930Y144720D01*
X159730D01*
X159630Y144620D01*
Y144520D01*
X159730Y144420D01*
X159930D01*
X160030Y144320D01*
Y144220D01*
X159930Y144120D01*
X159730D01*
X159630Y144220D01*
X160230Y144620D02*
X160330Y144720D01*
X160530D01*
X160630Y144620D01*
Y144520D01*
X160530Y144420D01*
X160430D01*
X160530D01*
X160630Y144320D01*
Y144220D01*
X160530Y144120D01*
X160330D01*
X160230Y144220D01*
X160830Y144720D02*
X161229D01*
Y144620D01*
X160830Y144220D01*
Y144120D01*
X158150Y152120D02*
X158050Y152220D01*
X157850D01*
X157750Y152120D01*
Y152020D01*
X157850Y151920D01*
X158050D01*
X158150Y151820D01*
Y151720D01*
X158050Y151620D01*
X157850D01*
X157750Y151720D01*
X158350Y152120D02*
X158450Y152220D01*
X158650D01*
X158750Y152120D01*
Y152020D01*
X158650Y151920D01*
X158550D01*
X158650D01*
X158750Y151820D01*
Y151720D01*
X158650Y151620D01*
X158450D01*
X158350Y151720D01*
X159349Y152220D02*
X159150Y152120D01*
X158950Y151920D01*
Y151720D01*
X159050Y151620D01*
X159250D01*
X159349Y151720D01*
Y151820D01*
X159250Y151920D01*
X158950D01*
X135520Y159620D02*
X135420Y159720D01*
X135220D01*
X135120Y159620D01*
Y159520D01*
X135220Y159420D01*
X135420D01*
X135520Y159320D01*
Y159220D01*
X135420Y159120D01*
X135220D01*
X135120Y159220D01*
X135720Y159620D02*
X135820Y159720D01*
X136020D01*
X136120Y159620D01*
Y159520D01*
X136020Y159420D01*
X135920D01*
X136020D01*
X136120Y159320D01*
Y159220D01*
X136020Y159120D01*
X135820D01*
X135720Y159220D01*
X136620Y159120D02*
Y159720D01*
X136320Y159420D01*
X136719D01*
X137371Y137134D02*
X137400Y137220D01*
Y137048D01*
X137371Y137134D01*
X137314Y137191D01*
X137229Y137220D01*
X137143D01*
X137057Y137191D01*
X137000Y137134D01*
Y137077D01*
X137029Y137020D01*
X137057Y136991D01*
X137114Y136963D01*
X137286Y136906D01*
X137343Y136877D01*
X137400Y136820D01*
X137000Y137077D02*
X137057Y137020D01*
X137114Y136991D01*
X137286Y136934D01*
X137343Y136906D01*
X137371Y136877D01*
X137400Y136820D01*
Y136706D01*
X137343Y136649D01*
X137257Y136620D01*
X137171D01*
X137086Y136649D01*
X137029Y136706D01*
X137000Y136791D01*
Y136620D01*
X137029Y136706D01*
X137517Y137106D02*
X137546Y137077D01*
X137517Y137048D01*
X137488Y137077D01*
Y137106D01*
X137517Y137163D01*
X137546Y137191D01*
X137631Y137220D01*
X137746D01*
X137831Y137191D01*
X137860Y137134D01*
Y137048D01*
X137831Y136991D01*
X137746Y136963D01*
X137660D01*
X137746Y137220D02*
X137803Y137191D01*
X137831Y137134D01*
Y137048D01*
X137803Y136991D01*
X137746Y136963D01*
X137803Y136934D01*
X137860Y136877D01*
X137888Y136820D01*
Y136734D01*
X137860Y136677D01*
X137831Y136649D01*
X137746Y136620D01*
X137631D01*
X137546Y136649D01*
X137517Y136677D01*
X137488Y136734D01*
Y136763D01*
X137517Y136791D01*
X137546Y136763D01*
X137517Y136734D01*
X137831Y136906D02*
X137860Y136820D01*
Y136734D01*
X137831Y136677D01*
X137803Y136649D01*
X137746Y136620D01*
X138006Y137106D02*
X138034Y137077D01*
X138006Y137048D01*
X137977Y137077D01*
Y137106D01*
X138006Y137163D01*
X138034Y137191D01*
X138120Y137220D01*
X138234D01*
X138320Y137191D01*
X138348Y137134D01*
Y137048D01*
X138320Y136991D01*
X138234Y136963D01*
X138148D01*
X138234Y137220D02*
X138291Y137191D01*
X138320Y137134D01*
Y137048D01*
X138291Y136991D01*
X138234Y136963D01*
X138291Y136934D01*
X138348Y136877D01*
X138377Y136820D01*
Y136734D01*
X138348Y136677D01*
X138320Y136649D01*
X138234Y136620D01*
X138120D01*
X138034Y136649D01*
X138006Y136677D01*
X137977Y136734D01*
Y136763D01*
X138006Y136791D01*
X138034Y136763D01*
X138006Y136734D01*
X138320Y136906D02*
X138348Y136820D01*
Y136734D01*
X138320Y136677D01*
X138291Y136649D01*
X138234Y136620D01*
X133650Y144620D02*
X133550Y144720D01*
X133350D01*
X133250Y144620D01*
Y144520D01*
X133350Y144420D01*
X133550D01*
X133650Y144320D01*
Y144220D01*
X133550Y144120D01*
X133350D01*
X133250Y144220D01*
X133850Y144620D02*
X133950Y144720D01*
X134150D01*
X134250Y144620D01*
Y144520D01*
X134150Y144420D01*
X134050D01*
X134150D01*
X134250Y144320D01*
Y144220D01*
X134150Y144120D01*
X133950D01*
X133850Y144220D01*
X134849Y144120D02*
X134450D01*
X134849Y144520D01*
Y144620D01*
X134750Y144720D01*
X134550D01*
X134450Y144620D01*
X131770Y152120D02*
X131670Y152220D01*
X131470D01*
X131370Y152120D01*
Y152020D01*
X131470Y151920D01*
X131670D01*
X131770Y151820D01*
Y151720D01*
X131670Y151620D01*
X131470D01*
X131370Y151720D01*
X131970Y152120D02*
X132070Y152220D01*
X132270D01*
X132370Y152120D01*
Y152020D01*
X132270Y151920D01*
X132170D01*
X132270D01*
X132370Y151820D01*
Y151720D01*
X132270Y151620D01*
X132070D01*
X131970Y151720D01*
X132570Y151620D02*
X132770D01*
X132670D01*
Y152220D01*
X132570Y152120D01*
X128020Y159620D02*
X127920Y159720D01*
X127720D01*
X127620Y159620D01*
Y159520D01*
X127720Y159420D01*
X127920D01*
X128020Y159320D01*
Y159220D01*
X127920Y159120D01*
X127720D01*
X127620Y159220D01*
X128220Y159620D02*
X128320Y159720D01*
X128520D01*
X128620Y159620D01*
Y159520D01*
X128520Y159420D01*
X128420D01*
X128520D01*
X128620Y159320D01*
Y159220D01*
X128520Y159120D01*
X128320D01*
X128220Y159220D01*
X128820Y159620D02*
X128920Y159720D01*
X129120D01*
X129219Y159620D01*
Y159220D01*
X129120Y159120D01*
X128920D01*
X128820Y159220D01*
Y159620D01*
X127690Y129620D02*
X127590Y129720D01*
X127390D01*
X127290Y129620D01*
Y129520D01*
X127390Y129420D01*
X127590D01*
X127690Y129320D01*
Y129220D01*
X127590Y129120D01*
X127390D01*
X127290Y129220D01*
X128290Y129120D02*
X127890D01*
X128290Y129520D01*
Y129620D01*
X128190Y129720D01*
X127990D01*
X127890Y129620D01*
X128490Y129220D02*
X128590Y129120D01*
X128790D01*
X128889Y129220D01*
Y129620D01*
X128790Y129720D01*
X128590D01*
X128490Y129620D01*
Y129520D01*
X128590Y129420D01*
X128889D01*
X129900Y137120D02*
X129800Y137220D01*
X129600D01*
X129500Y137120D01*
Y137020D01*
X129600Y136920D01*
X129800D01*
X129900Y136820D01*
Y136720D01*
X129800Y136620D01*
X129600D01*
X129500Y136720D01*
X130500Y136620D02*
X130100D01*
X130500Y137020D01*
Y137120D01*
X130400Y137220D01*
X130200D01*
X130100Y137120D01*
X130700D02*
X130800Y137220D01*
X131000D01*
X131099Y137120D01*
Y137020D01*
X131000Y136920D01*
X131099Y136820D01*
Y136720D01*
X131000Y136620D01*
X130800D01*
X130700Y136720D01*
Y136820D01*
X130800Y136920D01*
X130700Y137020D01*
Y137120D01*
X130800Y136920D02*
X131000D01*
X126150Y144620D02*
X126050Y144720D01*
X125850D01*
X125750Y144620D01*
Y144520D01*
X125850Y144420D01*
X126050D01*
X126150Y144320D01*
Y144220D01*
X126050Y144120D01*
X125850D01*
X125750Y144220D01*
X126750Y144120D02*
X126350D01*
X126750Y144520D01*
Y144620D01*
X126650Y144720D01*
X126450D01*
X126350Y144620D01*
X126950Y144720D02*
X127349D01*
Y144620D01*
X126950Y144220D01*
Y144120D01*
X124270Y152120D02*
X124170Y152220D01*
X123970D01*
X123870Y152120D01*
Y152020D01*
X123970Y151920D01*
X124170D01*
X124270Y151820D01*
Y151720D01*
X124170Y151620D01*
X123970D01*
X123870Y151720D01*
X124870Y151620D02*
X124470D01*
X124870Y152020D01*
Y152120D01*
X124770Y152220D01*
X124570D01*
X124470Y152120D01*
X125469Y152220D02*
X125270Y152120D01*
X125070Y151920D01*
Y151720D01*
X125170Y151620D01*
X125370D01*
X125469Y151720D01*
Y151820D01*
X125370Y151920D01*
X125070D01*
X120520Y159620D02*
X120420Y159720D01*
X120220D01*
X120120Y159620D01*
Y159520D01*
X120220Y159420D01*
X120420D01*
X120520Y159320D01*
Y159220D01*
X120420Y159120D01*
X120220D01*
X120120Y159220D01*
X121120Y159120D02*
X120720D01*
X121120Y159520D01*
Y159620D01*
X121020Y159720D01*
X120820D01*
X120720Y159620D01*
X121719Y159720D02*
X121320D01*
Y159420D01*
X121520Y159520D01*
X121620D01*
X121719Y159420D01*
Y159220D01*
X121620Y159120D01*
X121420D01*
X121320Y159220D01*
X122400Y137120D02*
X122300Y137220D01*
X122100D01*
X122000Y137120D01*
Y137020D01*
X122100Y136920D01*
X122300D01*
X122400Y136820D01*
Y136720D01*
X122300Y136620D01*
X122100D01*
X122000Y136720D01*
X123000Y136620D02*
X122600D01*
X123000Y137020D01*
Y137120D01*
X122900Y137220D01*
X122700D01*
X122600Y137120D01*
X123200D02*
X123300Y137220D01*
X123500D01*
X123599Y137120D01*
Y137020D01*
X123500Y136920D01*
X123400D01*
X123500D01*
X123599Y136820D01*
Y136720D01*
X123500Y136620D01*
X123300D01*
X123200Y136720D01*
X118650Y144620D02*
X118550Y144720D01*
X118350D01*
X118250Y144620D01*
Y144520D01*
X118350Y144420D01*
X118550D01*
X118650Y144320D01*
Y144220D01*
X118550Y144120D01*
X118350D01*
X118250Y144220D01*
X119250Y144120D02*
X118850D01*
X119250Y144520D01*
Y144620D01*
X119150Y144720D01*
X118950D01*
X118850Y144620D01*
X119849Y144120D02*
X119450D01*
X119849Y144520D01*
Y144620D01*
X119750Y144720D01*
X119550D01*
X119450Y144620D01*
X116770Y152120D02*
X116670Y152220D01*
X116470D01*
X116370Y152120D01*
Y152020D01*
X116470Y151920D01*
X116670D01*
X116770Y151820D01*
Y151720D01*
X116670Y151620D01*
X116470D01*
X116370Y151720D01*
X117370Y151620D02*
X116970D01*
X117370Y152020D01*
Y152120D01*
X117270Y152220D01*
X117070D01*
X116970Y152120D01*
X117570Y151620D02*
X117770D01*
X117670D01*
Y152220D01*
X117570Y152120D01*
X113020Y159620D02*
X112920Y159720D01*
X112720D01*
X112620Y159620D01*
Y159520D01*
X112720Y159420D01*
X112920D01*
X113020Y159320D01*
Y159220D01*
X112920Y159120D01*
X112720D01*
X112620Y159220D01*
X113620Y159120D02*
X113220D01*
X113620Y159520D01*
Y159620D01*
X113520Y159720D01*
X113320D01*
X113220Y159620D01*
X113820D02*
X113920Y159720D01*
X114120D01*
X114219Y159620D01*
Y159220D01*
X114120Y159120D01*
X113920D01*
X113820Y159220D01*
Y159620D01*
X110210Y129620D02*
X110110Y129720D01*
X109910D01*
X109810Y129620D01*
Y129520D01*
X109910Y129420D01*
X110110D01*
X110210Y129320D01*
Y129220D01*
X110110Y129120D01*
X109910D01*
X109810Y129220D01*
X110410Y129120D02*
X110610D01*
X110510D01*
Y129720D01*
X110410Y129620D01*
X110910D02*
X111010Y129720D01*
X111210D01*
X111310Y129620D01*
Y129520D01*
X111210Y129420D01*
X111310Y129320D01*
Y129220D01*
X111210Y129120D01*
X111010D01*
X110910Y129220D01*
Y129320D01*
X111010Y129420D01*
X110910Y129520D01*
Y129620D01*
X111010Y129420D02*
X111210D01*
X114900Y137120D02*
X114800Y137220D01*
X114600D01*
X114500Y137120D01*
Y137020D01*
X114600Y136920D01*
X114800D01*
X114900Y136820D01*
Y136720D01*
X114800Y136620D01*
X114600D01*
X114500Y136720D01*
X115100Y136620D02*
X115300D01*
X115200D01*
Y137220D01*
X115100Y137120D01*
X115600Y137220D02*
X116000D01*
Y137120D01*
X115600Y136720D01*
Y136620D01*
X111150Y144620D02*
X111050Y144720D01*
X110850D01*
X110750Y144620D01*
Y144520D01*
X110850Y144420D01*
X111050D01*
X111150Y144320D01*
Y144220D01*
X111050Y144120D01*
X110850D01*
X110750Y144220D01*
X111350Y144120D02*
X111550D01*
X111450D01*
Y144720D01*
X111350Y144620D01*
X112250Y144720D02*
X112050Y144620D01*
X111850Y144420D01*
Y144220D01*
X111950Y144120D01*
X112150D01*
X112250Y144220D01*
Y144320D01*
X112150Y144420D01*
X111850D01*
X109270Y152120D02*
X109170Y152220D01*
X108970D01*
X108870Y152120D01*
Y152020D01*
X108970Y151920D01*
X109170D01*
X109270Y151820D01*
Y151720D01*
X109170Y151620D01*
X108970D01*
X108870Y151720D01*
X109470Y151620D02*
X109670D01*
X109570D01*
Y152220D01*
X109470Y152120D01*
X110370Y152220D02*
X109970D01*
Y151920D01*
X110170Y152020D01*
X110270D01*
X110370Y151920D01*
Y151720D01*
X110270Y151620D01*
X110070D01*
X109970Y151720D01*
X105520Y159620D02*
X105420Y159720D01*
X105220D01*
X105120Y159620D01*
Y159520D01*
X105220Y159420D01*
X105420D01*
X105520Y159320D01*
Y159220D01*
X105420Y159120D01*
X105220D01*
X105120Y159220D01*
X105720Y159120D02*
X105920D01*
X105820D01*
Y159720D01*
X105720Y159620D01*
X106520Y159120D02*
Y159720D01*
X106220Y159420D01*
X106620D01*
X100840Y129620D02*
X100740Y129720D01*
X100540D01*
X100440Y129620D01*
Y129520D01*
X100540Y129420D01*
X100740D01*
X100840Y129320D01*
Y129220D01*
X100740Y129120D01*
X100540D01*
X100440Y129220D01*
X101040Y129120D02*
X101240D01*
X101140D01*
Y129720D01*
X101040Y129620D01*
X101940Y129120D02*
X101540D01*
X101940Y129520D01*
Y129620D01*
X101840Y129720D01*
X101640D01*
X101540Y129620D01*
X107400Y137120D02*
X107300Y137220D01*
X107100D01*
X107000Y137120D01*
Y137020D01*
X107100Y136920D01*
X107300D01*
X107400Y136820D01*
Y136720D01*
X107300Y136620D01*
X107100D01*
X107000Y136720D01*
X107600Y136620D02*
X107800D01*
X107700D01*
Y137220D01*
X107600Y137120D01*
X108100Y136620D02*
X108300D01*
X108200D01*
Y137220D01*
X108100Y137120D01*
X103650Y144620D02*
X103550Y144720D01*
X103350D01*
X103250Y144620D01*
Y144520D01*
X103350Y144420D01*
X103550D01*
X103650Y144320D01*
Y144220D01*
X103550Y144120D01*
X103350D01*
X103250Y144220D01*
X103850Y144120D02*
X104050D01*
X103950D01*
Y144720D01*
X103850Y144620D01*
X104350D02*
X104450Y144720D01*
X104650D01*
X104750Y144620D01*
Y144220D01*
X104650Y144120D01*
X104450D01*
X104350Y144220D01*
Y144620D01*
X101780Y152120D02*
X101680Y152220D01*
X101480D01*
X101380Y152120D01*
Y152020D01*
X101480Y151920D01*
X101680D01*
X101780Y151820D01*
Y151720D01*
X101680Y151620D01*
X101480D01*
X101380Y151720D01*
X101980D02*
X102080Y151620D01*
X102280D01*
X102380Y151720D01*
Y152120D01*
X102280Y152220D01*
X102080D01*
X101980Y152120D01*
Y152020D01*
X102080Y151920D01*
X102380D01*
X98020Y159620D02*
X97920Y159720D01*
X97720D01*
X97620Y159620D01*
Y159520D01*
X97720Y159420D01*
X97920D01*
X98020Y159320D01*
Y159220D01*
X97920Y159120D01*
X97720D01*
X97620Y159220D01*
X98220Y159620D02*
X98320Y159720D01*
X98520D01*
X98620Y159620D01*
Y159520D01*
X98520Y159420D01*
X98620Y159320D01*
Y159220D01*
X98520Y159120D01*
X98320D01*
X98220Y159220D01*
Y159320D01*
X98320Y159420D01*
X98220Y159520D01*
Y159620D01*
X98320Y159420D02*
X98520D01*
X95210Y137120D02*
X95110Y137220D01*
X94910D01*
X94810Y137120D01*
Y137020D01*
X94910Y136920D01*
X95110D01*
X95210Y136820D01*
Y136720D01*
X95110Y136620D01*
X94910D01*
X94810Y136720D01*
X95810Y137220D02*
X95410D01*
Y136920D01*
X95610Y137020D01*
X95710D01*
X95810Y136920D01*
Y136720D01*
X95710Y136620D01*
X95510D01*
X95410Y136720D01*
X93340Y144620D02*
X93240Y144720D01*
X93040D01*
X92940Y144620D01*
Y144520D01*
X93040Y144420D01*
X93240D01*
X93340Y144320D01*
Y144220D01*
X93240Y144120D01*
X93040D01*
X92940Y144220D01*
X93840Y144120D02*
Y144720D01*
X93540Y144420D01*
X93940D01*
X92400Y152120D02*
X92300Y152220D01*
X92100D01*
X92000Y152120D01*
Y152020D01*
X92100Y151920D01*
X92300D01*
X92400Y151820D01*
Y151720D01*
X92300Y151620D01*
X92100D01*
X92000Y151720D01*
X92600Y152120D02*
X92700Y152220D01*
X92900D01*
X93000Y152120D01*
Y152020D01*
X92900Y151920D01*
X92800D01*
X92900D01*
X93000Y151820D01*
Y151720D01*
X92900Y151620D01*
X92700D01*
X92600Y151720D01*
X179710Y172210D02*
Y172710D01*
Y172510D01*
X179610D01*
X179810D01*
X179710D01*
Y172710D01*
X179810Y172810D01*
X180510Y172210D02*
X180110D01*
X180510Y172610D01*
Y172710D01*
X180410Y172810D01*
X180210D01*
X180110Y172710D01*
X141260Y172260D02*
Y172760D01*
Y172560D01*
X141160D01*
X141360D01*
X141260D01*
Y172760D01*
X141360Y172860D01*
X141660Y172260D02*
X141860D01*
X141760D01*
Y172860D01*
X141660Y172760D01*
X145620Y137450D02*
Y136850D01*
X145920D01*
X146020Y136950D01*
Y137350D01*
X145920Y137450D01*
X145620D01*
X146220Y137350D02*
X146320Y137450D01*
X146520D01*
X146620Y137350D01*
Y137250D01*
X146520Y137150D01*
X146420D01*
X146520D01*
X146620Y137050D01*
Y136950D01*
X146520Y136850D01*
X146320D01*
X146220Y136950D01*
X147219Y137450D02*
X147020Y137350D01*
X146820Y137150D01*
Y136950D01*
X146920Y136850D01*
X147120D01*
X147219Y136950D01*
Y137050D01*
X147120Y137150D01*
X146820D01*
X145620Y143050D02*
Y142450D01*
X145920D01*
X146020Y142550D01*
Y142950D01*
X145920Y143050D01*
X145620D01*
X146220Y142950D02*
X146320Y143050D01*
X146520D01*
X146620Y142950D01*
Y142850D01*
X146520Y142750D01*
X146420D01*
X146520D01*
X146620Y142650D01*
Y142550D01*
X146520Y142450D01*
X146320D01*
X146220Y142550D01*
X147219Y143050D02*
X146820D01*
Y142750D01*
X147020Y142850D01*
X147120D01*
X147219Y142750D01*
Y142550D01*
X147120Y142450D01*
X146920D01*
X146820Y142550D01*
X173150Y152120D02*
X173050Y152220D01*
X172850D01*
X172750Y152120D01*
Y152020D01*
X172850Y151920D01*
X173050D01*
X173150Y151820D01*
Y151720D01*
X173050Y151620D01*
X172850D01*
X172750Y151720D01*
X173650Y151620D02*
Y152220D01*
X173350Y151920D01*
X173750D01*
X173950Y152220D02*
X174349D01*
Y152120D01*
X173950Y151720D01*
Y151620D01*
X191910Y159620D02*
X191810Y159720D01*
X191610D01*
X191510Y159620D01*
Y159520D01*
X191610Y159420D01*
X191810D01*
X191910Y159320D01*
Y159220D01*
X191810Y159120D01*
X191610D01*
X191510Y159220D01*
X192510Y159720D02*
X192310Y159620D01*
X192110Y159420D01*
Y159220D01*
X192210Y159120D01*
X192410D01*
X192510Y159220D01*
Y159320D01*
X192410Y159420D01*
X192110D01*
X192710Y159620D02*
X192810Y159720D01*
X193010D01*
X193109Y159620D01*
Y159520D01*
X193010Y159420D01*
X192910D01*
X193010D01*
X193109Y159320D01*
Y159220D01*
X193010Y159120D01*
X192810D01*
X192710Y159220D01*
X88668Y144623D02*
G03*
X88668Y146985I1J1181D01*
G01*
X244422Y146985D02*
G03*
X244422Y144623I-2J-1181D01*
G01*
X88668Y127053D02*
Y144623D01*
Y146985D02*
Y174022D01*
X244422D01*
Y146985D02*
Y174022D01*
Y127053D02*
Y144623D01*
X88668Y127053D02*
X244422D01*
D21*
X144420Y169993D02*
X145420D01*
X144420Y149993D02*
X145420D01*
X150410Y169993D02*
X151410D01*
X150410Y149993D02*
X151410D01*
X145420Y169243D02*
Y169993D01*
X151410Y169243D02*
Y169993D01*
X144420Y149993D02*
Y169993D01*
X145420Y149993D02*
Y169243D01*
X150410Y149993D02*
Y169993D01*
X151410Y149993D02*
Y169243D01*
D22*
X145420Y169993D02*
X150410D01*
X145420Y149993D02*
X150410D01*
D23*
X125174Y170666D02*
X125488D01*
X125174D02*
Y171059D01*
X125488Y169445D02*
Y170666D01*
X119662Y171059D02*
X125174D01*
X132674Y170666D02*
Y171059D01*
Y167162D02*
Y169445D01*
X132988D02*
Y170666D01*
X132674Y169445D02*
X132988D01*
X132674Y170666D02*
X132988D01*
X155008Y146985D02*
Y174022D01*
X156976Y169445D02*
Y170666D01*
X126822Y133560D02*
X132334D01*
Y133166D02*
Y133560D01*
Y133166D02*
X132649D01*
Y131946D02*
Y133166D01*
X132334Y131946D02*
X132649D01*
X132334Y129662D02*
Y131946D01*
Y129662D02*
X132649D01*
Y128442D02*
Y129662D01*
X132334Y128442D02*
X132649D01*
X132334Y128048D02*
Y128442D01*
X126822Y128048D02*
X132334D01*
X126822D02*
Y128442D01*
X126507D02*
X126822D01*
X126507D02*
Y129662D01*
X126822D01*
Y131946D01*
X126507D02*
X126822D01*
X126507D02*
Y133166D01*
X126822D01*
Y133560D01*
X206978Y141060D02*
X212490D01*
Y140666D02*
Y141060D01*
Y140666D02*
X212805D01*
Y139446D02*
Y140666D01*
X212490Y139446D02*
X212805D01*
X212490Y137162D02*
Y139446D01*
Y137162D02*
X212805D01*
Y135941D02*
Y137162D01*
X212490Y135941D02*
X212805D01*
X212490Y135548D02*
Y135941D01*
X206978Y135548D02*
X212490D01*
X206978D02*
Y135941D01*
X206663D02*
X206978D01*
X206663D02*
Y137162D01*
X206978D01*
Y139446D01*
X206663D02*
X206978D01*
X206663D02*
Y140666D01*
X206978D01*
Y141060D01*
X167005Y133560D02*
X172517D01*
Y133166D02*
Y133560D01*
Y133166D02*
X172832D01*
Y131946D02*
Y133166D01*
X172517Y131946D02*
X172832D01*
X172517Y129662D02*
Y131946D01*
Y129662D02*
X172832D01*
Y128442D02*
Y129662D01*
X172517Y128442D02*
X172832D01*
X172517Y128048D02*
Y128442D01*
X167005Y128048D02*
X172517D01*
X167005D02*
Y128442D01*
X166691D02*
X167005D01*
X166691D02*
Y129662D01*
X167005D01*
Y131946D01*
X166691D02*
X167005D01*
X166691D02*
Y133166D01*
X167005D01*
Y133560D01*
X94349Y141060D02*
X99861D01*
Y140666D02*
Y141060D01*
Y140666D02*
X100176D01*
Y139446D02*
Y140666D01*
X99861Y139446D02*
X100176D01*
X99861Y137162D02*
Y139446D01*
Y137162D02*
X100176D01*
Y135941D02*
Y137162D01*
X99861Y135941D02*
X100176D01*
X99861Y135548D02*
Y135941D01*
X94349Y135548D02*
X99861D01*
X94349D02*
Y135941D01*
X94034D02*
X94349D01*
X94034D02*
Y137162D01*
X94349D01*
Y139446D01*
X94034D02*
X94349D01*
X94034D02*
Y140666D01*
X94349D01*
Y141060D01*
X209791Y163559D02*
X215303D01*
Y163166D02*
Y163559D01*
Y163166D02*
X215618D01*
Y161945D02*
Y163166D01*
X215303Y161945D02*
X215618D01*
X215303Y159662D02*
Y161945D01*
Y159662D02*
X215618D01*
Y158441D02*
Y159662D01*
X215303Y158441D02*
X215618D01*
X215303Y158048D02*
Y158441D01*
X209791Y158048D02*
X215303D01*
X209791D02*
Y158441D01*
X209476D02*
X209791D01*
X209476D02*
Y159662D01*
X209791D01*
Y161945D01*
X209476D02*
X209791D01*
X209476D02*
Y163166D01*
X209791D01*
Y163559D01*
X155008Y127053D02*
Y144623D01*
Y164611D02*
Y174022D01*
X89662Y171059D02*
X95174D01*
Y170666D02*
Y171059D01*
Y170666D02*
X95489D01*
Y169445D02*
Y170666D01*
X95174Y169445D02*
X95489D01*
X95174Y167162D02*
Y169445D01*
Y167162D02*
X95489D01*
Y165941D02*
Y167162D01*
X95174Y165941D02*
X95489D01*
X95174Y165548D02*
Y165941D01*
X89662Y165548D02*
X95174D01*
X89662D02*
Y165941D01*
X89347D02*
X89662D01*
X89347D02*
Y167162D01*
X89662D01*
Y169445D01*
X89347D02*
X89662D01*
X89347D02*
Y170666D01*
X89662D01*
Y171059D01*
X104662D02*
X110174D01*
Y170666D02*
Y171059D01*
Y170666D02*
X110489D01*
Y169445D02*
Y170666D01*
X110174Y169445D02*
X110489D01*
X110174Y167162D02*
Y169445D01*
Y167162D02*
X110489D01*
Y165941D02*
Y167162D01*
X110174Y165941D02*
X110489D01*
X110174Y165548D02*
Y165941D01*
X104662Y165548D02*
X110174D01*
X104662D02*
Y165941D01*
X104347D02*
X104662D01*
X104347D02*
Y167162D01*
X104662D01*
Y169445D01*
X104347D02*
X104662D01*
X104347D02*
Y170666D01*
X104662D01*
Y171059D01*
X112162D02*
X117674D01*
Y170666D02*
Y171059D01*
Y170666D02*
X117989D01*
Y169445D02*
Y170666D01*
X117674Y169445D02*
X117989D01*
X117674Y167162D02*
Y169445D01*
Y167162D02*
X117989D01*
Y165941D02*
Y167162D01*
X117674Y165941D02*
X117989D01*
X117674Y165548D02*
Y165941D01*
X112162Y165548D02*
X117674D01*
X112162D02*
Y165941D01*
X111847D02*
X112162D01*
X111847D02*
Y167162D01*
X112162D01*
Y169445D01*
X111847D02*
X112162D01*
X111847D02*
Y170666D01*
X112162D01*
Y171059D01*
X125174Y169445D02*
X125488D01*
X125174Y167162D02*
Y169445D01*
Y167162D02*
X125488D01*
Y165941D02*
Y167162D01*
X125174Y165941D02*
X125488D01*
X125174Y165548D02*
Y165941D01*
X119662Y165548D02*
X125174D01*
X119662D02*
Y165941D01*
X119347D02*
X119662D01*
X119347D02*
Y167162D01*
X119662D01*
Y169445D01*
X119347D02*
X119662D01*
X119347D02*
Y170666D01*
X119662D01*
Y171059D01*
X127162D02*
X132674D01*
Y167162D02*
X132988D01*
Y165941D02*
Y167162D01*
X132674Y165941D02*
X132988D01*
X132674Y165548D02*
Y165941D01*
X127162Y165548D02*
X132674D01*
X127162D02*
Y165941D01*
X126847D02*
X127162D01*
X126847D02*
Y167162D01*
X127162D01*
Y169445D01*
X126847D02*
X127162D01*
X126847D02*
Y170666D01*
X127162D01*
Y171059D01*
X157291D02*
X162803D01*
Y170666D02*
Y171059D01*
Y170666D02*
X163118D01*
Y169445D02*
Y170666D01*
X162803Y169445D02*
X163118D01*
X162803Y167162D02*
Y169445D01*
Y167162D02*
X163118D01*
Y165941D02*
Y167162D01*
X162803Y165941D02*
X163118D01*
X162803Y165548D02*
Y165941D01*
X157291Y165548D02*
X162803D01*
X157291D02*
Y165941D01*
X156976D02*
X157291D01*
X156976D02*
Y167162D01*
X157291D01*
Y169445D01*
X156976D02*
X157291D01*
X156976Y170666D02*
X157291D01*
Y171059D01*
X164791D02*
X170303D01*
Y170666D02*
Y171059D01*
Y170666D02*
X170618D01*
Y169445D02*
Y170666D01*
X170303Y169445D02*
X170618D01*
X170303Y167162D02*
Y169445D01*
Y167162D02*
X170618D01*
Y165941D02*
Y167162D01*
X170303Y165941D02*
X170618D01*
X170303Y165548D02*
Y165941D01*
X164791Y165548D02*
X170303D01*
X164791D02*
Y165941D01*
X164476D02*
X164791D01*
X164476D02*
Y167162D01*
X164791D01*
Y169445D01*
X164476D02*
X164791D01*
X164476D02*
Y170666D01*
X164791D01*
Y171059D01*
X172291D02*
X177803D01*
Y170666D02*
Y171059D01*
Y170666D02*
X178118D01*
Y169445D02*
Y170666D01*
X177803Y169445D02*
X178118D01*
X177803Y167162D02*
Y169445D01*
Y167162D02*
X178118D01*
Y165941D02*
Y167162D01*
X177803Y165941D02*
X178118D01*
X177803Y165548D02*
Y165941D01*
X172291Y165548D02*
X177803D01*
X172291D02*
Y165941D01*
X171976D02*
X172291D01*
X171976D02*
Y167162D01*
X172291D01*
Y169445D01*
X171976D02*
X172291D01*
X171976D02*
Y170666D01*
X172291D01*
Y171059D01*
X179791D02*
X185303D01*
Y170666D02*
Y171059D01*
Y170666D02*
X185618D01*
Y169445D02*
Y170666D01*
X185303Y169445D02*
X185618D01*
X185303Y167162D02*
Y169445D01*
Y167162D02*
X185618D01*
Y165941D02*
Y167162D01*
X185303Y165941D02*
X185618D01*
X185303Y165548D02*
Y165941D01*
X179791Y165548D02*
X185303D01*
X179791D02*
Y165941D01*
X179476D02*
X179791D01*
X179476D02*
Y167162D01*
X179791D01*
Y169445D01*
X179476D02*
X179791D01*
X179476D02*
Y170666D01*
X179791D01*
Y171059D01*
X191041D02*
X196553D01*
Y170666D02*
Y171059D01*
Y170666D02*
X196868D01*
Y169445D02*
Y170666D01*
X196553Y169445D02*
X196868D01*
X196553Y167162D02*
Y169445D01*
Y167162D02*
X196868D01*
Y165941D02*
Y167162D01*
X196553Y165941D02*
X196868D01*
X196553Y165548D02*
Y165941D01*
X191041Y165548D02*
X196553D01*
X191041D02*
Y165941D01*
X190726D02*
X191041D01*
X190726D02*
Y167162D01*
X191041D01*
Y169445D01*
X190726D02*
X191041D01*
X190726D02*
Y170666D01*
X191041D01*
Y171059D01*
X198541D02*
X204053D01*
Y170666D02*
Y171059D01*
Y170666D02*
X204368D01*
Y169445D02*
Y170666D01*
X204053Y169445D02*
X204368D01*
X204053Y167162D02*
Y169445D01*
Y167162D02*
X204368D01*
Y165941D02*
Y167162D01*
X204053Y165941D02*
X204368D01*
X204053Y165548D02*
Y165941D01*
X198541Y165548D02*
X204053D01*
X198541D02*
Y165941D01*
X198226D02*
X198541D01*
X198226D02*
Y167162D01*
X198541D01*
Y169445D01*
X198226D02*
X198541D01*
X198226D02*
Y170666D01*
X198541D01*
Y171059D01*
X206041D02*
X211553D01*
Y170666D02*
Y171059D01*
Y170666D02*
X211868D01*
Y169445D02*
Y170666D01*
X211553Y169445D02*
X211868D01*
X211553Y167162D02*
Y169445D01*
Y167162D02*
X211868D01*
Y165941D02*
Y167162D01*
X211553Y165941D02*
X211868D01*
X211553Y165548D02*
Y165941D01*
X206041Y165548D02*
X211553D01*
X206041D02*
Y165941D01*
X205726D02*
X206041D01*
X205726D02*
Y167162D01*
X206041D01*
Y169445D01*
X205726D02*
X206041D01*
X205726D02*
Y170666D01*
X206041D01*
Y171059D01*
X213541D02*
X219053D01*
Y170666D02*
Y171059D01*
Y170666D02*
X219368D01*
Y169445D02*
Y170666D01*
X219053Y169445D02*
X219368D01*
X219053Y167162D02*
Y169445D01*
Y167162D02*
X219368D01*
Y165941D02*
Y167162D01*
X219053Y165941D02*
X219368D01*
X219053Y165548D02*
Y165941D01*
X213541Y165548D02*
X219053D01*
X213541D02*
Y165941D01*
X213226D02*
X213541D01*
X213226D02*
Y167162D01*
X213541D01*
Y169445D01*
X213226D02*
X213541D01*
X213226D02*
Y170666D01*
X213541D01*
Y171059D01*
X222916D02*
X228428D01*
Y170666D02*
Y171059D01*
Y170666D02*
X228743D01*
Y169445D02*
Y170666D01*
X228428Y169445D02*
X228743D01*
X228428Y167162D02*
Y169445D01*
Y167162D02*
X228743D01*
Y165941D02*
Y167162D01*
X228428Y165941D02*
X228743D01*
X228428Y165548D02*
Y165941D01*
X222916Y165548D02*
X228428D01*
X222916D02*
Y165941D01*
X222601D02*
X222916D01*
X222601D02*
Y167162D01*
X222916D01*
Y169445D01*
X222601D02*
X222916D01*
X222601D02*
Y170666D01*
X222916D01*
Y171059D01*
X230416D02*
X235928D01*
Y170666D02*
Y171059D01*
Y170666D02*
X236243D01*
Y169445D02*
Y170666D01*
X235928Y169445D02*
X236243D01*
X235928Y167162D02*
Y169445D01*
Y167162D02*
X236243D01*
Y165941D02*
Y167162D01*
X235928Y165941D02*
X236243D01*
X235928Y165548D02*
Y165941D01*
X230416Y165548D02*
X235928D01*
X230416D02*
Y165941D01*
X230101D02*
X230416D01*
X230101D02*
Y167162D01*
X230416D01*
Y169445D01*
X230101D02*
X230416D01*
X230101D02*
Y170666D01*
X230416D01*
Y171059D01*
X237916D02*
X243428D01*
Y170666D02*
Y171059D01*
Y170666D02*
X243743D01*
Y169445D02*
Y170666D01*
X243428Y169445D02*
X243743D01*
X243428Y167162D02*
Y169445D01*
Y167162D02*
X243743D01*
Y165941D02*
Y167162D01*
X243428Y165941D02*
X243743D01*
X243428Y165548D02*
Y165941D01*
X237916Y165548D02*
X243428D01*
X237916D02*
Y165941D01*
X237601D02*
X237916D01*
X237601D02*
Y167162D01*
X237916D01*
Y169445D01*
X237601D02*
X237916D01*
X237601D02*
Y170666D01*
X237916D01*
Y171059D01*
X89662Y163559D02*
X95174D01*
Y163166D02*
Y163559D01*
Y163166D02*
X95489D01*
Y161945D02*
Y163166D01*
X95174Y161945D02*
X95489D01*
X95174Y159662D02*
Y161945D01*
Y159662D02*
X95489D01*
Y158441D02*
Y159662D01*
X95174Y158441D02*
X95489D01*
X95174Y158048D02*
Y158441D01*
X89662Y158048D02*
X95174D01*
X89662D02*
Y158441D01*
X89347D02*
X89662D01*
X89347D02*
Y159662D01*
X89662D01*
Y161945D01*
X89347D02*
X89662D01*
X89347D02*
Y163166D01*
X89662D01*
Y163559D01*
X97162D02*
X102674D01*
Y163166D02*
Y163559D01*
Y163166D02*
X102989D01*
Y161945D02*
Y163166D01*
X102674Y161945D02*
X102989D01*
X102674Y159662D02*
Y161945D01*
Y159662D02*
X102989D01*
Y158441D02*
Y159662D01*
X102674Y158441D02*
X102989D01*
X102674Y158048D02*
Y158441D01*
X97162Y158048D02*
X102674D01*
X97162D02*
Y158441D01*
X96847D02*
X97162D01*
X96847D02*
Y159662D01*
X97162D01*
Y161945D01*
X96847D02*
X97162D01*
X96847D02*
Y163166D01*
X97162D01*
Y163559D01*
X104662D02*
X110174D01*
Y163166D02*
Y163559D01*
Y163166D02*
X110489D01*
Y161945D02*
Y163166D01*
X110174Y161945D02*
X110489D01*
X110174Y159662D02*
Y161945D01*
Y159662D02*
X110489D01*
Y158441D02*
Y159662D01*
X110174Y158441D02*
X110489D01*
X110174Y158048D02*
Y158441D01*
X104662Y158048D02*
X110174D01*
X104662D02*
Y158441D01*
X104347D02*
X104662D01*
X104347D02*
Y159662D01*
X104662D01*
Y161945D01*
X104347D02*
X104662D01*
X104347D02*
Y163166D01*
X104662D01*
Y163559D01*
X112162D02*
X117674D01*
Y163166D02*
Y163559D01*
Y163166D02*
X117989D01*
Y161945D02*
Y163166D01*
X117674Y161945D02*
X117989D01*
X117674Y159662D02*
Y161945D01*
Y159662D02*
X117989D01*
Y158441D02*
Y159662D01*
X117674Y158441D02*
X117989D01*
X117674Y158048D02*
Y158441D01*
X112162Y158048D02*
X117674D01*
X112162D02*
Y158441D01*
X111847D02*
X112162D01*
X111847D02*
Y159662D01*
X112162D01*
Y161945D01*
X111847D02*
X112162D01*
X111847D02*
Y163166D01*
X112162D01*
Y163559D01*
X119662D02*
X125174D01*
Y163166D02*
Y163559D01*
Y163166D02*
X125488D01*
Y161945D02*
Y163166D01*
X125174Y161945D02*
X125488D01*
X125174Y159662D02*
Y161945D01*
Y159662D02*
X125488D01*
Y158441D02*
Y159662D01*
X125174Y158441D02*
X125488D01*
X125174Y158048D02*
Y158441D01*
X119662Y158048D02*
X125174D01*
X119662D02*
Y158441D01*
X119347D02*
X119662D01*
X119347D02*
Y159662D01*
X119662D01*
Y161945D01*
X119347D02*
X119662D01*
X119347D02*
Y163166D01*
X119662D01*
Y163559D01*
X127162D02*
X132674D01*
Y163166D02*
Y163559D01*
Y163166D02*
X132988D01*
Y161945D02*
Y163166D01*
X132674Y161945D02*
X132988D01*
X132674Y159662D02*
Y161945D01*
Y159662D02*
X132988D01*
Y158441D02*
Y159662D01*
X132674Y158441D02*
X132988D01*
X132674Y158048D02*
Y158441D01*
X127162Y158048D02*
X132674D01*
X127162D02*
Y158441D01*
X126847D02*
X127162D01*
X126847D02*
Y159662D01*
X127162D01*
Y161945D01*
X126847D02*
X127162D01*
X126847D02*
Y163166D01*
X127162D01*
Y163559D01*
X134661D02*
X140174D01*
Y163166D02*
Y163559D01*
Y163166D02*
X140489D01*
Y161945D02*
Y163166D01*
X140174Y161945D02*
X140489D01*
X140174Y159662D02*
Y161945D01*
Y159662D02*
X140489D01*
Y158441D02*
Y159662D01*
X140174Y158441D02*
X140489D01*
X140174Y158048D02*
Y158441D01*
X134661Y158048D02*
X140174D01*
X134661D02*
Y158441D01*
X134347D02*
X134661D01*
X134347D02*
Y159662D01*
X134661D01*
Y161945D01*
X134347D02*
X134661D01*
X134347D02*
Y163166D01*
X134661D01*
Y163559D01*
X161041D02*
X166553D01*
Y163166D02*
Y163559D01*
Y163166D02*
X166868D01*
Y161945D02*
Y163166D01*
X166553Y161945D02*
X166868D01*
X166553Y159662D02*
Y161945D01*
Y159662D02*
X166868D01*
Y158441D02*
Y159662D01*
X166553Y158441D02*
X166868D01*
X166553Y158048D02*
Y158441D01*
X161041Y158048D02*
X166553D01*
X161041D02*
Y158441D01*
X160726D02*
X161041D01*
X160726D02*
Y159662D01*
X161041D01*
Y161945D01*
X160726D02*
X161041D01*
X160726D02*
Y163166D01*
X161041D01*
Y163559D01*
X168541D02*
X174053D01*
Y163166D02*
Y163559D01*
Y163166D02*
X174368D01*
Y161945D02*
Y163166D01*
X174053Y161945D02*
X174368D01*
X174053Y159662D02*
Y161945D01*
Y159662D02*
X174368D01*
Y158441D02*
Y159662D01*
X174053Y158441D02*
X174368D01*
X174053Y158048D02*
Y158441D01*
X168541Y158048D02*
X174053D01*
X168541D02*
Y158441D01*
X168226D02*
X168541D01*
X168226D02*
Y159662D01*
X168541D01*
Y161945D01*
X168226D02*
X168541D01*
X168226D02*
Y163166D01*
X168541D01*
Y163559D01*
X176041D02*
X181553D01*
Y163166D02*
Y163559D01*
Y163166D02*
X181868D01*
Y161945D02*
Y163166D01*
X181553Y161945D02*
X181868D01*
X181553Y159662D02*
Y161945D01*
Y159662D02*
X181868D01*
Y158441D02*
Y159662D01*
X181553Y158441D02*
X181868D01*
X181553Y158048D02*
Y158441D01*
X176041Y158048D02*
X181553D01*
X176041D02*
Y158441D01*
X175726D02*
X176041D01*
X175726D02*
Y159662D01*
X176041D01*
Y161945D01*
X175726D02*
X176041D01*
X175726D02*
Y163166D01*
X176041D01*
Y163559D01*
X183541D02*
X189053D01*
Y163166D02*
Y163559D01*
Y163166D02*
X189368D01*
Y161945D02*
Y163166D01*
X189053Y161945D02*
X189368D01*
X189053Y159662D02*
Y161945D01*
Y159662D02*
X189368D01*
Y158441D02*
Y159662D01*
X189053Y158441D02*
X189368D01*
X189053Y158048D02*
Y158441D01*
X183541Y158048D02*
X189053D01*
X183541D02*
Y158441D01*
X183226D02*
X183541D01*
X183226D02*
Y159662D01*
X183541D01*
Y161945D01*
X183226D02*
X183541D01*
X183226D02*
Y163166D01*
X183541D01*
Y163559D01*
X191041D02*
X196553D01*
Y163166D02*
Y163559D01*
Y163166D02*
X196868D01*
Y161945D02*
Y163166D01*
X196553Y161945D02*
X196868D01*
X196553Y159662D02*
Y161945D01*
Y159662D02*
X196868D01*
Y158441D02*
Y159662D01*
X196553Y158441D02*
X196868D01*
X196553Y158048D02*
Y158441D01*
X191041Y158048D02*
X196553D01*
X191041D02*
Y158441D01*
X190726D02*
X191041D01*
X190726D02*
Y159662D01*
X191041D01*
Y161945D01*
X190726D02*
X191041D01*
X190726D02*
Y163166D01*
X191041D01*
Y163559D01*
X198541D02*
X204053D01*
Y163166D02*
Y163559D01*
Y163166D02*
X204368D01*
Y161945D02*
Y163166D01*
X204053Y161945D02*
X204368D01*
X204053Y159662D02*
Y161945D01*
Y159662D02*
X204368D01*
Y158441D02*
Y159662D01*
X204053Y158441D02*
X204368D01*
X204053Y158048D02*
Y158441D01*
X198541Y158048D02*
X204053D01*
X198541D02*
Y158441D01*
X198226D02*
X198541D01*
X198226D02*
Y159662D01*
X198541D01*
Y161945D01*
X198226D02*
X198541D01*
X198226D02*
Y163166D01*
X198541D01*
Y163559D01*
X222916D02*
X228428D01*
Y163166D02*
Y163559D01*
Y163166D02*
X228743D01*
Y161945D02*
Y163166D01*
X228428Y161945D02*
X228743D01*
X228428Y159662D02*
Y161945D01*
Y159662D02*
X228743D01*
Y158441D02*
Y159662D01*
X228428Y158441D02*
X228743D01*
X228428Y158048D02*
Y158441D01*
X222916Y158048D02*
X228428D01*
X222916D02*
Y158441D01*
X222601D02*
X222916D01*
X222601D02*
Y159662D01*
X222916D01*
Y161945D01*
X222601D02*
X222916D01*
X222601D02*
Y163166D01*
X222916D01*
Y163559D01*
X230416D02*
X235928D01*
Y163166D02*
Y163559D01*
Y163166D02*
X236243D01*
Y161945D02*
Y163166D01*
X235928Y161945D02*
X236243D01*
X235928Y159662D02*
Y161945D01*
Y159662D02*
X236243D01*
Y158441D02*
Y159662D01*
X235928Y158441D02*
X236243D01*
X235928Y158048D02*
Y158441D01*
X230416Y158048D02*
X235928D01*
X230416D02*
Y158441D01*
X230101D02*
X230416D01*
X230101D02*
Y159662D01*
X230416D01*
Y161945D01*
X230101D02*
X230416D01*
X230101D02*
Y163166D01*
X230416D01*
Y163559D01*
X237916D02*
X243428D01*
Y163166D02*
Y163559D01*
Y163166D02*
X243743D01*
Y161945D02*
Y163166D01*
X243428Y161945D02*
X243743D01*
X243428Y159662D02*
Y161945D01*
Y159662D02*
X243743D01*
Y158441D02*
Y159662D01*
X243428Y158441D02*
X243743D01*
X243428Y158048D02*
Y158441D01*
X237916Y158048D02*
X243428D01*
X237916D02*
Y158441D01*
X237601D02*
X237916D01*
X237601D02*
Y159662D01*
X237916D01*
Y161945D01*
X237601D02*
X237916D01*
X237601D02*
Y163166D01*
X237916D01*
Y163559D01*
X91537Y156059D02*
X97049D01*
Y155666D02*
Y156059D01*
Y155666D02*
X97363D01*
Y154445D02*
Y155666D01*
X97049Y154445D02*
X97363D01*
X97049Y152162D02*
Y154445D01*
Y152162D02*
X97363D01*
Y150941D02*
Y152162D01*
X97049Y150941D02*
X97363D01*
X97049Y150548D02*
Y150941D01*
X91537Y150548D02*
X97049D01*
X91537D02*
Y150941D01*
X91222D02*
X91537D01*
X91222D02*
Y152162D01*
X91537D01*
Y154445D01*
X91222D02*
X91537D01*
X91222D02*
Y155666D01*
X91537D01*
Y156059D01*
X100912D02*
X106424D01*
Y155666D02*
Y156059D01*
Y155666D02*
X106739D01*
Y154445D02*
Y155666D01*
X106424Y154445D02*
X106739D01*
X106424Y152162D02*
Y154445D01*
Y152162D02*
X106739D01*
Y150941D02*
Y152162D01*
X106424Y150941D02*
X106739D01*
X106424Y150548D02*
Y150941D01*
X100912Y150548D02*
X106424D01*
X100912D02*
Y150941D01*
X100597D02*
X100912D01*
X100597D02*
Y152162D01*
X100912D01*
Y154445D01*
X100597D02*
X100912D01*
X100597D02*
Y155666D01*
X100912D01*
Y156059D01*
X108412D02*
X113924D01*
Y155666D02*
Y156059D01*
Y155666D02*
X114239D01*
Y154445D02*
Y155666D01*
X113924Y154445D02*
X114239D01*
X113924Y152162D02*
Y154445D01*
Y152162D02*
X114239D01*
Y150941D02*
Y152162D01*
X113924Y150941D02*
X114239D01*
X113924Y150548D02*
Y150941D01*
X108412Y150548D02*
X113924D01*
X108412D02*
Y150941D01*
X108097D02*
X108412D01*
X108097D02*
Y152162D01*
X108412D01*
Y154445D01*
X108097D02*
X108412D01*
X108097D02*
Y155666D01*
X108412D01*
Y156059D01*
X115912D02*
X121424D01*
Y155666D02*
Y156059D01*
Y155666D02*
X121739D01*
Y154445D02*
Y155666D01*
X121424Y154445D02*
X121739D01*
X121424Y152162D02*
Y154445D01*
Y152162D02*
X121739D01*
Y150941D02*
Y152162D01*
X121424Y150941D02*
X121739D01*
X121424Y150548D02*
Y150941D01*
X115912Y150548D02*
X121424D01*
X115912D02*
Y150941D01*
X115597D02*
X115912D01*
X115597D02*
Y152162D01*
X115912D01*
Y154445D01*
X115597D02*
X115912D01*
X115597D02*
Y155666D01*
X115912D01*
Y156059D01*
X123412D02*
X128924D01*
Y155666D02*
Y156059D01*
Y155666D02*
X129239D01*
Y154445D02*
Y155666D01*
X128924Y154445D02*
X129239D01*
X128924Y152162D02*
Y154445D01*
Y152162D02*
X129239D01*
Y150941D02*
Y152162D01*
X128924Y150941D02*
X129239D01*
X128924Y150548D02*
Y150941D01*
X123412Y150548D02*
X128924D01*
X123412D02*
Y150941D01*
X123097D02*
X123412D01*
X123097D02*
Y152162D01*
X123412D01*
Y154445D01*
X123097D02*
X123412D01*
X123097D02*
Y155666D01*
X123412D01*
Y156059D01*
X130912D02*
X136424D01*
Y155666D02*
Y156059D01*
Y155666D02*
X136739D01*
Y154445D02*
Y155666D01*
X136424Y154445D02*
X136739D01*
X136424Y152162D02*
Y154445D01*
Y152162D02*
X136739D01*
Y150941D02*
Y152162D01*
X136424Y150941D02*
X136739D01*
X136424Y150548D02*
Y150941D01*
X130912Y150548D02*
X136424D01*
X130912D02*
Y150941D01*
X130597D02*
X130912D01*
X130597D02*
Y152162D01*
X130912D01*
Y154445D01*
X130597D02*
X130912D01*
X130597D02*
Y155666D01*
X130912D01*
Y156059D01*
X157291D02*
X162803D01*
Y155666D02*
Y156059D01*
Y155666D02*
X163118D01*
Y154445D02*
Y155666D01*
X162803Y154445D02*
X163118D01*
X162803Y152162D02*
Y154445D01*
Y152162D02*
X163118D01*
Y150941D02*
Y152162D01*
X162803Y150941D02*
X163118D01*
X162803Y150548D02*
Y150941D01*
X157291Y150548D02*
X162803D01*
X157291D02*
Y150941D01*
X156976D02*
X157291D01*
X156976D02*
Y152162D01*
X157291D01*
Y154445D01*
X156976D02*
X157291D01*
X156976D02*
Y155666D01*
X157291D01*
Y156059D01*
X164791D02*
X170303D01*
Y155666D02*
Y156059D01*
Y155666D02*
X170618D01*
Y154445D02*
Y155666D01*
X170303Y154445D02*
X170618D01*
X170303Y152162D02*
Y154445D01*
Y152162D02*
X170618D01*
Y150941D02*
Y152162D01*
X170303Y150941D02*
X170618D01*
X170303Y150548D02*
Y150941D01*
X164791Y150548D02*
X170303D01*
X164791D02*
Y150941D01*
X164476D02*
X164791D01*
X164476D02*
Y152162D01*
X164791D01*
Y154445D01*
X164476D02*
X164791D01*
X164476D02*
Y155666D01*
X164791D01*
Y156059D01*
X172291D02*
X177803D01*
Y155666D02*
Y156059D01*
Y155666D02*
X178118D01*
Y154445D02*
Y155666D01*
X177803Y154445D02*
X178118D01*
X177803Y152162D02*
Y154445D01*
Y152162D02*
X178118D01*
Y150941D02*
Y152162D01*
X177803Y150941D02*
X178118D01*
X177803Y150548D02*
Y150941D01*
X172291Y150548D02*
X177803D01*
X172291D02*
Y150941D01*
X171976D02*
X172291D01*
X171976D02*
Y152162D01*
X172291D01*
Y154445D01*
X171976D02*
X172291D01*
X171976D02*
Y155666D01*
X172291D01*
Y156059D01*
X179791D02*
X185303D01*
Y155666D02*
Y156059D01*
Y155666D02*
X185618D01*
Y154445D02*
Y155666D01*
X185303Y154445D02*
X185618D01*
X185303Y152162D02*
Y154445D01*
Y152162D02*
X185618D01*
Y150941D02*
Y152162D01*
X185303Y150941D02*
X185618D01*
X185303Y150548D02*
Y150941D01*
X179791Y150548D02*
X185303D01*
X179791D02*
Y150941D01*
X179476D02*
X179791D01*
X179476D02*
Y152162D01*
X179791D01*
Y154445D01*
X179476D02*
X179791D01*
X179476D02*
Y155666D01*
X179791D01*
Y156059D01*
X187291D02*
X192803D01*
Y155666D02*
Y156059D01*
Y155666D02*
X193118D01*
Y154445D02*
Y155666D01*
X192803Y154445D02*
X193118D01*
X192803Y152162D02*
Y154445D01*
Y152162D02*
X193118D01*
Y150941D02*
Y152162D01*
X192803Y150941D02*
X193118D01*
X192803Y150548D02*
Y150941D01*
X187291Y150548D02*
X192803D01*
X187291D02*
Y150941D01*
X186976D02*
X187291D01*
X186976D02*
Y152162D01*
X187291D01*
X186976Y154445D02*
Y155666D01*
X187291D01*
Y156059D01*
X194791D02*
X200303D01*
Y155666D02*
Y156059D01*
Y155666D02*
X200618D01*
Y154445D02*
Y155666D01*
X200303Y154445D02*
X200618D01*
X200303Y152162D02*
Y154445D01*
Y152162D02*
X200618D01*
Y150941D02*
Y152162D01*
X200303Y150941D02*
X200618D01*
X200303Y150548D02*
Y150941D01*
X194791Y150548D02*
X200303D01*
X194791D02*
Y150941D01*
X194476D02*
X194791D01*
X194476D02*
Y152162D01*
X194791D01*
Y154445D01*
X194476D02*
X194791D01*
X194476D02*
Y155666D01*
X194791D01*
Y156059D01*
X202291D02*
X207803D01*
Y155666D02*
Y156059D01*
Y155666D02*
X208118D01*
Y154445D02*
Y155666D01*
X207803Y154445D02*
X208118D01*
X207803Y152162D02*
Y154445D01*
Y152162D02*
X208118D01*
Y150941D02*
Y152162D01*
X207803Y150941D02*
X208118D01*
X207803Y150548D02*
Y150941D01*
X202291Y150548D02*
X207803D01*
X202291D02*
Y150941D01*
X201976D02*
X202291D01*
X201976D02*
Y152162D01*
X202291D01*
Y154445D01*
X201976D02*
X202291D01*
X201976D02*
Y155666D01*
X202291D01*
Y156059D01*
X211666D02*
X217178D01*
Y155666D02*
Y156059D01*
Y155666D02*
X217493D01*
Y154445D02*
Y155666D01*
X217178Y154445D02*
X217493D01*
X217178Y152162D02*
Y154445D01*
Y152162D02*
X217493D01*
Y150941D02*
Y152162D01*
X217178Y150941D02*
X217493D01*
X217178Y150548D02*
Y150941D01*
X211666Y150548D02*
X217178D01*
X211666D02*
Y150941D01*
X211351D02*
X211666D01*
X211351D02*
Y152162D01*
X211666D01*
Y154445D01*
X211351D02*
X211666D01*
X211351D02*
Y155666D01*
X211666D01*
Y156059D01*
X222916D02*
X228428D01*
Y155666D02*
Y156059D01*
Y155666D02*
X228743D01*
Y154445D02*
Y155666D01*
X228428Y154445D02*
X228743D01*
X228428Y152162D02*
Y154445D01*
Y152162D02*
X228743D01*
Y150941D02*
Y152162D01*
X228428Y150941D02*
X228743D01*
X228428Y150548D02*
Y150941D01*
X222916Y150548D02*
X228428D01*
X222916D02*
Y150941D01*
X222601D02*
X222916D01*
X222601D02*
Y152162D01*
X222916D01*
Y154445D01*
X222601D02*
X222916D01*
X222601D02*
Y155666D01*
X222916D01*
Y156059D01*
X230416D02*
X235928D01*
Y155666D02*
Y156059D01*
Y155666D02*
X236243D01*
Y154445D02*
Y155666D01*
X235928Y154445D02*
X236243D01*
X235928Y152162D02*
Y154445D01*
Y152162D02*
X236243D01*
Y150941D02*
Y152162D01*
X235928Y150941D02*
X236243D01*
X235928Y150548D02*
Y150941D01*
X230416Y150548D02*
X235928D01*
X230416D02*
Y150941D01*
X230101D02*
X230416D01*
X230101D02*
Y152162D01*
X230416D01*
Y154445D01*
X230101D02*
X230416D01*
X230101D02*
Y155666D01*
X230416D01*
Y156059D01*
X237916D02*
X243428D01*
Y155666D02*
Y156059D01*
Y155666D02*
X243743D01*
Y154445D02*
Y155666D01*
X243428Y154445D02*
X243743D01*
X243428Y152162D02*
Y154445D01*
Y152162D02*
X243743D01*
Y150941D02*
Y152162D01*
X243428Y150941D02*
X243743D01*
X243428Y150548D02*
Y150941D01*
X237916Y150548D02*
X243428D01*
X237916D02*
Y150941D01*
X237601D02*
X237916D01*
X237601D02*
Y152162D01*
X237916D01*
Y154445D01*
X237601D02*
X237916D01*
X237601D02*
Y155666D01*
X237916D01*
Y156059D01*
X92474Y148559D02*
X97986D01*
Y148166D02*
Y148559D01*
Y148166D02*
X98301D01*
Y146946D02*
Y148166D01*
X97986Y146946D02*
X98301D01*
X97986Y144662D02*
Y146946D01*
Y144662D02*
X98301D01*
Y143441D02*
Y144662D01*
X97986Y143441D02*
X98301D01*
X97986Y143048D02*
Y143441D01*
X92474Y143048D02*
X97986D01*
X92474D02*
Y143441D01*
X92159D02*
X92474D01*
X92159D02*
Y144662D01*
X92474D01*
Y146946D01*
X92159D02*
X92474D01*
X92159D02*
Y148166D01*
X92474D01*
Y148559D01*
X102787D02*
X108299D01*
Y148166D02*
Y148559D01*
Y148166D02*
X108613D01*
Y146946D02*
Y148166D01*
X108299Y146946D02*
X108613D01*
X108299Y144662D02*
Y146946D01*
Y144662D02*
X108613D01*
Y143441D02*
Y144662D01*
X108299Y143441D02*
X108613D01*
X108299Y143048D02*
Y143441D01*
X102787Y143048D02*
X108299D01*
X102787D02*
Y143441D01*
X102472D02*
X102787D01*
X102472D02*
Y144662D01*
X102787D01*
Y146946D01*
X102472D02*
X102787D01*
X102472D02*
Y148166D01*
X102787D01*
Y148559D01*
X110287D02*
X115799D01*
Y148166D02*
Y148559D01*
Y148166D02*
X116113D01*
Y146946D02*
Y148166D01*
X115799Y146946D02*
X116113D01*
X115799Y144662D02*
Y146946D01*
Y144662D02*
X116113D01*
Y143441D02*
Y144662D01*
X115799Y143441D02*
X116113D01*
X115799Y143048D02*
Y143441D01*
X110287Y143048D02*
X115799D01*
X110287D02*
Y143441D01*
X109972D02*
X110287D01*
X109972D02*
Y144662D01*
X110287D01*
Y146946D01*
X109972D02*
X110287D01*
X109972D02*
Y148166D01*
X110287D01*
Y148559D01*
X117787D02*
X123299D01*
Y148166D02*
Y148559D01*
Y148166D02*
X123613D01*
Y146946D02*
Y148166D01*
X123299Y146946D02*
X123613D01*
X123299Y144662D02*
Y146946D01*
Y144662D02*
X123613D01*
Y143441D02*
Y144662D01*
X123299Y143441D02*
X123613D01*
X123299Y143048D02*
Y143441D01*
X117787Y143048D02*
X123299D01*
X117787D02*
Y143441D01*
X117472D02*
X117787D01*
X117472D02*
Y144662D01*
X117787D01*
Y146946D01*
X117472D02*
X117787D01*
X117472D02*
Y148166D01*
X117787D01*
Y148559D01*
X125287D02*
X130799D01*
Y148166D02*
Y148559D01*
Y148166D02*
X131113D01*
Y146946D02*
Y148166D01*
X130799Y146946D02*
X131113D01*
X130799Y144662D02*
Y146946D01*
Y144662D02*
X131113D01*
Y143441D02*
Y144662D01*
X130799Y143441D02*
X131113D01*
X130799Y143048D02*
Y143441D01*
X125287Y143048D02*
X130799D01*
X125287D02*
Y143441D01*
X124972D02*
X125287D01*
X124972D02*
Y144662D01*
X125287D01*
Y146946D01*
X124972D02*
X125287D01*
X124972D02*
Y148166D01*
X125287D01*
Y148559D01*
X132787D02*
X138299D01*
Y148166D02*
Y148559D01*
Y148166D02*
X138613D01*
Y146946D02*
Y148166D01*
X138299Y146946D02*
X138613D01*
X138299Y144662D02*
Y146946D01*
Y144662D02*
X138613D01*
Y143441D02*
Y144662D01*
X138299Y143441D02*
X138613D01*
X138299Y143048D02*
Y143441D01*
X132787Y143048D02*
X138299D01*
X132787D02*
Y143441D01*
X132472D02*
X132787D01*
X132472D02*
Y144662D01*
X132787D01*
Y146946D01*
X132472D02*
X132787D01*
X132472D02*
Y148166D01*
X132787D01*
Y148559D01*
X159166D02*
X164678D01*
Y148166D02*
Y148559D01*
Y148166D02*
X164993D01*
Y146946D02*
Y148166D01*
X164678Y146946D02*
X164993D01*
X164678Y144662D02*
Y146946D01*
Y144662D02*
X164993D01*
Y143441D02*
Y144662D01*
X164678Y143441D02*
X164993D01*
X164678Y143048D02*
Y143441D01*
X159166Y143048D02*
X164678D01*
X159166D02*
Y143441D01*
X158851D02*
X159166D01*
X158851D02*
Y144662D01*
X159166D01*
Y146946D01*
X158851D02*
X159166D01*
X158851D02*
Y148166D01*
X159166D01*
Y148559D01*
X166666D02*
X172178D01*
Y148166D02*
Y148559D01*
Y148166D02*
X172493D01*
Y146946D02*
Y148166D01*
X172178Y146946D02*
X172493D01*
X172178Y144662D02*
Y146946D01*
Y144662D02*
X172493D01*
Y143441D02*
Y144662D01*
X172178Y143441D02*
X172493D01*
X172178Y143048D02*
Y143441D01*
X166666Y143048D02*
X172178D01*
X166666D02*
Y143441D01*
X166351D02*
X166666D01*
X166351D02*
Y144662D01*
X166666D01*
Y146946D01*
X166351D02*
X166666D01*
X166351D02*
Y148166D01*
X166666D01*
Y148559D01*
X174166D02*
X179678D01*
Y148166D02*
Y148559D01*
Y148166D02*
X179993D01*
Y146946D02*
Y148166D01*
X179678Y146946D02*
X179993D01*
X179678Y144662D02*
Y146946D01*
Y144662D02*
X179993D01*
Y143441D02*
Y144662D01*
X179678Y143441D02*
X179993D01*
X179678Y143048D02*
Y143441D01*
X174166Y143048D02*
X179678D01*
X174166D02*
Y143441D01*
X173851D02*
X174166D01*
X173851D02*
Y144662D01*
X174166D01*
Y146946D01*
X173851D02*
X174166D01*
X173851D02*
Y148166D01*
X174166D01*
Y148559D01*
X181666D02*
X187178D01*
Y148166D02*
Y148559D01*
Y148166D02*
X187493D01*
Y146946D02*
Y148166D01*
X187178Y146946D02*
X187493D01*
X187178Y144662D02*
Y146946D01*
Y144662D02*
X187493D01*
Y143441D02*
Y144662D01*
X187178Y143441D02*
X187493D01*
X187178Y143048D02*
Y143441D01*
X181666Y143048D02*
X187178D01*
X181666D02*
Y143441D01*
X181351D02*
X181666D01*
X181351D02*
Y144662D01*
X181666D01*
Y146946D01*
X181351D02*
X181666D01*
X181351D02*
Y148166D01*
X181666D01*
Y148559D01*
X189166D02*
X194678D01*
Y148166D02*
Y148559D01*
Y148166D02*
X194993D01*
Y146946D02*
Y148166D01*
X194678Y146946D02*
X194993D01*
X194678Y144662D02*
Y146946D01*
Y144662D02*
X194993D01*
Y143441D02*
Y144662D01*
X194678Y143441D02*
X194993D01*
X194678Y143048D02*
Y143441D01*
X189166Y143048D02*
X194678D01*
X189166D02*
Y143441D01*
X188851D02*
X189166D01*
X188851D02*
Y144662D01*
X189166D01*
Y146946D01*
X188851D02*
X189166D01*
X188851D02*
Y148166D01*
X189166D01*
Y148559D01*
X196666D02*
X202178D01*
Y148166D02*
Y148559D01*
Y148166D02*
X202493D01*
Y146946D02*
Y148166D01*
X202178Y146946D02*
X202493D01*
X202178Y144662D02*
Y146946D01*
Y144662D02*
X202493D01*
Y143441D02*
Y144662D01*
X202178Y143441D02*
X202493D01*
X202178Y143048D02*
Y143441D01*
X196666Y143048D02*
X202178D01*
X196666D02*
Y143441D01*
X196351D02*
X196666D01*
X196351D02*
Y144662D01*
X196666D01*
Y146946D01*
X196351D02*
X196666D01*
X196351D02*
Y148166D01*
X196666D01*
Y148559D01*
X208853D02*
X214365D01*
Y148166D02*
Y148559D01*
Y148166D02*
X214680D01*
Y146946D02*
Y148166D01*
X214365Y146946D02*
X214680D01*
X214365Y144662D02*
Y146946D01*
Y144662D02*
X214680D01*
Y143441D02*
Y144662D01*
X214365Y143441D02*
X214680D01*
X214365Y143048D02*
Y143441D01*
X208853Y143048D02*
X214365D01*
X208853D02*
Y143441D01*
X208538D02*
X208853D01*
X208538D02*
Y144662D01*
X208853D01*
Y146946D01*
X208538D02*
X208853D01*
X208538D02*
Y148166D01*
X208853D01*
Y148559D01*
X106537Y141059D02*
X112049D01*
Y140666D02*
Y141059D01*
Y140666D02*
X112363D01*
Y139446D02*
Y140666D01*
X112049Y139446D02*
X112363D01*
X112049Y137162D02*
Y139446D01*
Y137162D02*
X112363D01*
Y135941D02*
Y137162D01*
X112049Y135941D02*
X112363D01*
X112049Y135548D02*
Y135941D01*
X106537Y135548D02*
X112049D01*
X106537D02*
Y135941D01*
X106222D02*
X106537D01*
X106222D02*
Y137162D01*
X106537D01*
Y139446D01*
X106222D02*
X106537D01*
X106222D02*
Y140666D01*
X106537D01*
Y141059D01*
X114037D02*
X119549D01*
Y140666D02*
Y141059D01*
Y140666D02*
X119863D01*
Y139446D02*
Y140666D01*
X119549Y139446D02*
X119863D01*
X119549Y137162D02*
Y139446D01*
Y137162D02*
X119863D01*
Y135941D02*
Y137162D01*
X119549Y135941D02*
X119863D01*
X119549Y135548D02*
Y135941D01*
X114037Y135548D02*
X119549D01*
X114037D02*
Y135941D01*
X113722D02*
X114037D01*
X113722D02*
Y137162D01*
X114037D01*
Y139446D01*
X113722D02*
X114037D01*
X113722D02*
Y140666D01*
X114037D01*
Y141059D01*
X121537D02*
X127049D01*
Y140666D02*
Y141059D01*
Y140666D02*
X127363D01*
Y139446D02*
Y140666D01*
X127049Y139446D02*
X127363D01*
X127049Y137162D02*
Y139446D01*
Y137162D02*
X127363D01*
Y135941D02*
Y137162D01*
X127049Y135941D02*
X127363D01*
X127049Y135548D02*
Y135941D01*
X121537Y135548D02*
X127049D01*
X121537D02*
Y135941D01*
X121222D02*
X121537D01*
X121222D02*
Y137162D01*
X121537D01*
Y139446D01*
X121222D02*
X121537D01*
X121222D02*
Y140666D01*
X121537D01*
Y141059D01*
X129037D02*
X134549D01*
Y140666D02*
Y141059D01*
Y140666D02*
X134863D01*
Y139446D02*
Y140666D01*
X134549Y139446D02*
X134863D01*
X134549Y137162D02*
Y139446D01*
Y137162D02*
X134863D01*
Y135941D02*
Y137162D01*
X134549Y135941D02*
X134863D01*
X134549Y135548D02*
Y135941D01*
X129037Y135548D02*
X134549D01*
X129037D02*
Y135941D01*
X128722D02*
X129037D01*
X128722D02*
Y137162D01*
X129037D01*
Y139446D01*
X128722D02*
X129037D01*
X128722D02*
Y140666D01*
X129037D01*
Y141059D01*
X136537D02*
X142049D01*
Y140666D02*
Y141059D01*
Y140666D02*
X142363D01*
Y139446D02*
Y140666D01*
X142049Y139446D02*
X142363D01*
X142049Y137162D02*
Y139446D01*
Y137162D02*
X142363D01*
Y135941D02*
Y137162D01*
X142049Y135941D02*
X142363D01*
X142049Y135548D02*
Y135941D01*
X136537Y135548D02*
X142049D01*
X136537D02*
Y135941D01*
X136222D02*
X136537D01*
X136222D02*
Y137162D01*
X136537D01*
Y139446D01*
X136222D02*
X136537D01*
X136222D02*
Y140666D01*
X136537D01*
Y141059D01*
X162916D02*
X168428D01*
Y140666D02*
Y141059D01*
Y140666D02*
X168743D01*
Y139446D02*
Y140666D01*
X168428Y139446D02*
X168743D01*
X168428Y137162D02*
Y139446D01*
Y137162D02*
X168743D01*
Y135941D02*
Y137162D01*
X168428Y135941D02*
X168743D01*
X168428Y135548D02*
Y135941D01*
X162916Y135548D02*
X168428D01*
X162916D02*
Y135941D01*
X162601D02*
X162916D01*
X162601D02*
Y137162D01*
X162916D01*
Y139446D01*
X162601D02*
X162916D01*
X162601D02*
Y140666D01*
X162916D01*
Y141059D01*
X170416D02*
X175928D01*
Y140666D02*
Y141059D01*
Y140666D02*
X176243D01*
Y139446D02*
Y140666D01*
X175928Y139446D02*
X176243D01*
X175928Y137162D02*
Y139446D01*
Y137162D02*
X176243D01*
Y135941D02*
Y137162D01*
X175928Y135941D02*
X176243D01*
X175928Y135548D02*
Y135941D01*
X170416Y135548D02*
X175928D01*
X170416D02*
Y135941D01*
X170101D02*
X170416D01*
X170101D02*
Y137162D01*
X170416D01*
Y139446D01*
X170101D02*
X170416D01*
X170101D02*
Y140666D01*
X170416D01*
Y141059D01*
X177916D02*
X183428D01*
Y140666D02*
Y141059D01*
Y140666D02*
X183743D01*
Y139446D02*
Y140666D01*
X183428Y139446D02*
X183743D01*
X183428Y137162D02*
Y139446D01*
Y137162D02*
X183743D01*
Y135941D02*
Y137162D01*
X183428Y135941D02*
X183743D01*
X183428Y135548D02*
Y135941D01*
X177916Y135548D02*
X183428D01*
X177916D02*
Y135941D01*
X177601D02*
X177916D01*
X177601D02*
Y137162D01*
X177916D01*
Y139446D01*
X177601D02*
X177916D01*
X177601D02*
Y140666D01*
X177916D01*
Y141059D01*
X185416D02*
X190928D01*
Y140666D02*
Y141059D01*
Y140666D02*
X191243D01*
Y139446D02*
Y140666D01*
X190928Y139446D02*
X191243D01*
X190928Y137162D02*
Y139446D01*
Y137162D02*
X191243D01*
Y135941D02*
Y137162D01*
X190928Y135941D02*
X191243D01*
X190928Y135548D02*
Y135941D01*
X185416Y135548D02*
X190928D01*
X185416D02*
Y135941D01*
X185101D02*
X185416D01*
X185101D02*
Y137162D01*
X185416D01*
Y139446D01*
X185101D02*
X185416D01*
X185101D02*
Y140666D01*
X185416D01*
Y141059D01*
X192916D02*
X198428D01*
Y140666D02*
Y141059D01*
Y140666D02*
X198743D01*
Y139446D02*
Y140666D01*
X198428Y139446D02*
X198743D01*
X198428Y137162D02*
Y139446D01*
Y137162D02*
X198743D01*
Y135941D02*
Y137162D01*
X198428Y135941D02*
X198743D01*
X198428Y135548D02*
Y135941D01*
X192916Y135548D02*
X198428D01*
X192916D02*
Y135941D01*
X192601D02*
X192916D01*
X192601D02*
Y137162D01*
X192916D01*
Y139446D01*
X192601D02*
X192916D01*
X192601D02*
Y140666D01*
X192916D01*
Y141059D01*
X230416D02*
X235928D01*
Y140666D02*
Y141059D01*
Y140666D02*
X236243D01*
Y139446D02*
Y140666D01*
X235928Y139446D02*
X236243D01*
X235928Y137162D02*
Y139446D01*
Y137162D02*
X236243D01*
Y135941D02*
Y137162D01*
X235928Y135941D02*
X236243D01*
X235928Y135548D02*
Y135941D01*
X230416Y135548D02*
X235928D01*
X230416D02*
Y135941D01*
X230101D02*
X230416D01*
X230101D02*
Y137162D01*
X230416D01*
Y139446D01*
X230101D02*
X230416D01*
X230101D02*
Y140666D01*
X230416D01*
Y141059D01*
X90600Y133560D02*
X96111D01*
Y133166D02*
Y133560D01*
Y133166D02*
X96426D01*
Y131946D02*
Y133166D01*
X96111Y131946D02*
X96426D01*
X96111Y129662D02*
Y131946D01*
Y129662D02*
X96426D01*
Y128442D02*
Y129662D01*
X96111Y128442D02*
X96426D01*
X96111Y128048D02*
Y128442D01*
X90600Y128048D02*
X96111D01*
X90600D02*
Y128442D01*
X90284D02*
X90600D01*
X90284D02*
Y129662D01*
X90600D01*
Y131946D01*
X90284D02*
X90600D01*
X90284D02*
Y133166D01*
X90600D01*
Y133560D01*
X99974D02*
X105486D01*
Y133166D02*
Y133560D01*
Y133166D02*
X105801D01*
Y131946D02*
Y133166D01*
X105486Y131946D02*
X105801D01*
X105486Y129662D02*
Y131946D01*
Y129662D02*
X105801D01*
Y128442D02*
Y129662D01*
X105486Y128442D02*
X105801D01*
X105486Y128048D02*
Y128442D01*
X99974Y128048D02*
X105486D01*
X99974D02*
Y128442D01*
X99659D02*
X99974D01*
X99659D02*
Y129662D01*
X99974D01*
Y131946D01*
X99659D02*
X99974D01*
X99659D02*
Y133166D01*
X99974D01*
Y133560D01*
X109350D02*
X114861D01*
Y133166D02*
Y133560D01*
Y133166D02*
X115176D01*
Y131946D02*
Y133166D01*
X114861Y131946D02*
X115176D01*
X114861Y129662D02*
Y131946D01*
Y129662D02*
X115176D01*
Y128442D02*
Y129662D01*
X114861Y128442D02*
X115176D01*
X114861Y128048D02*
Y128442D01*
X109350Y128048D02*
X114861D01*
X109350D02*
Y128442D01*
X109034D02*
X109350D01*
X109034D02*
Y129662D01*
X109350D01*
Y131946D01*
X109034D02*
X109350D01*
X109034D02*
Y133166D01*
X109350D01*
Y133560D01*
X184479D02*
X189990D01*
Y133166D02*
Y133560D01*
Y133166D02*
X190306D01*
Y131946D02*
Y133166D01*
X189990Y131946D02*
X190306D01*
X189990Y129662D02*
Y131946D01*
Y129662D02*
X190306D01*
Y128442D02*
Y129662D01*
X189990Y128442D02*
X190306D01*
X189990Y128048D02*
Y128442D01*
X184479Y128048D02*
X189990D01*
X184479D02*
Y128442D01*
X184163D02*
X184479D01*
X184163D02*
Y129662D01*
X184479D01*
Y131946D01*
X184163D02*
X184479D01*
X184163D02*
Y133166D01*
X184479D01*
Y133560D01*
X193853D02*
X199365D01*
Y133166D02*
Y133560D01*
Y133166D02*
X199680D01*
Y131946D02*
Y133166D01*
X199365Y131946D02*
X199680D01*
X199365Y129662D02*
Y131946D01*
Y129662D02*
X199680D01*
Y128442D02*
Y129662D01*
X199365Y128442D02*
X199680D01*
X199365Y128048D02*
Y128442D01*
X193853Y128048D02*
X199365D01*
X193853D02*
Y128442D01*
X193539D02*
X193853D01*
X193539D02*
Y129662D01*
X193853D01*
Y131946D01*
X193539D02*
X193853D01*
X193539D02*
Y133166D01*
X193853D01*
Y133560D01*
X203229D02*
X208740D01*
Y133166D02*
Y133560D01*
Y133166D02*
X209056D01*
Y131946D02*
Y133166D01*
X208740Y131946D02*
X209056D01*
X208740Y129662D02*
Y131946D01*
Y129662D02*
X209056D01*
Y128442D02*
Y129662D01*
X208740Y128442D02*
X209056D01*
X208740Y128048D02*
Y128442D01*
X203229Y128048D02*
X208740D01*
X203229D02*
Y128442D01*
X202913D02*
X203229D01*
X202913D02*
Y129662D01*
X203229D01*
Y131946D01*
X202913D02*
X203229D01*
X202913D02*
Y133166D01*
X203229D01*
Y133560D01*
X212603D02*
X218115D01*
Y133166D02*
Y133560D01*
Y133166D02*
X218430D01*
Y131946D02*
Y133166D01*
X218115Y131946D02*
X218430D01*
X218115Y129662D02*
Y131946D01*
Y129662D02*
X218430D01*
Y128442D02*
Y129662D01*
X218115Y128442D02*
X218430D01*
X218115Y128048D02*
Y128442D01*
X212603Y128048D02*
X218115D01*
X212603D02*
Y128442D01*
X212289D02*
X212603D01*
X212289D02*
Y129662D01*
X212603D01*
Y131946D01*
X212289D02*
X212603D01*
X212289D02*
Y133166D01*
X212603D01*
Y133560D01*
X222916D02*
X228428D01*
Y133166D02*
Y133560D01*
Y133166D02*
X228743D01*
Y131946D02*
Y133166D01*
X228428Y131946D02*
X228743D01*
X228428Y129662D02*
Y131946D01*
Y129662D02*
X228743D01*
Y128442D02*
Y129662D01*
X228428Y128442D02*
X228743D01*
X228428Y128048D02*
Y128442D01*
X222916Y128048D02*
X228428D01*
X222916D02*
Y128442D01*
X222601D02*
X222916D01*
X222601D02*
Y129662D01*
X222916D01*
Y131946D01*
X222601D02*
X222916D01*
X222601D02*
Y133166D01*
X222916D01*
Y133560D01*
X230416D02*
X235928D01*
Y133166D02*
Y133560D01*
Y133166D02*
X236243D01*
Y131946D02*
Y133166D01*
X235928Y131946D02*
X236243D01*
X235928Y129662D02*
Y131946D01*
Y129662D02*
X236243D01*
Y128442D02*
Y129662D01*
X235928Y128442D02*
X236243D01*
X235928Y128048D02*
Y128442D01*
X230416Y128048D02*
X235928D01*
X230416D02*
Y128442D01*
X230101D02*
X230416D01*
X230101D02*
Y129662D01*
X230416D01*
Y131946D01*
X230101D02*
X230416D01*
X230101D02*
Y133166D01*
X230416D01*
Y133560D01*
X237916D02*
X243428D01*
Y133166D02*
Y133560D01*
Y133166D02*
X243743D01*
Y131946D02*
Y133166D01*
X243428Y131946D02*
X243743D01*
X243428Y129662D02*
Y131946D01*
Y129662D02*
X243743D01*
Y128442D02*
Y129662D01*
X243428Y128442D02*
X243743D01*
X243428Y128048D02*
Y128442D01*
X237916Y128048D02*
X243428D01*
X237916D02*
Y128442D01*
X237601D02*
X237916D01*
X237601D02*
Y129662D01*
X237916D01*
Y131946D01*
X237601D02*
X237916D01*
X237601D02*
Y133166D01*
X237916D01*
Y133560D01*
X3Y562D02*
Y628D01*
D24*
X147870Y168968D02*
D03*
M02*
