G04 Layer_Color=8421504*
%FSLAX24Y24*%
%MOIN*%
G70*
G01*
G75*
%ADD10R,0.1181X0.1260*%
%ADD11R,0.0197X0.0984*%
%ADD12C,0.0100*%
D10*
X152568Y172950D02*
D03*
X143671D02*
D03*
X191547D02*
D03*
X182649D02*
D03*
D11*
X150678Y172163D02*
D03*
X150285D02*
D03*
X147923D02*
D03*
X147529D02*
D03*
X148316D02*
D03*
X146741D02*
D03*
X147135D02*
D03*
X145560D02*
D03*
X146348D02*
D03*
X145954D02*
D03*
X149104D02*
D03*
X149497D02*
D03*
X145167D02*
D03*
X148710D02*
D03*
X151072D02*
D03*
X149891D02*
D03*
X144773D02*
D03*
X151466D02*
D03*
X189657D02*
D03*
X189263D02*
D03*
X186901D02*
D03*
X186507D02*
D03*
X187295D02*
D03*
X185720D02*
D03*
X186114D02*
D03*
X184539D02*
D03*
X185326D02*
D03*
X184933D02*
D03*
X188082D02*
D03*
X188476D02*
D03*
X184145D02*
D03*
X187689D02*
D03*
X190051D02*
D03*
X188870D02*
D03*
X183752D02*
D03*
X190444D02*
D03*
D12*
X88668Y144623D02*
G03*
X88668Y146985I1J1181D01*
G01*
X244422Y146985D02*
G03*
X244422Y144623I-2J-1181D01*
G01*
X88668Y127053D02*
Y144623D01*
Y146985D02*
Y174022D01*
X244422D01*
Y146985D02*
Y174022D01*
Y127053D02*
Y144623D01*
X88668Y127053D02*
X244422D01*
M02*
